<?xml version="1.0" encoding="utf-8"?>
<!-- Generator: Adobe Illustrator 26.0.0, SVG Export Plug-In . SVG Version: 6.00 Build 0)  -->
<svg version="1.1" id="Layer_1" xmlns="http://www.w3.org/2000/svg" xmlns:xlink="http://www.w3.org/1999/xlink" x="0px" y="0px"
	 viewBox="0 0 131 25.8" style="enable-background:new 0 0 131 25.8;" xml:space="preserve">
<style type="text/css">
	.st0{fill:#FFFFFF;}
</style>
<g id="Layer_2_00000172399052634814790820000008930197870236731564_">
	<g id="Layer_1-2">
		<path class="st0" d="M92.7,23.3c-6.2-0.8-10.6-6.3-9.9-12.5c0.3-2.3,1.3-4.4,2.8-6.2c-3.3,1.7-5.4,4.9-5.8,8.6
			c-0.7,6.2,3.7,11.8,9.9,12.5c0,0,0,0,0,0c3.7,0.4,7.3-1,9.8-3.7C97.4,23.1,95,23.6,92.7,23.3z"/>
		<polygon class="st0" points="92.2,7.7 94.2,10.7 97.7,10.8 95.5,13.6 96.4,17.1 93,15.8 89.9,17.8 90.2,14.1 87.4,11.9 91,10.9 		
			"/>
		<path class="st0" d="M5.1,16.4v7.9H0v-23h8.2c5.8,0,8.7,2.5,8.7,7.4c0.1,2.2-0.8,4.3-2.5,5.7c-1.9,1.5-4.3,2.2-6.7,2.1H5.1V16.4z
			 M5.1,5.3v7.2h2.1c2.8,0,4.1-1.2,4.1-3.7S10,5.3,7.2,5.3L5.1,5.3z"/>
		<path class="st0" d="M32.6,24.4h-4.8V22l0,0c-1,1.8-2.8,2.8-4.8,2.8c-1.4,0.1-2.8-0.4-3.8-1.3c-0.9-1-1.4-2.3-1.3-3.7
			c0-3.2,1.9-5,5.7-5.5l4.5-0.7c0-1.8-0.9-2.8-2.9-2.8c-2,0-3.9,0.6-5.5,1.7V8.8c0.9-0.4,1.9-0.8,2.9-0.9c1.1-0.2,2.2-0.4,3.3-0.4
			c4.8,0,7,2.4,7,7L32.6,24.4L32.6,24.4z M27.8,17.7v-1l-3,0.4c-1.7,0.3-2.5,0.9-2.5,2.2c0,1.1,0.9,2,2,2c0.1,0,0.2,0,0.3,0
			c0.9,0,1.8-0.4,2.4-1C27.5,19.5,27.8,18.6,27.8,17.7z"/>
		<path class="st0" d="M53.2,24.4H47l-5.3-8.2l0,0v8.2h-5.2V0h5.2v15.6l0,0l4.9-7.7h6.1l-5.9,7.8L53.2,24.4z"/>
		<path class="st0" d="M78.9,7.9l-4.8,16.5h-5.4l-2.4-9.6c-0.2-0.7-0.3-1.4-0.3-2.1h-0.1c-0.1,0.8-0.1,1.6-0.3,2.1L63,24.5h-5.2
			L53.2,8h5.1l2.2,10.8c0.1,0.5,0.1,1,0.3,1.9h0.1c0-0.6,0.1-1.2,0.3-1.9L64,8.2h4.9L71.3,19c0,0.3,0.1,0.9,0.3,1.9h0.1
			c0-0.6,0.1-1.2,0.2-1.9l2.1-10.8h4.8V7.9z"/>
		<path class="st0" d="M112.1,12.5c-0.6-0.4-1.4-0.6-2.1-0.5c-1,0-2,0.4-2.6,1.2c-0.7,1-1,2.1-0.9,3.3v7.9h-5.1V7.9h5.1v3l0,0
			c0.8-2.2,2.2-3.3,4.3-3.3c0.4,0,0.9,0,1.3,0.1L112.1,12.5z"/>
		<path class="st0" d="M131,24.4h-6.2l-5.3-8.2l0,0v8.2h-5.2V0h5.2v15.6l0,0l4.9-7.7h6.1l-5.9,7.8L131,24.4z"/>
	</g>
</g>
</svg>
