<svg xmlns="http://www.w3.org/2000/svg" viewBox="0 0 130.96 25.78"><defs><style>.cls-1{fill:#006837;}</style></defs><g id="Layer_2" data-name="Layer 2"><g id="Layer_1-2" data-name="Layer 1"><path class="cls-1" d="M92.72,23.34a11.37,11.37,0,0,1-9.9-12.53,11.63,11.63,0,0,1,2.77-6.19,10.92,10.92,0,0,0-5.8,8.57,11.27,11.27,0,0,0,9.89,12.53A11.46,11.46,0,0,0,99.44,22,11.58,11.58,0,0,1,92.72,23.34Z"/><polygon class="cls-1" points="92.19 7.65 94.17 10.68 97.73 10.81 95.48 13.58 96.41 17.14 92.98 15.83 89.95 17.8 90.21 14.11 87.44 11.87 91 10.95 92.19 7.65"/><path d="M5.14,16.35v7.92H0V1.32H8.18c5.8,0,8.7,2.5,8.7,7.38a7,7,0,0,1-2.5,5.68,10.05,10.05,0,0,1-6.73,2.11H5.14Zm0-11.07v7.25H7.25c2.77,0,4.09-1.19,4.09-3.69S10,5.28,7.25,5.28Z"/><path d="M32.58,24.4H27.83V22h0A5.33,5.33,0,0,1,23,24.79a5.24,5.24,0,0,1-3.83-1.31,4.92,4.92,0,0,1-1.32-3.7c0-3.16,1.85-5,5.68-5.54L28,13.58c0-1.84-.92-2.77-2.9-2.77a9.45,9.45,0,0,0-5.54,1.72V8.84a10.74,10.74,0,0,1,2.9-.93,16.14,16.14,0,0,1,3.3-.39c4.75,0,7,2.37,7,7l-.13,9.89Zm-4.75-6.73V16.62l-3,.39c-1.71.27-2.5.93-2.5,2.25a2,2,0,0,0,2.24,2,3.28,3.28,0,0,0,2.37-1.05A3.86,3.86,0,0,0,27.83,17.67Z"/><path d="M53.15,24.4H47l-5.27-8.18h0V24.4H36.53V0h5.15V15.56h0l4.88-7.65h6.06l-5.93,7.78Z"/><path d="M78.87,7.91,74.12,24.4H68.71l-2.37-9.63a10.38,10.38,0,0,1-.27-2.11h-.13c-.13.79-.13,1.58-.26,2.11L63,24.53H57.77L53.15,8h5.14l2.25,10.82c.13.53.13,1.05.26,1.85h.13a7,7,0,0,1,.26-1.85L64,8.18h4.88L71.35,19c0,.27.13.92.26,1.85h.14A9.06,9.06,0,0,1,72,19L74.12,8.18h4.75V7.91Z"/><path d="M112.1,12.53A3.84,3.84,0,0,0,110,12a3.34,3.34,0,0,0-2.64,1.19,5.15,5.15,0,0,0-.92,3.3V24.4h-5.14V7.91h5.14v3h0c.79-2.25,2.24-3.3,4.35-3.3a4.1,4.1,0,0,1,1.32.13Z"/><path d="M131,24.4h-6.2l-5.27-8.18h0V24.4h-5.15V0h5.15V15.56h0l4.88-7.65h6.06l-5.93,7.78Z"/></g></g></svg>