<?xml version="1.0" encoding="utf-8"?>
<!-- Generator: Adobe Illustrator 26.0.0, SVG Export Plug-In . SVG Version: 6.00 Build 0)  -->
<svg version="1.1" xmlns="http://www.w3.org/2000/svg" xmlns:xlink="http://www.w3.org/1999/xlink" x="0px" y="0px"
	 viewBox="0 0 500 500" style="enable-background:new 0 0 500 500;" xml:space="preserve">
<style type="text/css">
	.st0{fill:#92E3A9;}
	.st1{opacity:0.7;fill:#FFFFFF;}
	.st2{opacity:0.2;}
	.st3{fill:none;stroke:#000000;stroke-linejoin:round;stroke-miterlimit:10;}
	.st4{opacity:0.2;fill:none;stroke:#000000;stroke-linejoin:round;stroke-miterlimit:10;}
	.st5{fill:#707070;stroke:#263238;stroke-linejoin:round;stroke-miterlimit:10;}
	.st6{fill:#263238;stroke:#263238;stroke-linejoin:round;stroke-miterlimit:10;}
	.st7{fill:#FFFFFF;stroke:#263238;stroke-linejoin:round;stroke-miterlimit:10;}
	.st8{fill:#FFFFFF;}
	.st9{fill:none;stroke:#263238;stroke-linejoin:round;stroke-miterlimit:10;}
	.st10{fill:none;stroke:#263238;stroke-linecap:round;stroke-linejoin:round;stroke-miterlimit:10;}
	.st11{fill:#263238;}
	.st12{fill:#595959;}
	.st13{fill:#707070;}
	.st14{fill:none;stroke:#263238;stroke-width:2;stroke-linecap:round;stroke-linejoin:round;stroke-miterlimit:10;}
	.st15{opacity:0.3;fill:#263238;}
	.st16{opacity:0.2;fill:#263238;}
	.st17{fill:#FFFFFF;stroke:#263238;stroke-miterlimit:10;}
	.st18{fill:none;stroke:#808080;stroke-linejoin:round;stroke-miterlimit:10;}
	.st19{fill:#595959;stroke:#263238;stroke-linejoin:round;stroke-miterlimit:10;}
	.st20{fill:#92E3A9;stroke:#263238;stroke-linejoin:round;stroke-miterlimit:10;}
</style>
<g id="Background_Simple">
	<g>
		<path class="st0" d="M448.8,113.5c-3.3-5.3-6.9-10.4-10.9-15.3c-32.4-39.8-74.7-56.6-123-67.9C264.9,18.6,206.5,15,158.6,36
			c-11.3,5-22,11.6-30.5,20.6C96,90.5,85,147.3,49.3,192.2S-3.8,292.9,28.2,346.1c13.6,22.5,30.9,41,51.3,57.3
			c25.2,20,46.9,47.1,76.1,62.7c30.6,16.4,71.4,22.2,105.3,14.6c38.7-8.6,61.3-42.7,90.8-66c23.3-18.4,51.1-30.4,73.9-49.3
			c34.9-29,61.4-75.7,57-121.9C478.3,198.6,472.7,152,448.8,113.5z"/>
		<path class="st1" d="M448.8,113.5c-3.3-5.3-6.9-10.4-10.9-15.3c-32.4-39.8-74.7-56.6-123-67.9C264.9,18.6,206.5,15,158.6,36
			c-11.3,5-22,11.6-30.5,20.6C96,90.5,85,147.3,49.3,192.2S-3.8,292.9,28.2,346.1c13.6,22.5,30.9,41,51.3,57.3
			c25.2,20,46.9,47.1,76.1,62.7c30.6,16.4,71.4,22.2,105.3,14.6c38.7-8.6,61.3-42.7,90.8-66c23.3-18.4,51.1-30.4,73.9-49.3
			c34.9-29,61.4-75.7,57-121.9C478.3,198.6,472.7,152,448.8,113.5z"/>
	</g>
</g>
<g id="Window">
	<g>
		<path class="st2" d="M454.7,31.1c-2,0-3.7,1.3-4.4,3.1H224.9c-0.6-1.8-2.3-3.1-4.4-3.1c-2.5,0-4.6,2.1-4.6,4.6
			c0,2.5,2.1,4.6,4.6,4.6c2,0,3.7-1.3,4.4-3.1h225.5c0.6,1.8,2.3,3.1,4.4,3.1c2.5,0,4.6-2.1,4.6-4.6
			C459.4,33.2,457.3,31.1,454.7,31.1z"/>
		<g class="st2">
			<path class="st3" d="M278.2,38c3.2,78.2,6,157.1,9.4,235l-0.3,15.3c0,0-14.5,0-22.1,0.8c-7.6,0.8-19.4,0.8-27.8,0.8
				c-8.4,0-12.9-3-12.9-3l0.5-13.8c1.7-77.9,3.5-156.8,4.7-235"/>
			<line class="st3" x1="242.2" y1="260.1" x2="242.1" y2="269.3"/>
			<line class="st3" x1="243" y1="80.7" x2="242.2" y2="251.9"/>
			<line class="st3" x1="243.2" y1="36.3" x2="243" y2="75.6"/>
			<line class="st3" x1="256.1" y1="126.2" x2="254.4" y2="240.2"/>
			<line class="st3" x1="257.5" y1="37.3" x2="256.2" y2="119.1"/>
			<line class="st3" x1="268.2" y1="157.9" x2="268.7" y2="263.7"/>
			<line class="st3" x1="267.9" y1="82.8" x2="268.2" y2="149.2"/>
			<line class="st3" x1="267.7" y1="38.3" x2="267.9" y2="74.6"/>
		</g>
		<g class="st2">
			<path class="st3" d="M394.9,38c-3.1,82.8-7,166.4-10,248.7c0,0,9.8,1.5,16.2,1.5c6.3,0,7.6,0,14.6,0c7,0,10.8,0,17.7,0
				c7,0,15-1.5,15-1.5c-1.5-82.3-2.4-165.9-5-248.7"/>
			<line class="st3" x1="430.9" y1="260.1" x2="431" y2="269.3"/>
			<line class="st3" x1="430.1" y1="80.7" x2="430.9" y2="251.9"/>
			<line class="st3" x1="429.9" y1="36.3" x2="430.1" y2="75.6"/>
			<line class="st3" x1="417" y1="126.2" x2="418.7" y2="240.2"/>
			<line class="st3" x1="415.6" y1="37.3" x2="416.9" y2="119.1"/>
			<line class="st3" x1="404.9" y1="157.9" x2="404.4" y2="263.7"/>
			<line class="st3" x1="405.2" y1="82.8" x2="404.9" y2="149.2"/>
			<line class="st3" x1="405.4" y1="38.3" x2="405.2" y2="74.6"/>
		</g>
		<g class="st2">
			<polyline class="st3" points="279.7,60.2 302.4,60.2 302.4,86.7 281.2,86.7 			"/>
			<rect x="306.3" y="60.3" class="st3" width="23.7" height="26.6"/>
		</g>
		<g class="st2">
			<polyline class="st3" points="393.8,60.2 371.1,60.2 371.1,86.7 392.2,86.7 			"/>
			
				<rect x="343.4" y="60.3" transform="matrix(-1 -1.224647e-16 1.224647e-16 -1 710.4953 147.1637)" class="st3" width="23.7" height="26.6"/>
		</g>
		<polyline class="st4" points="283.4,180.6 330.6,180.6 330.6,101.2 281.3,101.2 		"/>
		<polyline class="st4" points="391.4,100.5 343.1,100.5 343.1,180.6 387.7,180.6 		"/>
		<polyline class="st4" points="285,199.4 330.6,199.4 330.6,279.2 288.4,279.2 		"/>
		<polyline class="st4" points="388.3,198.7 343.1,198.7 343.1,279.9 384.3,279.9 		"/>
		<line class="st4" x1="288.2" y1="285" x2="384.9" y2="285"/>
		<line class="st4" x1="279.5" y1="51" x2="393.7" y2="51"/>
		<line class="st4" x1="336.9" y1="51.6" x2="336.9" y2="283.9"/>
		<line class="st4" x1="280.9" y1="95" x2="392" y2="95"/>
	</g>
</g>
<g id="Couch">
	<g class="st2">
		<path class="st3" d="M354.9,385.2v-46V308c0-6.1-5-11.1-11.1-11.1H243.2h-0.9v88.3v0.8"/>
		<path class="st3" d="M243.2,296.9h-0.9H139.9c-6.1,0-11.1,5-11.1,11.1v32.9v44.3"/>
		<path class="st3" d="M364.9,392.6v26H242.4v-33.3h115.1C361.6,385.2,364.9,388.5,364.9,392.6z"/>
		<path class="st3" d="M243.4,385.2h-0.1h-0.8h0H130.9h-2.1h-2.6c-4.1,0-7.4,3.3-7.4,7.4v26h123.6h0.9"/>
		<rect x="118.8" y="418.5" class="st3" width="246.3" height="41.8"/>
		<path class="st3" d="M128.8,340.9c-1.4-1.4-3.3-2.3-5.4-2.3h-22.3c-4.1,0-7.4,3.3-7.4,7.4v106.9c0,4.1,3.3,7.4,7.4,7.4h17.7h4.6"
			/>
		<path class="st3" d="M357.7,460.4h7.4H380c4.1,0,7.4-3.3,7.4-7.4V346c0-4.1-3.3-7.4-7.4-7.4h-22.3c-1,0-1.9,0.2-2.8,0.5"/>
	</g>
</g>
<g id="Device">
	<g>
		<g>
			<path class="st5" d="M248.9,147.2v-34.9h-3.2V67.6c0-15.2-12.3-27.6-27.6-27.6h-148c-15.2,0-27.6,12.3-27.6,27.6v300.7
				c0,15.2,12.3,27.6,27.6,27.6h148c15.2,0,27.6-12.3,27.6-27.6V177h3.2v-20.6h-3.2v-9.1H248.9z"/>
			<path class="st6" d="M212,392.1H76.3c-16.9,0-30.5-13.7-30.5-30.5V74.4c0-16.9,13.7-30.5,30.5-30.5H212
				c16.9,0,30.5,13.7,30.5,30.5v287.2C242.5,378.4,228.9,392.1,212,392.1z"/>
			<path class="st7" d="M209.5,46.3h-54.6l-0.1,0.2c-1.6,5.8-5.3,9.6-9.5,9.6H143c-4.1,0-7.8-3.8-9.5-9.6l-0.1-0.2H78.8
				c-15.2,0-27.6,12.3-27.6,27.6v274.8c0,15.2,12.3,27.6,27.6,27.6h130.7c15.2,0,27.6-12.3,27.6-27.6V73.9
				C237.1,58.7,224.7,46.3,209.5,46.3z"/>
			<path class="st0" d="M209.5,46.3h-54.6l-0.1,0.2c-1.6,5.8-5.3,9.6-9.5,9.6H143c-4.1,0-7.8-3.8-9.5-9.6l-0.1-0.2H78.8
				c-15.2,0-27.6,12.3-27.6,27.6V77h185.8v-3.1C237.1,58.7,224.7,46.3,209.5,46.3z"/>
			<g>
				<path class="st0" d="M205.8,202c0-6,8.2-13.1,6.7-18.6c-1.5-5.8-12.2-7.7-15.1-12.8c-3-5.1,0.6-15.3-3.5-19.5
					c-4.1-4.1-14.3-0.6-19.5-3.5c-5-2.9-7-13.6-12.8-15.1c-5.6-1.5-12.6,6.7-18.6,6.7c-6,0-13.1-8.2-18.6-6.7
					c-5.8,1.5-7.7,12.2-12.8,15.1c-5.1,3-15.3-0.6-19.5,3.5c-4.1,4.1-0.6,14.3-3.5,19.5c-2.9,5-13.6,7-15.1,12.8
					c-1.5,5.6,6.7,12.6,6.7,18.6c0,6-8.2,13.1-6.7,18.6c1.5,5.8,12.2,7.7,15.1,12.8c3,5.1-0.6,15.3,3.5,19.5
					c4.1,4.1,14.3,0.6,19.5,3.5c5,2.9,7,13.6,12.8,15.1c5.6,1.5,12.6-6.7,18.6-6.7c6,0,13.1,8.2,18.6,6.7
					c5.8-1.5,7.7-12.2,12.8-15.1c5.1-3,15.3,0.6,19.5-3.5c4.1-4.1,0.6-14.3,3.5-19.5c2.9-5,13.6-7,15.1-12.8
					C214,215.1,205.8,208,205.8,202z"/>
				<g>
					<path class="st8" d="M142.1,227.2L115,198.4c-1.3-1.4-1.2-3.5,0.1-4.8c1.4-1.3,3.5-1.2,4.8,0.1l21.3,22.6l26.9-39
						c1.1-1.6,3.2-1.9,4.8-0.9c1.6,1.1,1.9,3.2,0.9,4.8L142.1,227.2z"/>
				</g>
			</g>
			<g>
				<path class="st9" d="M72.2,303.9l-0.8,0.8l-5.6,5.6l-6.5-6.5c-1.6-1.6-1.6-4.1,0-5.6c0.8-0.8,1.8-1.2,2.8-1.2c1,0,2,0.4,2.8,1.2
					l0.8,0.8l0.8-0.8c0.8-0.8,1.8-1.2,2.8-1.2c1,0,2,0.4,2.8,1.2C73.7,299.8,73.7,302.3,72.2,303.9z"/>
				<g>
					<g>
						<circle class="st10" cx="87.9" cy="304" r="8.2"/>
						<path class="st10" d="M83.1,305.5c0.6,2.1,2,3.9,4.8,3.9c2.9,0,4.3-1.6,4.8-3.9H83.1z"/>
						<path class="st11" d="M85.9,302.5c0,0.9-0.3,1.7-0.6,1.7c-0.3,0-0.6-0.8-0.6-1.7s0.3-1.7,0.6-1.7
							C85.6,300.8,85.9,301.5,85.9,302.5z"/>
						<path class="st11" d="M90.6,302.5c0,0.9-0.3,1.7-0.6,1.7c-0.3,0-0.6-0.8-0.6-1.7s0.3-1.7,0.6-1.7
							C90.3,300.8,90.6,301.5,90.6,302.5z"/>
					</g>
				</g>
			</g>
			<line class="st9" x1="59.4" y1="320.5" x2="116.5" y2="320.5"/>
			<line class="st9" x1="162.3" y1="328" x2="181.7" y2="328"/>
			<line class="st9" x1="146.3" y1="328" x2="158.3" y2="328"/>
			<line class="st9" x1="98.3" y1="328" x2="141.7" y2="328"/>
			<line class="st9" x1="59.4" y1="328" x2="93" y2="328"/>
			<line class="st9" x1="132.3" y1="336" x2="170" y2="336"/>
			<line class="st9" x1="99" y1="336" x2="127.7" y2="336"/>
			<line class="st9" x1="59.4" y1="336" x2="94.3" y2="336"/>
			<line class="st9" x1="219.7" y1="344" x2="224.3" y2="344"/>
			<line class="st9" x1="185" y1="344" x2="216.3" y2="344"/>
			<line class="st9" x1="123.7" y1="344" x2="177" y2="344"/>
			<line class="st9" x1="73" y1="344" x2="118.3" y2="344"/>
			<line class="st9" x1="59.4" y1="344" x2="67.7" y2="344"/>
			<circle class="st12" cx="70.9" cy="102.7" r="11"/>
			<line class="st9" x1="87.3" y1="103.2" x2="125.2" y2="103.2"/>
			<circle class="st13" cx="143.6" cy="47.7" r="2.6"/>
		</g>
		<g>
			<g>
				<g>
					<path class="st8" d="M67.8,57.6c0,2.6-2.9,3.6-3,5.6v0.1h2.9v0.9h-3.8v-0.7c0-2.8,2.9-3.3,2.9-5.8c0-0.9-0.3-1.4-1-1.4
						c-0.7,0-1,0.5-1,1.3v0.8h-0.9v-0.7c0-1.3,0.6-2.2,1.9-2.2C67.2,55.4,67.8,56.2,67.8,57.6z"/>
					<path class="st8" d="M72.5,57.6v0.2c0,0.9-0.4,1.5-1.1,1.8c0.7,0.3,1.1,0.9,1.1,1.8V62c0,1.3-0.6,2.2-2,2.2
						c-1.3,0-1.9-0.9-1.9-2.2v-0.6h0.9v0.7c0,0.8,0.3,1.3,1,1.3c0.7,0,1-0.5,1-1.3v-0.7c0-0.9-0.4-1.3-1.1-1.3h-0.5v-0.9h0.6
						c0.6,0,1-0.4,1-1.2v-0.4c0-0.9-0.3-1.4-1-1.4c-0.7,0-1,0.5-1,1.3V58h-0.9v-0.4c0-1.3,0.6-2.2,1.9-2.2
						C71.9,55.4,72.5,56.2,72.5,57.6z"/>
					<path class="st8" d="M74.4,58.2v1.2h-0.9v-1.2H74.4z M74.4,62.9v1.2h-0.9v-1.2H74.4z"/>
					<path class="st8" d="M76.4,59c0.3-0.5,0.7-0.7,1.3-0.7c1.1,0,1.6,0.8,1.6,2.1V62c0,1.3-0.6,2.2-2,2.2c-1.3,0-1.9-0.9-1.9-2.2
						v-0.6h0.9v0.6c0,0.8,0.3,1.3,1,1.3c0.7,0,1-0.5,1-1.3v-1.7c0-0.8-0.3-1.3-1-1.3c-0.5,0-0.9,0.3-1,0.9v0.2h-0.9l0.2-4.8H79v0.9
						h-2.6L76.4,59z"/>
					<path class="st8" d="M84.1,57.6v0.2h-0.9v-0.2c0-0.8-0.3-1.2-1-1.2c-0.7,0-1.1,0.5-1.1,1.4v1.9c0.2-0.6,0.7-0.9,1.4-0.9
						c1.1,0,1.6,0.8,1.6,2.1V62c0,1.3-0.7,2.2-2,2.2c-1.3,0-2-0.9-2-2.2v-4.4c0-1.4,0.6-2.2,2-2.2C83.5,55.4,84.1,56.2,84.1,57.6z
						 M81.1,60.8v1.3c0,0.8,0.3,1.3,1,1.3c0.7,0,1-0.5,1-1.3v-1.3c0-0.8-0.3-1.3-1-1.3C81.4,59.5,81.1,60,81.1,60.8z"/>
				</g>
				<g>
					<rect x="176.4" y="57.9" class="st8" width="2.5" height="6.1"/>
					<rect x="179.7" y="56.7" class="st8" width="2.5" height="7.4"/>
					<rect x="182.9" y="55.8" class="st8" width="2.5" height="8.2"/>
					<rect x="186.2" y="54.3" class="st8" width="2.5" height="9.7"/>
					<g>
						<g>
							<path class="st8" d="M219,63.9h-14.7v-9H219V63.9z M205.1,63.1h13.1v-7.4h-13.1V63.1z"/>
						</g>
						<g>
							<rect x="206.3" y="56.6" class="st8" width="7.8" height="5.6"/>
						</g>
						<g>
							<rect x="218.5" y="58.3" class="st8" width="1.8" height="2.1"/>
						</g>
					</g>
					<g>
						<path class="st8" d="M198.9,61.9c-0.1,0-0.2,0-0.3-0.1c-3-1.8-5-0.1-5.1-0.1c-0.2,0.2-0.6,0.2-0.8-0.1
							c-0.2-0.2-0.2-0.6,0.1-0.8c0.1-0.1,2.6-2.3,6.3-0.1c0.3,0.2,0.3,0.5,0.2,0.8C199.3,61.8,199.1,61.9,198.9,61.9z"/>
					</g>
					<g>
						<path class="st8" d="M200,60.1c-0.1,0-0.2,0-0.3-0.1c-4.3-2.6-7.2-0.1-7.3-0.1c-0.2,0.2-0.6,0.2-0.8,0c-0.2-0.2-0.2-0.6,0-0.8
							c0,0,3.5-3,8.6-0.1c0.3,0.2,0.3,0.5,0.2,0.8C200.4,60,200.2,60.1,200,60.1z"/>
					</g>
					<g>
						<path class="st8" d="M201,58c-0.1,0-0.2,0-0.3-0.1c-5.5-3.3-9.1-0.2-9.3-0.1c-0.2,0.2-0.6,0.2-0.8-0.1
							c-0.2-0.2-0.2-0.6,0.1-0.8c0,0,4.4-3.7,10.6-0.1c0.3,0.2,0.3,0.5,0.2,0.8C201.4,57.9,201.2,58,201,58z"/>
					</g>
					<g>
						<path class="st8" d="M197.3,62.9c0,0.8-0.6,1.4-1.4,1.4c-0.8,0-1.4-0.6-1.4-1.4c0-0.8,0.6-1.4,1.4-1.4
							C196.6,61.5,197.3,62.1,197.3,62.9z"/>
					</g>
				</g>
			</g>
		</g>
	</g>
</g>
<g id="Plants">
	<g>
		<path class="st14" d="M451.6,273.5c0,0-12-6.6-12.8,8.4c-0.9,15-3.1,139.9-3.1,139.9"/>
		<path class="st14" d="M432.5,283.2c0,0,9.7,48.7,5.3,137.2"/>
		<g>
			<path class="st0" d="M442.1,276.5c0,0-4.6,2.9-7.2-0.4c-2.6-3.4,1.8-9.5-2.1-12.1c-3.8-2.6-10.5,1.4-10.5,1.4s5.1,1.5,4.9,4.3
				c-0.2,2.8-2.6,3.8-3,2.6c-0.3-1.2-2.8-7.4-6.9-4.8c-4.1,2.6-4.8,6.5-4.8,6.5s9.7-1,10.2,2.6c0.6,3.6-4-0.6-7.9-0.9
				c-4-0.2-7.6,0.4-7.4,2.8c0.3,2.4-0.4,6.4-0.4,6.4s3.4-3,7.8-2.7s4.2,3,0.2,2.8c-4-0.2-7.4,3.6-7.4,3.6s3.6,6.2,8.2,9.3
				c4.6,3.1,6.3,2,6.8-0.4c0.5-2.4-0.7-8.4,2.1-8.3c2.8,0.2-4.6,10.5-1.1,11.1c3.6,0.6,6.4-0.4,7.4-2.8c0.9-2.3,0.9-2.3,0.9-2.3
				s-1.2-6.1-0.7-8.4c0.5-2.4,1.2,0.1,1.8,2.9c0.6,2.8,1,9.7,2.2,9.3c1.2-0.3,5.1-5.3,6-7.2c0.9-1.9-5.1-7.9-5.1-9.1
				c0.1-1.2,4.7,1.1,5.5,2.3c0.7,1.2,1.4,2.9,1.4,2.9s2.9-1.8,2.8-7.4C446.2,274.8,442.1,276.5,442.1,276.5z"/>
			<path class="st15" d="M442.1,276.5c0,0-4.6,2.9-7.2-0.4c-2.6-3.4,1.8-9.5-2.1-12.1c-3.8-2.6-10.5,1.4-10.5,1.4s5.1,1.5,4.9,4.3
				c-0.2,2.8-2.6,3.8-3,2.6c-0.3-1.2-2.8-7.4-6.9-4.8c-4.1,2.6-4.8,6.5-4.8,6.5s9.7-1,10.2,2.6c0.6,3.6-4-0.6-7.9-0.9
				c-4-0.2-7.6,0.4-7.4,2.8c0.3,2.4-0.4,6.4-0.4,6.4s3.4-3,7.8-2.7s4.2,3,0.2,2.8c-4-0.2-7.4,3.6-7.4,3.6s3.6,6.2,8.2,9.3
				c4.6,3.1,6.3,2,6.8-0.4c0.5-2.4-0.7-8.4,2.1-8.3c2.8,0.2-4.6,10.5-1.1,11.1c3.6,0.6,6.4-0.4,7.4-2.8c0.9-2.3,0.9-2.3,0.9-2.3
				s-1.2-6.1-0.7-8.4c0.5-2.4,1.2,0.1,1.8,2.9c0.6,2.8,1,9.7,2.2,9.3c1.2-0.3,5.1-5.3,6-7.2c0.9-1.9-5.1-7.9-5.1-9.1
				c0.1-1.2,4.7,1.1,5.5,2.3c0.7,1.2,1.4,2.9,1.4,2.9s2.9-1.8,2.8-7.4C446.2,274.8,442.1,276.5,442.1,276.5z"/>
			<path class="st10" d="M418.9,289.6c3-3.7,7.4-8.7,11.1-11.1"/>
			<path class="st10" d="M415.5,294.1c0,0,0.8-1.1,2-2.7"/>
			<path class="st10" d="M431.9,279.5c0,0,4.4,6.3,5.2,12.7"/>
			<path class="st10" d="M426.9,283.2c0,0,1.2-0.7,0.8,7.2"/>
			<path class="st10" d="M430.1,275.8c0,0,2.5-2.2,1.2-6.7"/>
			<line class="st10" x1="426.7" y1="279.6" x2="424.9" y2="276.3"/>
			<path class="st10" d="M422.9,283c0,0-5.7-4.3-9.3-4.5"/>
		</g>
		<g>
			<path class="st0" d="M458.4,264.7c0,0-0.2,6.6-5.3,6.9c-5.1,0.3-8.3-8.2-13.6-6.2c-5.2,2.1-5.8,11.4-5.8,11.4s5-4.1,7.7-2
				c2.7,2.1,2.1,5.2,0.6,4.7c-1.4-0.5-9.3-2.2-9.5,3.6c-0.3,5.9,3.3,9.2,3.3,9.2s5.6-10.4,9.6-8.5c4,1.9-3.3,3.5-6.3,7.4
				c-3,3.8-4.8,7.9-2.2,9.3c2.6,1.4,6.1,4.7,6.1,4.7s-0.7-5.4,2.5-9.6c3.2-4.2,5.9-2.1,3,1.7c-3,3.8-1.5,9.8-1.5,9.8
				s8.7,0.6,14.9-1.9c6.2-2.5,6.3-4.9,4.3-7.1c-2-2.2-8.9-5-6.9-7.7c2.1-2.7,7.4,11.8,10.4,8.6c3-3.2,4-6.7,2.2-9.3
				c-1.7-2.5-1.7-2.5-1.7-2.5s-6.9-2.9-8.9-5c-2-2.2,0.9-1.1,4.2,0.2c3.3,1.3,10.4,5.6,10.9,4.1c0.5-1.4-1.8-8.7-3.1-11
				c-1.3-2.2-11.4-0.2-12.6-1.1s4.3-4,6-3.9c1.7,0.1,3.9,0.5,3.9,0.5s0.2-4.2-5.5-7.9C459.4,259.4,458.4,264.7,458.4,264.7z"/>
			<path class="st16" d="M458.4,264.7c0,0-0.2,6.6-5.3,6.9c-5.1,0.3-8.3-8.2-13.6-6.2c-5.2,2.1-5.8,11.4-5.8,11.4s5-4.1,7.7-2
				c2.7,2.1,2.1,5.2,0.6,4.7c-1.4-0.5-9.3-2.2-9.5,3.6c-0.3,5.9,3.3,9.2,3.3,9.2s5.6-10.4,9.6-8.5c4,1.9-3.3,3.5-6.3,7.4
				c-3,3.8-4.8,7.9-2.2,9.3c2.6,1.4,6.1,4.7,6.1,4.7s-0.7-5.4,2.5-9.6c3.2-4.2,5.9-2.1,3,1.7c-3,3.8-1.5,9.8-1.5,9.8
				s8.7,0.6,14.9-1.9c6.2-2.5,6.3-4.9,4.3-7.1c-2-2.2-8.9-5-6.9-7.7c2.1-2.7,7.4,11.8,10.4,8.6c3-3.2,4-6.7,2.2-9.3
				c-1.7-2.5-1.7-2.5-1.7-2.5s-6.9-2.9-8.9-5c-2-2.2,0.9-1.1,4.2,0.2c3.3,1.3,10.4,5.6,10.9,4.1c0.5-1.4-1.8-8.7-3.1-11
				c-1.3-2.2-11.4-0.2-12.6-1.1s4.3-4,6-3.9c1.7,0.1,3.9,0.5,3.9,0.5s0.2-4.2-5.5-7.9C459.4,259.4,458.4,264.7,458.4,264.7z"/>
			<path class="st10" d="M455.7,296.9c-1.7-5.5-3.7-13.3-3.5-18.6"/>
			<path class="st10" d="M457.9,303.4c0,0-0.5-1.5-1.3-3.8"/>
			<path class="st10" d="M454.4,276.9c0,0,9.3-0.2,16.3,3.4"/>
			<path class="st10" d="M454.7,284.5c0,0,0.1-1.7,7.8,4.2"/>
			<path class="st10" d="M449.5,276.2c0,0-0.5-4.1-5.9-5.8"/>
			<line class="st10" x1="451" y1="282.2" x2="446.5" y2="281.8"/>
			<path class="st10" d="M451.8,288.3c0,0-8.3,2.8-10.9,6.2"/>
		</g>
		<path class="st14" d="M403.3,308.4c0,0,26.1,44.3,25.7,111.1"/>
		<g>
			<path class="st0" d="M435.5,303.9c0,0-0.8,7.6-6.8,7.5c-5.9-0.1-8.8-10.3-15.1-8.4c-6.3,1.9-7.7,12.6-7.7,12.6s6.1-4.3,9-1.6
				c2.9,2.6,1.9,6.3,0.3,5.5c-1.6-0.7-10.5-3.5-11.3,3.3c-0.9,6.8,2.9,11,2.9,11s7.4-11.4,11.9-8.9c4.5,2.6-4.2,3.8-7.9,7.9
				c-3.8,4.1-6.3,8.6-3.5,10.5c2.9,1.8,6.6,6,6.6,6s-0.3-6.3,3.8-10.9c4.1-4.6,7-1.9,3.3,2.2c-3.8,4.1-2.6,11.2-2.6,11.2
				s10,1.5,17.4-0.8c7.4-2.3,7.7-5.1,5.6-7.8c-2.1-2.7-9.8-6.7-7.2-9.6c2.6-2.9,7.4,14.3,11.2,11c3.8-3.3,5.2-7.4,3.5-10.5
				c-1.7-3.1-1.7-3.1-1.7-3.1s-7.7-4-9.8-6.7c-2.1-2.7,1.1-1.2,4.8,0.6c3.7,1.8,11.4,7.4,12.2,5.8c0.7-1.6-1.3-10.2-2.6-13
				c-1.3-2.7-13.1-1.4-14.4-2.5c-1.2-1.1,5.3-4.2,7.3-3.9c2,0.3,4.4,1,4.4,1s0.6-4.8-5.6-9.6C437.2,297.9,435.5,303.9,435.5,303.9z"
				/>
			<path class="st15" d="M435.5,303.9c0,0-0.8,7.6-6.8,7.5c-5.9-0.1-8.8-10.3-15.1-8.4c-6.3,1.9-7.7,12.6-7.7,12.6s6.1-4.3,9-1.6
				c2.9,2.6,1.9,6.3,0.3,5.5c-1.6-0.7-10.5-3.5-11.3,3.3c-0.9,6.8,2.9,11,2.9,11s7.4-11.4,11.9-8.9c4.5,2.6-4.2,3.8-7.9,7.9
				c-3.8,4.1-6.3,8.6-3.5,10.5c2.9,1.8,6.6,6,6.6,6s-0.3-6.3,3.8-10.9c4.1-4.6,7-1.9,3.3,2.2c-3.8,4.1-2.6,11.2-2.6,11.2
				s10,1.5,17.4-0.8c7.4-2.3,7.7-5.1,5.6-7.8c-2.1-2.7-9.8-6.7-7.2-9.6c2.6-2.9,7.4,14.3,11.2,11c3.8-3.3,5.2-7.4,3.5-10.5
				c-1.7-3.1-1.7-3.1-1.7-3.1s-7.7-4-9.8-6.7c-2.1-2.7,1.1-1.2,4.8,0.6c3.7,1.8,11.4,7.4,12.2,5.8c0.7-1.6-1.3-10.2-2.6-13
				c-1.3-2.7-13.1-1.4-14.4-2.5c-1.2-1.1,5.3-4.2,7.3-3.9c2,0.3,4.4,1,4.4,1s0.6-4.8-5.6-9.6C437.2,297.9,435.5,303.9,435.5,303.9z"
				/>
			<path class="st10" d="M429.4,340.7c-1.4-6.5-3-15.7-2.3-21.8"/>
			<path class="st10" d="M431.3,348.5c0,0-0.5-1.8-1.1-4.5"/>
			<path class="st10" d="M429.8,317.6c0,0,10.7,0.7,18.5,5.5"/>
			<path class="st10" d="M429.4,326.4c0,0,0.3-2,8.6,5.5"/>
			<path class="st10" d="M424.2,316.3c0,0-0.2-4.7-6.3-7.2"/>
			<line class="st10" x1="425.3" y1="323.4" x2="420.1" y2="322.4"/>
			<path class="st10" d="M425.7,330.5c0,0-9.8,2.4-13.2,6.2"/>
		</g>
		<g>
			<path class="st0" d="M435.5,367.2c0,0-0.8,7.6-6.8,7.5s-8.8-10.3-15.1-8.4c-6.3,1.9-7.7,12.6-7.7,12.6s6.1-4.3,9-1.6
				c2.9,2.6,1.9,6.3,0.3,5.5c-1.6-0.7-10.5-3.5-11.3,3.3c-0.9,6.8,2.9,11,2.9,11s7.4-11.4,11.9-8.9c4.5,2.6-4.2,3.8-7.9,7.9
				c-3.8,4.1-6.3,8.6-3.5,10.5c2.9,1.8,6.6,6,6.6,6s-0.3-6.3,3.8-10.9c4.1-4.6,7-1.9,3.3,2.2c-3.8,4.1-2.6,11.2-2.6,11.2
				s10,1.5,17.4-0.8c7.4-2.3,7.7-5.1,5.6-7.8c-2.1-2.7-9.8-6.7-7.2-9.6c2.6-2.9,7.4,14.3,11.2,11c3.8-3.3,5.2-7.4,3.5-10.5
				c-1.7-3.1-1.7-3.1-1.7-3.1s-7.7-4-9.8-6.7c-2.1-2.7,1.1-1.2,4.8,0.6c3.7,1.8,11.4,7.4,12.2,5.8c0.7-1.6-1.3-10.2-2.6-13
				c-1.3-2.7-13.1-1.4-14.4-2.5c-1.2-1.1,5.3-4.2,7.3-3.9c2,0.3,4.4,1,4.4,1s0.6-4.8-5.6-9.6C437.2,361.1,435.5,367.2,435.5,367.2z"
				/>
			<path class="st15" d="M435.5,367.2c0,0-0.8,7.6-6.8,7.5s-8.8-10.3-15.1-8.4c-6.3,1.9-7.7,12.6-7.7,12.6s6.1-4.3,9-1.6
				c2.9,2.6,1.9,6.3,0.3,5.5c-1.6-0.7-10.5-3.5-11.3,3.3c-0.9,6.8,2.9,11,2.9,11s7.4-11.4,11.9-8.9c4.5,2.6-4.2,3.8-7.9,7.9
				c-3.8,4.1-6.3,8.6-3.5,10.5c2.9,1.8,6.6,6,6.6,6s-0.3-6.3,3.8-10.9c4.1-4.6,7-1.9,3.3,2.2c-3.8,4.1-2.6,11.2-2.6,11.2
				s10,1.5,17.4-0.8c7.4-2.3,7.7-5.1,5.6-7.8c-2.1-2.7-9.8-6.7-7.2-9.6c2.6-2.9,7.4,14.3,11.2,11c3.8-3.3,5.2-7.4,3.5-10.5
				c-1.7-3.1-1.7-3.1-1.7-3.1s-7.7-4-9.8-6.7c-2.1-2.7,1.1-1.2,4.8,0.6c3.7,1.8,11.4,7.4,12.2,5.8c0.7-1.6-1.3-10.2-2.6-13
				c-1.3-2.7-13.1-1.4-14.4-2.5c-1.2-1.1,5.3-4.2,7.3-3.9c2,0.3,4.4,1,4.4,1s0.6-4.8-5.6-9.6C437.2,361.1,435.5,367.2,435.5,367.2z"
				/>
			<path class="st10" d="M429.4,404c-1.4-6.5-3-15.7-2.3-21.8"/>
			<path class="st10" d="M431.3,411.7c0,0-0.5-1.8-1.1-4.5"/>
			<path class="st10" d="M429.8,380.9c0,0,10.7,0.7,18.5,5.5"/>
			<path class="st10" d="M429.4,389.6c0,0,0.3-2,8.6,5.5"/>
			<path class="st10" d="M424.2,379.6c0,0-0.2-4.7-6.3-7.2"/>
			<line class="st10" x1="425.3" y1="386.7" x2="420.1" y2="385.7"/>
			<path class="st10" d="M425.7,393.8c0,0-9.8,2.4-13.2,6.2"/>
		</g>
		<path class="st14" d="M413.5,361.1c0,0,16.8,39.9,18.6,58.9l-3.5-90.8"/>
		<path class="st14" d="M454.2,351.8c-22.1-4-22.1,68.2-22.1,68.2"/>
		<path class="st14" d="M434.7,419.6c0,0-12.8-120.4,24.3-120.4"/>
		<g>
			<path class="st0" d="M445.8,349.1c-3-3.4-9.4-3.4-13.2,5.3c-3.8,8.7-0.4,7.2-0.4,7.2s7.2-2.3,11.7-3.8c4.5-1.5,10.6-5.3,11-3
				c0.4,2.3-3,4.5-7.2,5.3c-4.2,0.8-15.1,3.8-14,6c1.1,2.3,3.8,9.1,3.8,9.1s5.3-4.5,10.2-7.6c4.9-3,7.9-1.9,5.3,1.5
				c-2.6,3.4-10.2,7.2-8.7,11.7c1.5,4.5,10.6,10.2,10.6,10.2s1.1-9.4,3.8-12.5c2.6-3,2.6,0.4,1.9,5.7c-0.8,5.3-0.8,6.8-0.8,6.8
				l10.6,3.8c0,0,3.8-5.7,5.7-7.6c1.9-1.9,1.9-1.9,1.9-1.9s-8.3-7.2-8.7-11.7c-0.4-4.5,5.7,0,7.6,0.8c1.9,0.8,4.9,6,4.9,6
				s1.9-8.7,2.3-11.7s0.4-3,0.4-3s-7.9-3-11-3c-3,0-4.5,2.3-4.5-0.8c0-3,3-4.9,6.4-4.5c3.4,0.4,9.1,2.3,9.1,2.3s2.3-1.9,1.5-7.6
				c-0.8-5.7-2.6-5.7-7.2-4.2c-4.5,1.5-7.6,4.9-11,4.9s-1.5-4.2,0.8-5.3s7.9-3.4,9.1-3.8c1.1-0.4-6-5.7-9.8-6.4
				c-3.8-0.8-8.7,1.9-8.3,5.7C460.1,351,448.8,352.5,445.8,349.1z"/>
			<path class="st10" d="M470.1,388c0.1,1.1,0.2,2.3,0.2,3.4"/>
			<path class="st10" d="M462.5,360.9c2.7,6.1,5.7,14.6,7.1,23.4"/>
			<path class="st10" d="M461.2,357.9c-1.9-4-3.3-6.5-3.3-6.5s3.4-1.5,4.9-4.5c1.5-3,3.8-4.5,3.8-4.5"/>
			<path class="st10" d="M444.6,364.3c0,0,13.6-5.7,13.6-4.5"/>
			<path class="st10" d="M465.8,357.1c0,0,6-3,11.3-3"/>
			<path class="st10" d="M463.5,366.1c0,0-3.4,2.6-7.2,7.2c-3.8,4.5-5.3,8.7-5.3,8.7"/>
			<path class="st10" d="M467.7,367.7c0,0,7.9-2.3,12.1,1.5"/>
		</g>
		<g>
			<path class="st0" d="M482.1,316.6c-4.1-2.4-8.7-2.5-10.9-5.1c-2.2-2.6,2.1-3.9,4.5-2.9c2.3,1,7.8,3.8,8.8,4.4
				c1,0.6,0.3-8.3-1.6-11.6c-1.9-3.3-7.1-5.3-9.7-2.6c-5.5,5.8-14.1-1.8-13.5-6.3c0.6-4.5-3.6-9.4-12.7-6.5c-9,2.8-5.7,4.4-5.7,4.4
				s6.4,3.9,10.5,6.4c4.1,2.4,10.9,4.5,9.5,6.3c-1.5,1.8-5.4,0.7-8.7-2c-3.3-2.6-12.8-8.9-13.7-6.6c-1,2.3-4.4,8.8-4.4,8.8
				s6.9,1,12.4,2.8c5.5,1.7,6.6,4.8,2.3,5c-4.3,0.2-12.1-3-14.5,1.1c-2.4,4.1-0.8,14.7-0.8,14.7s7.9-5.3,11.9-5.3c4,0,1.4,2.2-3,5.1
				c-4.5,2.9-5.6,3.9-5.6,3.9l4.1,10.5c0,0,6.8-0.9,9.4-0.7c2.7,0.2,2.7,0.2,2.7,0.2s0-11,3.1-14.2c3.2-3.3,3.7,4.3,4.4,6.2
				c0.7,1.9-1.3,7.7-1.3,7.7s7.8-4.3,10.3-6c2.5-1.7,2.5-1.7,2.5-1.7s-2.9-8-4.9-10.3c-2-2.3-4.7-1.9-2.4-3.9c2.3-2,5.7-0.9,7.6,1.9
				c1.9,2.8,4.2,8.3,4.2,8.3s2.9,0.5,6.7-3.8C487.4,320.5,486.2,319,482.1,316.6z M446.3,328.7c-3-1.5,4.2-4.5,4.2-4.5
				C453.1,323.8,449.3,330.2,446.3,328.7z M451.4,314.6c-1.3-0.6,2.6-1.9,2.6-1.9C459.6,313.7,452.7,315.2,451.4,314.6z"/>
			<path class="st10" d="M446.2,336.4c-0.8,0.8-1.6,1.6-2.4,2.4"/>
			<path class="st10" d="M461.7,312.9c-2.9,6-7.3,13.9-13,20.7"/>
			<path class="st10" d="M463.1,309.9c1.8-4.1,2.7-6.7,2.7-6.7s3.4,1.6,6.6,0.7c3.3-0.8,5.9-0.1,5.9-0.1"/>
			<path class="st10" d="M447.5,301.6c0,0,13.2,6.6,12.3,7.3"/>
			<path class="st10" d="M466.8,312.8c0,0,6.2,2.6,9.7,6.6"/>
			<path class="st10" d="M458.5,317.1c0,0-4.2-0.8-10.1-0.7c-5.9,0.1-10,1.7-10,1.7"/>
			<path class="st10" d="M460,321.2c0,0,6.9,4.5,6.8,10.1"/>
		</g>
		<g>
			<path class="st0" d="M423.3,369c-3.3-2-7-2-8.8-4.1c-1.8-2.1,1.7-3.1,3.6-2.3c1.9,0.8,6.3,3,7.1,3.5c0.8,0.5,0.3-6.7-1.3-9.4
				c-1.5-2.7-5.7-4.3-7.8-2.1c-4.4,4.6-11.3-1.4-10.9-5.1c0.5-3.6-2.9-7.5-10.2-5.2c-7.3,2.3-4.6,3.6-4.6,3.6s5.2,3.2,8.5,5.1
				c3.3,2,8.8,3.6,7.6,5.1c-1.2,1.4-4.4,0.6-7-1.6c-2.7-2.1-10.3-7.2-11.1-5.3c-0.8,1.9-3.5,7.1-3.5,7.1s5.5,0.8,10,2.2
				c4.4,1.4,5.3,3.8,1.9,4c-3.5,0.2-9.7-2.4-11.7,0.9c-2,3.3-0.6,11.8-0.6,11.8s6.3-4.3,9.6-4.3c3.2,0,1.2,1.8-2.4,4.1
				c-3.6,2.3-4.5,3.1-4.5,3.1l3.3,8.4c0,0,5.4-0.7,7.6-0.5c2.1,0.2,2.1,0.2,2.1,0.2s0-8.8,2.5-11.5c2.6-2.6,3,3.4,3.5,5
				c0.5,1.5-1.1,6.2-1.1,6.2s6.3-3.4,8.3-4.8c2-1.4,2-1.4,2-1.4s-2.3-6.4-3.9-8.3c-1.6-1.8-3.8-1.6-1.9-3.2c1.8-1.6,4.6-0.8,6.1,1.5
				c1.6,2.3,3.4,6.7,3.4,6.7s2.3,0.4,5.4-3.1C427.7,372.1,426.7,370.9,423.3,369z M394.6,378.7c-2.4-1.2,3.3-3.6,3.3-3.6
				C400,374.7,397,379.9,394.6,378.7z M398.7,367.3c-1-0.5,2.1-1.6,2.1-1.6C405.2,366.6,399.7,367.9,398.7,367.3z"/>
			<path class="st10" d="M394.5,384.9c-0.6,0.7-1.3,1.3-2,1.9"/>
			<path class="st10" d="M407,366c-2.3,4.8-5.8,11.2-10.5,16.7"/>
			<path class="st10" d="M408.1,363.5c1.5-3.3,2.2-5.4,2.2-5.4s2.7,1.3,5.3,0.6c2.6-0.7,4.7-0.1,4.7-0.1"/>
			<path class="st10" d="M395.5,356.9c0,0,10.6,5.3,9.9,5.9"/>
			<path class="st10" d="M411.1,365.9c0,0,5,2.1,7.8,5.3"/>
			<path class="st10" d="M404.4,369.3c0,0-3.4-0.7-8.2-0.6c-4.7,0.1-8.1,1.4-8.1,1.4"/>
			<path class="st10" d="M405.6,372.7c0,0,5.6,3.6,5.5,8.1"/>
		</g>
		<g>
			<path class="st0" d="M409.8,306.6c0,0-4.2,3-6.8,0c-2.6-3,1.1-9.1-2.6-11.3c-3.8-2.3-9.8,1.9-9.8,1.9s4.9,1.1,4.9,3.8
				c0,2.6-2.3,3.8-2.6,2.6c-0.4-1.1-3-6.8-6.8-4.2c-3.8,2.6-4.2,6.4-4.2,6.4s9.1-1.5,9.8,1.9c0.8,3.4-3.8-0.4-7.6-0.4
				s-7.2,0.8-6.8,3c0.4,2.3,0,6,0,6s3-3,7.2-3c4.2,0,4.2,2.6,0.4,2.6c-3.8,0-6.8,3.8-6.8,3.8s3.8,5.7,8.3,8.3c4.5,2.6,6,1.5,6.4-0.8
				c0.4-2.3-1.1-7.9,1.5-7.9c2.6,0-3.8,10.2-0.4,10.6c3.4,0.4,6-0.8,6.8-3c0.8-2.3,0.8-2.3,0.8-2.3s-1.5-5.7-1.1-7.9
				c0.4-2.3,1.1,0,1.9,2.6c0.8,2.6,1.5,9.1,2.6,8.7c1.1-0.4,4.5-5.3,5.3-7.2c0.8-1.9-5.3-7.2-5.3-8.3s4.5,0.8,5.3,1.9
				s1.5,2.6,1.5,2.6s2.6-1.9,2.3-7.2C413.6,304.7,409.8,306.6,409.8,306.6z"/>
			<path class="st10" d="M388.7,320.3c2.6-3.6,6.5-8.6,9.8-11.1"/>
			<path class="st10" d="M385.7,324.7c0,0,0.7-1,1.7-2.6"/>
			<path class="st10" d="M400.4,310c0,0,4.5,5.7,5.7,11.7"/>
			<path class="st10" d="M395.9,313.7c0,0,1.1-0.8,1.1,6.8"/>
			<path class="st10" d="M398.5,306.6c0,0,2.3-2.3,0.8-6.4"/>
			<line class="st10" x1="395.5" y1="310.3" x2="393.6" y2="307.3"/>
			<path class="st10" d="M392.1,313.7c0,0-5.7-3.8-9.1-3.8"/>
		</g>
		<g>
			<path class="st0" d="M446.7,386.9c0,0-4.2,3-6.8,0c-2.6-3,1.1-9.1-2.6-11.3c-3.8-2.3-9.8,1.9-9.8,1.9s4.9,1.1,4.9,3.8
				c0,2.6-2.3,3.8-2.6,2.6c-0.4-1.1-3-6.8-6.8-4.2c-3.8,2.6-4.2,6.4-4.2,6.4s9.1-1.5,9.8,1.9c0.8,3.4-3.8-0.4-7.6-0.4
				c-3.8,0-7.2,0.8-6.8,3c0.4,2.3,0,6,0,6s3-3,7.2-3s4.2,2.6,0.4,2.6c-3.8,0-6.8,3.8-6.8,3.8s3.8,5.7,8.3,8.3c4.5,2.6,6,1.5,6.4-0.8
				c0.4-2.3-1.1-7.9,1.5-7.9c2.6,0-3.8,10.2-0.4,10.6c3.4,0.4,6-0.8,6.8-3c0.8-2.3,0.8-2.3,0.8-2.3s-1.5-5.7-1.1-7.9
				c0.4-2.3,1.1,0,1.9,2.6s1.5,9.1,2.6,8.7c1.1-0.4,4.5-5.3,5.3-7.2c0.8-1.9-5.3-7.2-5.3-8.3c0-1.1,4.5,0.8,5.3,1.9
				c0.8,1.1,1.5,2.6,1.5,2.6s2.6-1.9,2.3-7.2C450.5,385,446.7,386.9,446.7,386.9z"/>
			<path class="st10" d="M425.5,400.6c2.6-3.6,6.5-8.6,9.8-11.1"/>
			<path class="st10" d="M422.5,405c0,0,0.7-1,1.7-2.6"/>
			<path class="st10" d="M437.2,390.3c0,0,4.5,5.7,5.7,11.7"/>
			<path class="st10" d="M432.7,394c0,0,1.1-0.8,1.1,6.8"/>
			<path class="st10" d="M435.3,386.9c0,0,2.3-2.3,0.8-6.4"/>
			<line class="st10" x1="432.3" y1="390.6" x2="430.4" y2="387.6"/>
			<path class="st10" d="M428.9,394c0,0-5.7-3.8-9.1-3.8"/>
		</g>
		<rect x="418.8" y="418.3" class="st11" width="29.2" height="42.1"/>
	</g>
</g>
<g id="Floor">
	<g>
		<line class="st9" x1="85" y1="460.4" x2="26.1" y2="460.4"/>
		<line class="st9" x1="469" y1="460.4" x2="96" y2="460.4"/>
	</g>
</g>
<g id="Character">
	<g>
		<path class="st6" d="M286.2,295.9c0,0-3.7,22.1-1,34.7c2.7,12.7,8.4,29.3,9,31.9c0.6,2.6-2.1,14.3-1,22.9
			c1.1,8.6,3.6,35.8,3.6,35.8s-0.5,6.8,0.6,8.4c1,1.6,1.3,3.3,1.4,5.2c0.1,1.9-1.3,3.9,0,5.3c1.3,1.4,2.3,2.6,2.3,4
			c0.1,1.4,0.1,2.9,0.2,3.8s-7.5,12.1-7.3,15.5c0.1,3.4,3,3.5,7.1,2.1c4-1.4,7.7-7.5,7.7-7.5l0.4,2.9c0,0,1.2,0.4,1.7-0.8
			c0.4-1.2,0.3-4.3,0.3-5.3c0-1,0.8-2.9,0.7-6.1c-0.1-3.1-1-6.9-1-6.9s0.8-2.9,1-4.1c0.2-1.2-1-2.1-0.2-5.3c0.8-3.2,2-3.2,2-5.1
			c-0.1-1.9-0.2-4.1-0.7-5.8c-0.5-1.7,1.8-15.5,1.7-17.4c-0.1-1.9,0.2-7.2,0.2-7.2s2.6-8.5,2.4-11.9c-0.1-3.4-0.3-25.5-0.3-25.5
			l-0.3-8.2c0,0,0.7,12,2.2,18.5s4.1,24.9,5.7,28.9c1.6,4,3.9,13.6,4.8,17.4c0.9,3.8,2.1,11.2,2.1,11.2s-0.7,1.7-0.3,4.8
			c0.4,3.1,0.6,3.8,0.6,3.8s-1.6,3.4-1.3,4.4c0.3,1,0.4,4.1,0.4,4.8c0,0.7-1.6,3.4-2.8,7.6c-1.3,4.1-5.7,9.1-1.9,13.1
			c3.8,3.9,10.2-3.8,11.3-7.9c1-4.1,3.4-11.7,3.6-12.4c0.2-0.7,1.4-2,1.7-5.1c0.4-3.1,0-5.5,0-5.5s0.9-2.4,1-4.1
			c0.2-1.7,0-5.3,0-5.3s3.7-16,4-21.4c0.3-5.3-1.6-16.3-1.9-18.2c-0.3-1.9,0-6.5-0.8-7.9c-0.8-1.4-2.4-6.2-2.4-6.2
			s12-26.7,13.8-41.3c1.8-14.5,1.1-26.5,0.3-28.9c-0.8-2.4-1.6-4.5-1.6-4.5s-10.1,7.1-31.9,4.1c-21.8-3-30.3-4.1-32.5-4.7
			C288.4,295.9,286.2,295.9,286.2,295.9z"/>
		<path class="st6" d="M306.7,149c0,0-5.8,0.5-11.3,7.2c-5.5,6.8-8.2,15.7-6.6,18.1c1.6,2.5,3.5,6.7,3.6,7.7c0,1-7.5,8.3-5.3,11.5
			c2.1,3.2,2.7,5.2,1,5.5c-1.7,0.3-4.7,3-4.1,4.7c0.6,1.7,3.6,3.1,2.5,5.2c-1.2,2.1-2.2,1.8-2.1,4.4c0.1,2.5,2.6,4.4,1.3,4.9
			c-1.3,0.4-3.8,1-3,2.7c0.8,1.7,2.7,3.9,2.7,3.9s9.7,9.7,28.9,11.2c19.2,1.5,36.9-15.8,39.5-18.4c2.7-2.6,3.1-3.4,3.1-4.9
			c-0.1-1.5-1.1-3.2-1.7-5c-0.6-1.7,0-5.3,0-6c0-0.8-1.9-2.7-3.2-3.6s-1.7-3.7-1.3-6.2c0.4-2.5-2.2-4.2-3.2-4.9
			c-1-0.7-1.9-2.9-1.2-5.2c0.7-2.3-2.4-4.4-3.7-5.4c-1.3-1-1.6-3.2-1.2-5.7c0.4-2.5-3.1-7.7-4.9-9.9c-1.8-2.2-4.4-9.4-14.1-12
			C312.6,146,306.7,149,306.7,149z"/>
		<g>
			<path class="st7" d="M318.9,202.9c0,0-10.8,6.2-18.2,8.7c-7.4,2.5-7.7,18.9-7.5,22.9c0.2,4.1-3.9,29.5-1.4,32.8
				c2.5,3.3,25.6,2.6,33.6,2.1c7.9-0.6,13.5,1.2,18.8-1c5.2-2.1,5.9-3.8,5.8-6.5c-0.1-2.6,0.4-31.6,0.2-37.1
				c-0.2-5.5-1.7-13.4-3.7-15c-2-1.6-6.1-2.9-12.2-4.6C328.1,203.5,318.9,202.9,318.9,202.9z"/>
			<g>
				<path class="st7" d="M289.5,276.5c0,0-4,20.9-3.9,22.8c0.1,1.9-0.3,4.1-0.3,4.1s8.8,2.5,12.4,2.9c3.6,0.3,11.6,0.5,15,1.3
					c3.4,0.8,17.6,0,22.6-1.1c5-1.2,8.6-2.3,11.4-3.1c2.9-0.8,6.9-2.7,6.9-2.7l2.8-2l-5.9-21.4c0,0-10.3,1.6-20.4,2.5
					c-10.1,0.9-29.2-1.5-31.9-1.9C295.6,277.5,289.5,276.5,289.5,276.5z"/>
				<g>
					<line class="st9" x1="298.6" y1="293.4" x2="298.3" y2="296.1"/>
					<line class="st9" x1="299.8" y1="281.5" x2="298.8" y2="291"/>
					<line class="st9" x1="298.3" y1="282.1" x2="295.9" y2="290.1"/>
					<line class="st9" x1="331.1" y1="282.4" x2="330.8" y2="293.8"/>
					<line class="st9" x1="339.2" y1="294" x2="339.7" y2="297.1"/>
					<line class="st9" x1="337.2" y1="281.6" x2="338.7" y2="290.8"/>
				</g>
				<path class="st7" d="M349.9,261.9c-0.1-2.6,0.4-31.6,0.2-37.1c-0.1-2.8-0.4-1.7-1-4.6c-3.5,3.3-11.3,8.7-26.5,10.5
					c-13.9,1.6-25.3-3.6-28.9-5.8c-0.6,4.1-0.6,7.9-0.5,9.7c0.2,4.1-3.9,29.5-1.4,32.8c2.5,3.3,25.6,2.6,33.6,2.1
					c7.9-0.6,13.5,1.2,18.8-1C349.4,266.2,350,264.5,349.9,261.9z"/>
				<g>
					<path class="st9" d="M324,261.1c2.5-0.2,5-0.6,7.6-1.1"/>
					<path class="st9" d="M299.5,259.8c0,0,9.8,2.1,21.6,1.5"/>
					<path class="st9" d="M302.5,256.5c0,0,3.3,4.9,9.6,4.4"/>
					<path class="st9" d="M313.6,258.5c0,0,2.2,1.8,4.2,2.5"/>
					<path class="st9" d="M327.2,260.4c0,0,2.3-2,4.4-5.7"/>
				</g>
				<path class="st6" d="M289.8,265.9c0,0,21.8,3.7,32.7,3.3c10.8-0.4,27.2-5.9,27.2-5.9l0.8,13.9c0,0-9.7,5.2-29.9,5.5
					s-31.7-3.3-31.7-3.3L289.8,265.9z"/>
			</g>
		</g>
		<path class="st17" d="M310.8,217.9c0,0-0.2-6-0.5-11.5c-0.2-5.5-1-7.9-1-7.9s3.9,1.3,7.8,1.4c3.9,0.1,9.6-5.9,10.1-6.9
			c0.4-1,1.1-2.7,1.1-2.7s0.6,9.4,1.5,13c0.9,3.6,1.4,5.7,1.4,5.7"/>
		<path class="st6" d="M314.4,208c5.9-3.2,10.9-10.7,10.9-10.7l0.3-2.5c-2.1,2.1-5.8,5.1-8.5,5c-3.9-0.1-7.8-1.4-7.8-1.4
			s0.8,2.4,1,7.9c0,1.2,0.1,2.5,0.1,3.7C311.5,209.6,312.7,208.9,314.4,208z"/>
		<g>
			<g>
				<path class="st7" d="M332,173.5l-3.8,0.4c0,0-0.1-0.5-0.3-1.4c-0.2-0.2-0.3-0.3-0.5-0.5c-0.8-0.7-1-0.4-2.2-0.6
					c-1.2-0.2-1.8-2.1-1.8-4c-0.1-1.9-2.5-2.3-5.2-4.1c-2.2-1.5-3.2-4.6-3.5-5.7c-0.9-0.1-1.9-0.1-2.7-0.1c-0.3,1.3-0.9,3.8-2.2,5.7
					c-1.8,2.7-3.5,2.5-3.9,4c-0.4,1.5-1.6,3.2-2.5,3.5c-1,0.3-3.4,0.4-3.3,1.6c0,1.2-0.6,3.2-1.3,3.7c-0.2,0.1-0.3,0.2-0.5,0.4
					c0.4,2.7,1,4.9,1,5.4c0,1,0.3,7.2,3.1,10.7c2.8,3.5,8.2,11.2,14.4,11c6.3-0.2,11.2-8.9,12.1-11.1c0.9-2.2,1.1-8.5,1.1-8.5
					s1.9-1.8,3-4.5C333.8,176.5,332,173.5,332,173.5z"/>
				<path class="st7" d="M298.2,172.6c-0.1-1.7,1.5-4.6,2.2-4.7c0.7,0,3.1-1.6,3.5-2.8c0.4-1.2,0.1-2.4,1.3-2.9
					c1.2-0.5,1.1-2.2,1.1-2.2s-3.2,3.5-5.1,4.5c-1.9,1-2.6,1.8-3.5,2.8c-0.4,1.9-0.3,4.3,0,6.5C298,173.6,298.2,173.2,298.2,172.6z"
					/>
			</g>
			<path class="st9" d="M311.7,190.6c0,0,1.5,2.1,4.3,0.3"/>
			<path class="st9" d="M311.8,194.2c0,0,4.9,1.7,6.7-1.9"/>
			<path class="st11" d="M306.8,181.7c0.1,1-0.2,1.8-0.7,1.9c-0.5,0.1-1.1-0.7-1.2-1.7c-0.1-1,0.2-1.8,0.7-1.9
				C306.1,180,306.6,180.7,306.8,181.7z"/>
			<path class="st11" d="M318.7,180.1c0.1,1-0.2,1.8-0.7,1.9s-1.1-0.7-1.2-1.7c-0.1-1,0.2-1.8,0.7-1.9
				C318.1,178.4,318.6,179.2,318.7,180.1z"/>
			<path class="st9" d="M301.6,178c0,0,1.1-2.2,5-1.9"/>
			<path class="st9" d="M314.9,175.3c0,0,3.8-1.8,6.8,0.5"/>
			<path class="st9" d="M307.3,176.6c0,0,3.3,3.2,3.4,6.6"/>
		</g>
		<path class="st18" d="M321.4,309c0,0-3.9,3.8-4.8,13c-0.8,9.2-0.8,27.7-0.8,27.7s0.6,6.1,0.9,9.8"/>
		<path class="st18" d="M317.4,314.4c0,0-2.6-1.9-3.6-3.3"/>
		<g>
			<path class="st19" d="M325.9,403.8c1.3,4.4,2.5,9.7,3.1,12.4c0.9,3.8,2.1,11.2,2.1,11.2s-0.7,1.7-0.3,4.8
				c0.4,3.1,0.6,3.8,0.6,3.8s-1.6,3.4-1.3,4.4c0.3,1,0.4,4.1,0.4,4.8c0,0.7-1.6,3.4-2.8,7.6c-1.3,4.1-5.7,9.1-1.9,13.1
				c3.8,3.9,10.2-3.8,11.3-7.9c1-4.1,3.4-11.7,3.6-12.4c0.2-0.7,1.4-2,1.7-5.1c0.4-3.1,0-5.5,0-5.5s0.9-2.4,1-4.1
				c0.2-1.7,0-5.3,0-5.3s3.7-16,4-21.4c0.1-1,0-2.2-0.1-3.6C338.6,405,330.1,404.5,325.9,403.8z"/>
			<path class="st19" d="M308.5,458.2l0.4,2.9c0,0,1.2,0.4,1.7-0.8c0.4-1.2,0.3-4.3,0.3-5.3c0-1,0.8-2.9,0.7-6.1
				c-0.1-3.1-1-6.9-1-6.9s0.8-2.9,1-4.1c0.2-1.2-1-2.1-0.2-5.3c0.8-3.2,2-3.2,2-5.1c-0.1-1.9-0.2-4.1-0.7-5.8
				c-0.5-1.7,1.8-15.5,1.7-17.4c0-0.6,0-1.5,0-2.5c-6.4,2.4-14.4,1.4-19.5,0.3c0.9,9.6,1.8,19.3,1.8,19.3s-0.5,6.8,0.6,8.4
				c1,1.6,1.3,3.3,1.4,5.2c0.1,1.9-1.3,3.9,0,5.3c1.3,1.4,2.3,2.6,2.3,4c0.1,1.4,0.1,2.9,0.2,3.8s-7.5,12.1-7.3,15.5
				c0.1,3.4,3,3.5,7.1,2.1C304.9,464.3,308.5,458.2,308.5,458.2z"/>
		</g>
		<path class="st20" d="M310.2,207.6c0,0-5.3,13-6.8,23.2c-1.5,10.2-4,27.9-5,31.3c-1.1,3.4-3.8,7.4-7.2,26.3c-3.4,18.9-1,41-1,41
			s-0.9,1-5,0.4c-4.1-0.6-8.3-2.3-8.3-2.3s1.6-21.3,3.4-29c1.9-7.8,6.2-26.3,6.2-26.3l-0.1-8.9c0,0-2.2,6.1-4.9,10.8
			c-2.7,4.7-5.5,6.5-10.1,6.7c-4.6,0.2-7.8-8.4-4.7-15.7c3.1-7.3,6.1-16.9,7.8-22c1.7-5.1,7.1-21.5,11.1-24.8
			C289.5,214.9,308.3,207.2,310.2,207.6z"/>
		<path class="st20" d="M332,204.3c0,0-1,29.2,0.6,39.5c1.6,10.3,7.2,23.3,8.8,28.8c1.7,5.5,3.6,25.2,5.1,32.6
			c1.5,7.4,1,25.3,1,25.3s3.8-0.2,6.3,0c2.4,0.1,12.1-5.1,12.1-5.1s-1.3-13.4-3.8-22.7c-2.5-9.3-7.4-28.9-8.1-33.2
			c-0.7-4.3-1.8-9.1-1.9-10.5c-0.1-1.4,2-10,2-10s7.4-21,6.6-27.7c-0.7-6.7-9.3-10.5-13.5-12.5C343.2,206.7,332,204.3,332,204.3z"/>
		<g>
			<path class="st7" d="M352.9,246.3l5.7,22.9c0,0-1.3,3.4-0.3,4.3c1,0.9,1,2.1,1,2.1s-0.8,3.4,0.2,5.1c1,1.6,5.7,35.4,5.7,35.4
				s-3.9,4-3.9,5.7c0.1,1.7-0.3,3.6-0.8,4.8c-0.4,1.2-2,3.7-1.3,3.9c0.7,0.2,3.6-1.1,3.8-2.1c0.2-1,0.9-2.2,0.9-2.2l0.7-1.7
				c0,0,0.5,5.5,0.3,6.7s-0.4,2.4-1.1,3.7c-0.7,1.2-2.3,3.2-1.1,3.7c1.2,0.4,4.9-4.5,4.9-4.5s1.4-0.3,3.1-1.3c1.6-1,3-4.5,3.1-5.7
				c0.2-1.2,0-6,0-6.7c0-0.7-1-6.2-1-6.2s2.8-25.6,2.6-32.9c-0.3-7.2-1.3-13.4-1.3-13.4l-0.9-5.5c0,0-2.2-30.8-5.6-37.4
				c-3.4-6.6-8.9-11.7-13.3-12.7"/>
			<path class="st20" d="M352.5,245.6l6.1,23.6c0,0-1.3,3.4-0.3,4.3c1,0.9,1,2.1,1,2.1s-0.8,3.4,0.2,5.1c0.1,0.2,0.4,1.1,0.6,2.4
				c2.9-1.9,9.4-5.1,14.4,0.2c0.3,0.3,0.6,0.5,0.9,0.6c0-1,0-1.9,0-2.6c-0.3-7.2-1.3-13.4-1.3-13.4l-0.9-5.5c0,0-2.2-30.8-5.6-37.4
				c-3.4-6.6-10.1-11.6-14.5-12.7"/>
		</g>
		<g>
			<polygon class="st6" points="276.5,237.3 284.8,262.5 298.4,262 291.4,235.4 			"/>
			<path class="st7" d="M285.1,267.2c0.4-0.3,0.7-0.6,0.8-1c0.5-1.3,1.4-3.1,1.4-3.1s4.2-1.9,4.8-2.3c0.5-0.4,4.3-1.5,4.8-2.4
				s0.5-1.5-1.3-0.9s-7.6,2.4-7.6,2.4s0.9-0.4,1.7-0.8c0.7-0.4,5.7-3.4,6.2-3.6c0.6-0.2,0.7-1.3,0.3-2.1s-0.7,0.4-2.4,1
				c-1.7,0.6-7.8,2.6-7.8,2.6s2.7-2,3.3-2.4c0.5-0.4,5.5-2.7,5.5-2.7s1.5-0.8,1.4-1.7c0-0.9-0.6-1.1-1.2-0.9
				c-0.6,0.2-4.3,0.5-5.6,1.2c-1.3,0.6-5.5,2.8-5.5,2.8l1.9-4.2c0,0,5.1-3.6,5.9-3.8c0.7-0.2,2.2-1.2,2-2c-0.2-0.7-1.7-0.9-1.7-0.9
				s-6.5,2.1-7.8,3.5c-1.3,1.4-3.8,4.3-3.8,4.3s-1-2.6-1.1-3.7c0-1.1-0.1-3.2-0.9-4.3s-1-0.7-1-0.7s0,6-0.3,6.6
				c-0.4,0.6,2.6,10,2.6,10l1.3,3.9c0,0-5.6,0.8-7.5,0.7c-1.9-0.1-4.4,3.4-4.8,7.7c-0.4,4.3,3.3,7.6,6.7,7.4
				c3.4-0.1,5.9-2.9,7.1-4.6c1.2-1.7,1.9-4.6,1.9-4.6L285.1,267.2z"/>
		</g>
	</g>
</g>
</svg>
