<svg id="Слой_1" data-name="Слой 1" xmlns="http://www.w3.org/2000/svg" xmlns:xlink="http://www.w3.org/1999/xlink" viewBox="0 0 664.75 518.62"><defs><style>.cls-1{fill:none;}.cls-2{fill:#fcfcfc;}.cls-3{fill:url(#linear-gradient);}.cls-4{fill:url(#linear-gradient-2);}.cls-5{fill:#64a4ff;}.cls-6{fill:#bbd070;}.cls-7{fill:#97a43c;}.cls-8{fill:#48753a;}.cls-9{fill:#dbd8e3;}.cls-10{fill:#323657;}.cls-11{fill:#eea987;}.cls-12{fill:#e8734d;}.cls-13{fill:#c4c1cc;}.cls-14{fill:#efaa88;}.cls-15{fill:#eea886;}.cls-16{fill:#16202e;}.cls-17{fill:#a77860;}.cls-18{fill:#4da8f2;}.cls-19{fill:#ffc955;}.cls-20{clip-path:url(#clip-path);}.cls-21{fill:#96cbff;}.cls-22{fill:#95caff;}.cls-23{fill:#94c9ff;}.cls-24{fill:#93c9ff;}.cls-25{fill:#92c8ff;}.cls-26{fill:#91c7ff;}.cls-27{fill:#90c6ff;}.cls-28{fill:#8fc6ff;}.cls-29{fill:#8ec5ff;}.cls-30{fill:#8dc4ff;}.cls-31{fill:#8cc3ff;}.cls-32{fill:#8bc2ff;}.cls-33{fill:#8ac2ff;}.cls-34{fill:#89c1ff;}.cls-35{fill:#88c0ff;}.cls-36{fill:#87bfff;}.cls-37{fill:#86bfff;}.cls-38{fill:#85beff;}.cls-39{fill:#84bdff;}.cls-40{fill:#83bcff;}.cls-41{fill:#82bbff;}.cls-42{fill:#81bbff;}.cls-43{fill:#80baff;}.cls-44{fill:#7fb9ff;}.cls-45{fill:#7eb8ff;}.cls-46{fill:#7db7ff;}.cls-47{fill:#7cb7ff;}.cls-48{fill:#7bb6ff;}.cls-49{fill:#7ab5ff;}.cls-50{fill:#79b4ff;}.cls-51{fill:#78b4ff;}.cls-52{fill:#77b3ff;}.cls-53{fill:#76b2ff;}.cls-54{fill:#74b1ff;}.cls-55{fill:#73b0ff;}.cls-56{fill:#72b0ff;}.cls-57{fill:#71afff;}.cls-58{fill:#70aeff;}.cls-59{fill:#6fadff;}.cls-60{fill:#6eadff;}.cls-61{fill:#6dacff;}.cls-62{fill:#6cabff;}.cls-63{fill:#6baaff;}.cls-64{fill:#6aa9ff;}.cls-65{fill:#69a9ff;}.cls-66{fill:#68a8ff;}.cls-67{fill:#67a7ff;}.cls-68{fill:#66a6ff;}.cls-69{fill:#65a6ff;}.cls-70{fill:#64a5ff;}.cls-71{fill:#63a4ff;}.cls-72{fill:#62a3ff;}.cls-73{fill:#61a2ff;}.cls-74{fill:#60a2ff;}.cls-75{fill:#5fa1ff;}.cls-76{fill:#5ea0ff;}.cls-77{fill:#5d9fff;}.cls-78{fill:#5c9eff;}.cls-79{fill:#5b9eff;}.cls-80{fill:#5a9dff;}.cls-81{fill:#599cff;}.cls-82{fill:#589bff;}.cls-83{fill:#579bff;}.cls-84{fill:#569aff;}.cls-85{fill:#59f;}.cls-86{fill:#cfa345;}.cls-87{fill:#6069a8;}.cls-88{fill:#202338;}.cls-89{fill:#464240;}.cls-90{fill:#eb4747;}.cls-91{fill:#5f8cc9;}.cls-92{fill:#5e5853;}.cls-93{fill:#91887f;}.cls-94{fill:#eddad3;}.cls-95{fill:#6e6760;}.cls-96{fill:#807066;}.cls-97{fill:#ffcb55;}.cls-98{fill:#cf8c6c;}.cls-99{fill:#3b3f66;}.cls-100{fill:#555c94;}.cls-101{fill:#354c70;}.cls-102{fill:#deb135;}.cls-103{fill:#f2c344;}.cls-104{fill:#d9d0c4;}.cls-105{fill:#ffd255;}.cls-106{fill:#3c5780;}.cls-107{fill:#c48a6f;}.cls-108{clip-path:url(#clip-path-2);}.cls-109{fill:#db9c7c;}.cls-110{clip-path:url(#clip-path-3);}.cls-111{fill:#293b57;}.cls-112{fill:#e3f2ff;}.cls-113{fill:#ebebeb;}.cls-114{fill:#162d40;}.cls-115{fill:#1d3b54;}.cls-116{fill:#d1c0ba;}.cls-117{fill:#fae6de;}.cls-118{fill:#54281a;}.cls-119{fill:#366e9c;}.cls-120{fill:#5c544d;}.cls-121{fill:#3c4145;}.cls-122{fill:#fccca2;}.cls-123{fill:#e2d2ca;}.cls-124{fill:#f25f54;}.cls-125{fill:#c98462;}.cls-126{fill:#de9d7d;}.cls-127{fill:#252e3b;}.cls-128{fill:#5fa0ff;}.cls-129{fill:#5189db;}.cls-130{fill:#c2bebc;}.cls-131{fill:#d6d6d6;}.cls-132{fill:#e8e8e8;}.cls-133{fill:#c2c2c2;}</style><linearGradient id="linear-gradient" x1="439.66" y1="304.46" x2="594.06" y2="304.46" gradientUnits="userSpaceOnUse"><stop offset="0" stop-color="#96cbff"/><stop offset="1" stop-color="#59f"/></linearGradient><linearGradient id="linear-gradient-2" x1="-95.07" y1="875.72" x2="20.22" y2="875.72" gradientTransform="matrix(0.99, -0.1, 0.1, 0.99, 141.56, -671.3)" xlink:href="#linear-gradient"/><clipPath id="clip-path"><rect class="cls-1" x="83.42" y="330.41" width="308.12" height="4.88"/></clipPath><clipPath id="clip-path-2"><path class="cls-1" d="M349.66,363.11l.54-.25-2.42-5.13-1.36.63,2.05,4.36A.84.84,0,0,0,349.66,363.11Z"/></clipPath><clipPath id="clip-path-3"><polygon class="cls-1" points="344.64 358.84 349.97 357.85 349.1 353.47 343.81 354.68 344.64 358.84"/></clipPath></defs><rect class="cls-2" width="664.75" height="518.62"/><path class="cls-3" d="M573.83,338.71a65.9,65.9,0,0,0,7.21-17l12.75-2.44.14-14.11.13-14.11-12.71-2.68a66.15,66.15,0,0,0-6.89-17.1l7.29-10.74-9.89-10.07L562,240.41l-10.88,7.08a65.69,65.69,0,0,0-17-7.21l-2.44-12.75-14.11-.13-14.11-.14L500.79,240a66.36,66.36,0,0,0-17.11,6.89L473,239.58l-10.08,9.88-10.06,9.88,7.08,10.88a65.83,65.83,0,0,0-7.21,17l-12.75,2.44-.13,14.11-.14,14.11,12.71,2.68a66.21,66.21,0,0,0,6.89,17.11L452,348.38l9.88,10.07,9.88,10.07,10.88-7.09a65.83,65.83,0,0,0,17,7.21L502,381.39l14.11.14,14.11.13L532.93,369A65.86,65.86,0,0,0,550,362.06l10.74,7.29,10.07-9.89,10.07-9.88Zm-81.66-10a34.6,34.6,0,1,1,48.92.45A34.6,34.6,0,0,1,492.17,328.7Z"/><path class="cls-4" d="M238.76,224.79a49.49,49.49,0,0,0,4.06-13.16l9.29-2.79-1-10.49-1-10.49-9.65-1a48.87,48.87,0,0,0-6.42-12.18l4.59-8.54-8.11-6.72-8.11-6.73-7.53,6.09a49.47,49.47,0,0,0-13.16-4L199,145.42l-10.49,1-10.49,1L177,157a49.2,49.2,0,0,0-12.18,6.42l-8.53-4.59L149.53,167l-6.73,8.11,6.1,7.54a49.06,49.06,0,0,0-4.06,13.15l-9.29,2.79,1,10.49,1,10.49,9.64,1a49.6,49.6,0,0,0,6.43,12.18l-4.6,8.53,8.11,6.72,8.11,6.73,7.54-6.09a49.49,49.49,0,0,0,13.16,4.06l2.79,9.28,10.49-1,10.49-1,1-9.65A49.38,49.38,0,0,0,222.87,244l8.53,4.59,6.73-8.11,6.72-8.11Zm-61.42-1.21a25.83,25.83,0,1,1,36.37-3.39A25.82,25.82,0,0,1,177.34,223.58Z"/><path class="cls-5" d="M550.07,437h-.88V374.1a25.4,25.4,0,0,0-25.37-25.37H459.14a26.29,26.29,0,0,1-26.26-26.25V205a25.4,25.4,0,0,0-25.36-25.37H242.59v-.88H407.52A26.28,26.28,0,0,1,433.77,205V322.48a25.4,25.4,0,0,0,25.37,25.37h64.68a26.28,26.28,0,0,1,26.25,26.25Z"/><path class="cls-6" d="M284.87,138.9s10,39.75-14,50.61-19.37-9-19.37-9-9.83-2.73,16.92-17.9C281,155.44,284.87,138.9,284.87,138.9Z"/><path class="cls-7" d="M347.63,142.37S352.54,177,307.19,192s-51.82,34-51.82,34S254,149.17,347.63,142.37Z"/><path class="cls-8" d="M255.17,211.85c-13.45-5.13,18.52-32.65,43.08-31.91s41.22,9.84,57.68,6C355.93,185.93,321.39,237.13,255.17,211.85Z"/><path class="cls-9" d="M300.35,234.85q1.17-15.67,1.62-29.33c-2.52-1.34-5.55-2.9-8-4.05-7.51-3.58-18-8.39-24.68-11.47-3.93-1.8-7.78-3.12-7.78-3.12s-26.82-2.57-29-2.43a66.44,66.44,0,0,0-8.43,2.88c-9.51,3.61-27.85,11-30.77,13.06-4.28,3.06-19.6,78.16-20,83.26s20.84,11.73,40.5,16.93c0,7.61-.17,18.28-.34,28,0,1.67-.06,3.3-.09,4.88h86c-.12-1.67-.22-3.32-.31-4.88,0-.21,0-.41,0-.61-.32-6.6-1.61-18.41-1.28-29.91,0,0-.21-12.13,1-17.35C299,257.67,300.35,234.85,300.35,234.85ZM191.25,279c.14-9.78,13.16-28,13.16-28a6.37,6.37,0,0,1,.61-.23s.67-.09.67-.08,2-1.92,2-1.92c.47,1.74,4.79,26.3,5.84,40.6C201.35,287,191.18,283.67,191.25,279Z"/><path class="cls-10" d="M302,328.59c-.57-4.07-1.11-8.14-1.59-12.13,0,0,0,0,0,0-.15-1.33-.31-2.64-.46-4a1.23,1.23,0,0,1,0-.2c-.63-5.49-1.15-10.76-1.53-15.58a49.34,49.34,0,0,1,.48-10.83c1.5-24.66,2.24-50.65,2.24-50.65.79-10.64,1.24-20.59,1.54-29.86,0,0-33.68-15.91-36.73-16.82,0,0,6.39,15,11.18,48.53,1.84,12.87,5.25,34.55,7.73,56.67h0c1.34,11.94,3.85,24.1,5.76,34.86.29,1.67.57,3.29.83,4.88h11.27C302.4,331.85,302.17,330.22,302,328.59Z"/><path class="cls-10" d="M245.87,289c1.33-12.47,2.52-24.91,1.95-31.72-4.65-54.81-17.79-69.31-19.7-71.43-1.47.56-7.08,2.66-8.72,3.31-9,3.55-27.31,10-29.78,11.82-4.28,3.06-21.16,81.79-21.67,86.88-.34,3.45,21.69,10.64,44.16,17.06-.2,6.16.38,14.85-1.67,23.93a20.77,20.77,0,0,0-1,4.76l31.33-.13c.19-1.62.39-3.24.59-4.88.6-4.89,1.22-9.91,1.84-15.24,9.4,2.43,15.79,4,15.79,4s8.82-14.92,11.38-21C270.84,295.35,259.48,292.62,245.87,289Zm-40.51-18.86c-.3-11.22-.25-19-.25-19,1.11,3.84,2.65,14.83,4,25.75C204.56,274.53,205.41,272.39,205.36,270.13Z"/><path class="cls-11" d="M231.14,185.3s3.41-6.44,2.47-24.74c-.27-5.07,26.63,12,26.63,12s-.1,1.75-.15,4.11c0,1,0,2.05,0,3.16v.92c0,.5,0,1,0,1.49s0,1.21.07,1.79.07,1.29.13,1.86a16.68,16.68,0,0,0,1,3.59C262.49,192.34,241.21,192.51,231.14,185.3Z"/><path class="cls-12" d="M253.68,196.94l5,6.66s-2.9,3.89-8.06,1Z"/><path class="cls-12" d="M257.31,203.87s18.16,44.35,14.29,100.69L265.87,315l-6.46-8.85s-1-74.82-6.19-102.4Z"/><path class="cls-11" d="M259,190.74l-5.31,6.2s-8.51-1.65-11-6.09S259,190.74,259,190.74Z"/><path class="cls-13" d="M260.21,185.3s-.62,4.74-6.53,11.64l6.45,8.67,3.49-18Z"/><path class="cls-13" d="M232.76,179.61s12.31,13.93,20.92,17.33l-4,9.91L230,185.17Z"/><path class="cls-10" d="M359.35,305.63S343,289.78,332.29,287.14c-5-1.22-11.49-8.06-17.69-16.11-2-2.64-4.05-5.42-6-8.17v0c-7.61-11-13.58-21.52-13.58-21.52s-22.49-26.36-4.44-38.11c0,0,7.74-.17,12,2.14s13.67,21.79,15.25,25.23,18.67,35.38,19.81,36.1,3.06,3.35,9.9,7c8.37,4.51,21.53,17.7,21.53,17.7Z"/><path class="cls-14" d="M280.89,324a10.52,10.52,0,0,1-3.26-.61s-1.71-1.1-3-1.81c-.4-.22-.76-.4-1-.5a18.88,18.88,0,0,1-5.49-2.62c-2.15-1.63-9.15-8.19-9.15-8.19l4.52-7,2.1-6.9S282,298,284.15,299.3a7,7,0,0,1,.6.41c1.74,1.27,2.5,3,3.34,3.72.3.29,3.15,3.34,3,4.57a4.08,4.08,0,0,1-2.13,3.34s-.58,3.34-2.31,4.83a6,6,0,0,1-3.1,4.34S282.75,323.6,280.89,324Z"/><path class="cls-15" d="M254.88,113.34s29.53-7.12,23.31,30.27-13.31,40.42-31.29,33-16.74-31.36-17.81-43.06S245.43,113.89,254.88,113.34Z"/><path class="cls-15" d="M239.36,139.23c-.43-3.28-7-4.39-7.4.55s3.15,13.54,5.6,12.65S240,143.76,239.36,139.23Z"/><path class="cls-16" d="M230.81,152.62s.59-11.76,4.88-12.19,5,4.29,5,4.29l4.35.76s-1.52-10.28,2.74-12.14,27.84,5.26,31.23,2.19,1.47-23.94-4.79-26.71-23.53-8.92-36-.21c0,0-9.83-1-11.17,7S228.06,146.77,230.81,152.62Z"/><path class="cls-10" d="M271.21,296.38l-12.19,21s-32.3-8.33-39.84-10.45l17.23-20.51S261.81,292.2,271.21,296.38Z"/><path class="cls-17" d="M260.13,184.05h0a28.23,28.23,0,0,1-22-13.8,32.77,32.77,0,0,0,21.9,9.6v.92c0,.5,0,1,0,1.49S260.1,183.47,260.13,184.05Z"/><path class="cls-18" d="M478.84,369.86a4.82,4.82,0,0,0-8.42,1.35h0a5.16,5.16,0,0,0-.25,1.48,4.86,4.86,0,0,0,.29,1.72,5,5,0,0,0,1.58,2.16,4.79,4.79,0,0,0,2.51,1l.38,0h.32a5.2,5.2,0,0,0,1.38-.28,4.82,4.82,0,0,0,2.21-7.43Zm-2.62,6.29h0a3.56,3.56,0,0,1-1,.21h-.24a3.53,3.53,0,0,1-1-.16,3.3,3.3,0,0,1-1.18-.6,2.74,2.74,0,0,1-.36-.32,3.54,3.54,0,0,1-1-2.58,3.16,3.16,0,0,1,.09-.76,3.63,3.63,0,0,1,3.57-2.81,3.61,3.61,0,0,1,1.18,7Z"/><path class="cls-15" d="M294.13,279.17c18.35,18.89,42.61,42.69,42.61,42.69l9.48-18s-21.54-25.25-36.15-42.1C305.6,264,297.38,269.19,294.13,279.17Z"/><path class="cls-15" d="M282.79,304.58A52.76,52.76,0,0,1,289,308c1.29,1.06,6.52,5,7.79,5.9s-1.91,3.54-11.26-.51S282.79,304.58,282.79,304.58Z"/><polygon class="cls-19" points="283.22 250.49 274.61 330.57 387.98 330.57 396.6 250.49 283.22 250.49"/><path class="cls-19" d="M394.45,326.88H280.19l8.71-81H403.16ZM281.17,326H393.66l8.52-79.2H289.69Z"/><rect class="cls-19" x="265.58" y="323.37" width="18.94" height="7.21" transform="translate(550.11 653.95) rotate(180)"/><g class="cls-20"><path class="cls-21" d="M83.42,330.41v0Z"/><rect class="cls-21" x="83.42" y="330.41" width="4.74" height="4.88"/><rect class="cls-22" x="88.16" y="330.41" width="4.74" height="4.88"/><rect class="cls-23" x="92.9" y="330.41" width="4.74" height="4.88"/><rect class="cls-24" x="97.64" y="330.41" width="4.74" height="4.88"/><rect class="cls-25" x="102.38" y="330.41" width="4.74" height="4.88"/><rect class="cls-26" x="107.12" y="330.41" width="4.74" height="4.88"/><rect class="cls-27" x="111.86" y="330.41" width="4.74" height="4.88"/><rect class="cls-28" x="116.6" y="330.41" width="4.74" height="4.88"/><rect class="cls-29" x="121.34" y="330.41" width="4.74" height="4.88"/><rect class="cls-30" x="126.08" y="330.41" width="4.74" height="4.88"/><rect class="cls-31" x="130.82" y="330.41" width="4.74" height="4.88"/><rect class="cls-32" x="135.56" y="330.41" width="4.74" height="4.88"/><rect class="cls-33" x="140.3" y="330.41" width="4.74" height="4.88"/><rect class="cls-34" x="145.04" y="330.41" width="4.74" height="4.88"/><rect class="cls-35" x="149.78" y="330.41" width="4.74" height="4.88"/><rect class="cls-36" x="154.52" y="330.41" width="4.74" height="4.88"/><rect class="cls-37" x="159.26" y="330.41" width="4.74" height="4.88"/><rect class="cls-38" x="164" y="330.41" width="4.74" height="4.88"/><rect class="cls-39" x="168.74" y="330.41" width="4.74" height="4.88"/><rect class="cls-40" x="173.48" y="330.41" width="4.74" height="4.88"/><rect class="cls-41" x="178.22" y="330.41" width="4.74" height="4.88"/><rect class="cls-42" x="182.96" y="330.41" width="4.74" height="4.88"/><rect class="cls-43" x="187.71" y="330.41" width="4.74" height="4.88"/><rect class="cls-44" x="192.45" y="330.41" width="4.74" height="4.88"/><rect class="cls-45" x="197.19" y="330.41" width="4.74" height="4.88"/><rect class="cls-46" x="201.93" y="330.41" width="4.74" height="4.88"/><rect class="cls-47" x="206.67" y="330.41" width="4.74" height="4.88"/><rect class="cls-48" x="211.41" y="330.41" width="4.74" height="4.88"/><rect class="cls-49" x="216.15" y="330.41" width="4.74" height="4.88"/><rect class="cls-50" x="220.89" y="330.41" width="4.74" height="4.88"/><rect class="cls-51" x="225.63" y="330.41" width="4.74" height="4.88"/><rect class="cls-52" x="230.37" y="330.41" width="4.74" height="4.88"/><rect class="cls-53" x="235.11" y="330.41" width="4.74" height="4.88"/><rect class="cls-54" x="239.85" y="330.41" width="4.74" height="4.88"/><rect class="cls-55" x="244.59" y="330.41" width="4.74" height="4.88"/><rect class="cls-56" x="249.33" y="330.41" width="4.74" height="4.88"/><rect class="cls-57" x="254.07" y="330.41" width="4.74" height="4.88"/><rect class="cls-58" x="258.81" y="330.41" width="4.74" height="4.88"/><rect class="cls-59" x="263.55" y="330.41" width="4.74" height="4.88"/><rect class="cls-60" x="268.29" y="330.41" width="4.74" height="4.88"/><rect class="cls-61" x="273.03" y="330.41" width="4.74" height="4.88"/><rect class="cls-62" x="277.77" y="330.41" width="4.74" height="4.88"/><rect class="cls-63" x="282.51" y="330.41" width="4.74" height="4.88"/><rect class="cls-64" x="287.25" y="330.41" width="4.74" height="4.88"/><rect class="cls-65" x="291.99" y="330.41" width="4.74" height="4.88"/><rect class="cls-66" x="296.73" y="330.41" width="4.74" height="4.88"/><rect class="cls-67" x="301.47" y="330.41" width="4.74" height="4.88"/><rect class="cls-68" x="306.21" y="330.41" width="4.74" height="4.88"/><rect class="cls-69" x="310.95" y="330.41" width="4.74" height="4.88"/><rect class="cls-70" x="315.69" y="330.41" width="4.74" height="4.88"/><rect class="cls-71" x="320.43" y="330.41" width="4.74" height="4.88"/><rect class="cls-72" x="325.17" y="330.41" width="4.74" height="4.88"/><rect class="cls-73" x="329.91" y="330.41" width="4.74" height="4.88"/><rect class="cls-74" x="334.66" y="330.41" width="4.74" height="4.88"/><rect class="cls-75" x="339.4" y="330.41" width="4.74" height="4.88"/><rect class="cls-76" x="344.14" y="330.41" width="4.74" height="4.88"/><rect class="cls-77" x="348.88" y="330.41" width="4.74" height="4.88"/><rect class="cls-78" x="353.62" y="330.41" width="4.74" height="4.88"/><rect class="cls-79" x="358.36" y="330.41" width="4.74" height="4.88"/><rect class="cls-80" x="363.1" y="330.41" width="4.74" height="4.88"/><rect class="cls-81" x="367.84" y="330.41" width="4.74" height="4.88"/><rect class="cls-82" x="372.58" y="330.41" width="4.74" height="4.88"/><rect class="cls-83" x="377.32" y="330.41" width="4.74" height="4.88"/><rect class="cls-84" x="382.06" y="330.41" width="4.74" height="4.88"/><rect class="cls-85" x="386.8" y="330.41" width="4.74" height="4.88"/><path class="cls-85" d="M391.54,335.29v0Z"/></g><rect class="cls-19" x="312.87" y="434.52" width="266.96" height="4.88"/><path class="cls-86" d="M329.31,289.25c-.92,4.46,1.16,8.65,4.64,9.36s7-2.33,7.95-6.79-1.17-8.65-4.65-9.36S330.22,284.79,329.31,289.25Z"/><path class="cls-87" d="M545.53,257.5s2.62,4.44,3.72,5.16c1.5,1,.56,2-.15,2s-4.35.26-5.15-.65-1.2-3.63-1.94-4.34-1.51-3.55.36-4.24C544,254.8,545.53,257.5,545.53,257.5Z"/><path class="cls-88" d="M544.4,255.55s3,5.2,3.51,6-1,.77-1.89.4-3.24-4.08-3.58-4.76a2.56,2.56,0,0,1-.07-1.74Z"/><polygon class="cls-87" points="541.37 258.35 542.06 263.67 542.42 263.69 542.31 259.86 541.37 258.35"/><path class="cls-87" d="M519.6,257.5s2.61,4.44,3.72,5.16c1.5,1,.56,2-.15,2s-4.35.26-5.15-.65-1.2-3.63-1.94-4.34-1.54-3.62.36-4.24C518.11,254.87,519.6,257.5,519.6,257.5Z"/><path class="cls-88" d="M518.62,255.56s2.84,5.19,3.36,5.95-1,.77-1.9.4-3.24-4.08-3.57-4.76a2.49,2.49,0,0,1-.07-1.74Z"/><polygon class="cls-87" points="515.43 258.35 516.13 263.67 516.49 263.69 516.38 259.86 515.43 258.35"/><path class="cls-88" d="M508,217.16l23.66,10.78a4.56,4.56,0,0,1,2.94,3.79c.92,9.16,7.77,23.68,7.77,23.68,2.2,1.08,2,.14,2,.14-1.38-4.44-3.07-22.76-3.67-30.13-.13-1.56-.21-2.62-.22-3s-.27-.53-.71-.89c-3.25-2.63-16.61-8.08-16.61-8.08C513.16,213.22,508,217.16,508,217.16Z"/><path class="cls-88" d="M503.54,221.79c.73,6.39,9.86,5.66,9.86,5.66h11.07a68.82,68.82,0,0,0-4,11.93c-1.19,5.79-4,16-4,16s.18.35,2.18.16c0,0,8.69-17.32,12-21.67a29.71,29.71,0,0,0,3.12-9.06c.11-1,0-1.8-.34-2.12a25.68,25.68,0,0,0-2.44-1.67c-3.47-2.19-9.49-5.56-12.84-6.31-4.5-1-11.6-2.9-11.6-2.9A12.2,12.2,0,0,0,503.54,221.79Z"/><path class="cls-89" d="M511.07,172.52a10.31,10.31,0,0,1-.85-6.5c.81-3.35,3.91-6.68,8.46-5.15s8.23,5.07,5.5,9.15,2.47,5.94,1.15,7.88-.82,4-.26,4.43,2.37,2.06,2.17,4-8.83-5.56-8.83-5.56S513.71,171.29,511.07,172.52Z"/><path class="cls-90" d="M524.94,212.71s-.69,3.33-18.36-.87C506.58,211.84,512.5,209.87,524.94,212.71Z"/><path class="cls-91" d="M506.37,212.77c-.27.52-.54,1-.82,1.57l19.39.56c-1-3.42-.69-8.05-.52-11.57.22-4.3,2.6-7.29,2.34-11.63,1.28.21,1.5.25,2.78.44-1.95-5.58-2.63-8.34-8.71-10.49a11.42,11.42,0,0,0-5.42-.66c-7,.58-9.17.67-12.63,7,5.42.86,4.53,2.81,6.17,8.19.8,2.63,1.63,5.56,1.21,8.33S506.37,210.28,506.37,212.77Z"/><path class="cls-15" d="M517.62,183c-2.89-.54-2.27-2.14-2.27-2.14s.13-.91.18-2.05c0-.29,0-.6,0-.92a10.9,10.9,0,0,0-.08-1.41c-.23-1.94,5.24-.78,5.24-.78s-.32,3.91.43,5.08S520.5,183.55,517.62,183Z"/><path class="cls-15" d="M512.12,180.85s5.81,6.71,8,8.27c0,0,2.47-2.23.95-8.13C521,181,518.22,179.59,512.12,180.85Z"/><path class="cls-15" d="M512.27,164.69s-3,5.82,0,11.33,8.88-2.4,9.26-3.33,2.4-6.18-1.62-7.77S513.13,163.11,512.27,164.69Z"/><path class="cls-89" d="M513.28,166.75s-2.08,2.73-2.33,4.75a10.85,10.85,0,0,1,1.52-7.48c2.34-3.66,8.28-.17,9.08,1.29s3.13,2.75-.79,9.05C520.76,174.36,513.71,169.46,513.28,166.75Z"/><path class="cls-17" d="M518.1,176.6a5.64,5.64,0,0,1-2.57,2.21c0-.29,0-.6,0-.92A4.82,4.82,0,0,0,518.1,176.6Z"/><path class="cls-15" d="M487.59,207.54s-1.44.63-2.12.34a6.27,6.27,0,0,0-2.07-.34c-.44,0-1.83-.5-1.81,0s2.26.93,2.72,1.09-1.37,1.18-1.54,1.62,1.89,3.38,3.05,2.54,1.79-2.5,2-2.6a10.25,10.25,0,0,0,.87-.57Z"/><path class="cls-15" d="M483,210s-3.37,2.8-3.42,3.17.13.56.45.31l3.34-2.6s-3.37,4-3.49,4.28.26.53.45.41,3.78-3.86,3.78-3.86-3.15,3.72-3.16,4a.36.36,0,0,0,.61.25c.26-.26,3.38-3.55,3.38-3.55s-2.1,2.86-2,3.11.35.48.86-.28,1.94-2.4,1.94-2.4Z"/><path class="cls-19" d="M523.31,227.45H513.4s-9.13.73-9.86-5.66a12.2,12.2,0,0,1,3-9.95s4.82,1.28,9,2.3a32.29,32.29,0,0,1,7.62-.66s17.85,5.9,17.32,9C540.51,222.48,533,218.49,523.31,227.45Z"/><polygon class="cls-92" points="516.86 216.38 535.76 216.1 526.22 220.94 516.86 216.38"/><path class="cls-91" d="M522.73,214a16.13,16.13,0,0,1-9.46.16l-.25-2,10.73.6Z"/><polygon class="cls-93" points="526.22 220.94 516.86 217.32 516.86 216.38 526.96 220.02 526.22 220.94"/><path class="cls-94" d="M522.67,214.86a.93.93,0,0,0,1.29.93l1.1-.47a.79.79,0,0,0,.47-.84c-.46-2.86-1.44-14,0-15.9a7,7,0,0,0,1.05-1.86c.94,2.44,2.12,5.58,2.59,7.27l8.93,11.87,3,.76a100.13,100.13,0,0,0-6.74-13.77c-.58-1.56-2.26-6.32-3.74-10.55-.94-2.67-1.8-5.13-2.26-6.45a3,3,0,0,0-1.3-1.6c-1.39-.83-3.69-2.13-5.78-3.15h0l-.2-.1h0c4,6,2.42,23,1.64,33.85Z"/><path class="cls-94" d="M507.92,181.5c-1.28.2-4.43,3.27-6.11,6.36-1.91,3.53-3.86,7.55-5.32,8.87-2.68,2.43-10.19,11-10.55,10.81a22.68,22.68,0,0,0,2.34,2.69c.14.06,12.34-10.51,13.52-12.12s4.08-7.94,5-7.8h0a47.18,47.18,0,0,1,2.18,5.91.84.84,0,0,0,.05.17,19,19,0,0,1,.26,7.9,26.66,26.66,0,0,1-2.93,7.55,1.29,1.29,0,0,0,0,.92h0a.67.67,0,0,0,.33.38l3.58,1.33.85.31a1.84,1.84,0,0,0,2.45-1.48c.8-6.13,1.81-12.39,2.61-14.75a22.32,22.32,0,0,0-1.38-18.13A68,68,0,0,0,507.92,181.5Z"/><polygon class="cls-95" points="526.22 220.94 531.84 205.59 549.96 205.89 544.6 220.03 526.22 220.94"/><path class="cls-96" d="M537.64,212.38c-.56,1.11-.39,2.31.37,2.69s1.82-.21,2.37-1.31.39-2.31-.37-2.69S538.19,211.28,537.64,212.38Z"/><path class="cls-89" d="M518.53,170.48a3.25,3.25,0,0,1,.09,3.37c-1.07,1.56.27,3.09.5,4.73s-4.47,6,.77,8.24,6.9-1.44,5.56-3.45a11.31,11.31,0,0,1-2.39-6.49C522.94,174,522,169.56,518.53,170.48Z"/><polygon class="cls-97" points="492.94 162.98 503.86 162.98 503.86 170.9 503.86 172.57 502.19 170.9 492.94 170.9 492.94 162.98"/><path class="cls-6" d="M431.6,284.51s-23.81,22.66-12.23,40.31,17,2.19,17,2.19,7.83,2.36-3.79-19.39C427.11,297.36,431.6,284.51,431.6,284.51Z"/><path class="cls-7" d="M387.57,259.94s-18.19,21.38,6.13,51,20.55,45.25,20.55,45.25S448.11,304.71,387.57,259.94Z"/><path class="cls-8" d="M419.74,347.24c11.31,2.29,2.16-30.62-14.82-40.65s-32.15-11-41.66-20.68C363.26,285.91,364,336,419.74,347.24Z"/><path class="cls-15" d="M345.77,361.68l.6-1.48a3.44,3.44,0,0,1,1.19-.83,3.87,3.87,0,0,1,1.67-.4.55.55,0,0,1,.36.34,1.07,1.07,0,0,1,.1.57.69.69,0,0,1,.25.62.6.6,0,0,1,.13.66.51.51,0,0,1,.14.55,4,4,0,0,0-.65.49,9.46,9.46,0,0,1-2.36,1.16S346,363.38,345.77,361.68Z"/><path class="cls-98" d="M347.61,361a3.61,3.61,0,0,1-.08.89c-.1.2,1.41.63,1.41.63S348.46,361,347.61,361Z"/><polygon class="cls-99" points="319.49 429.02 320.15 426.97 322.93 427.42 322.52 429.27 319.49 429.02"/><polygon class="cls-100" points="342.31 428.78 342.47 429.9 345.52 429.4 345.35 427.71 342.31 428.78"/><path class="cls-101" d="M335.71,397.21s-.45,2.45-1,5.16l-.27,1.44c-.51,2.61-1,5.13-1.22,5.65-.43,1.18-9.76,18.28-9.76,18.28s-3.82-.29-4-.78c0,0,7.82-18.57,7.78-19.24s.95-19.71.95-19.71S335.51,396.11,335.71,397.21Z"/><path class="cls-101" d="M340,386.92s3.65,18.7,4,20.13,1.69,20.58,1.69,20.58-.82,1.7-3.85,1.06c0,0-4.13-20.58-4.48-21.27-1.35-2.68-8-15.64-8.63-17.49a11.14,11.14,0,0,1-.45-4S333.15,383.15,340,386.92Z"/><path class="cls-102" d="M338.44,362.7s1.6,4,2,3.88,5-5.53,5-5.53,2.11,2.63,1.82,2.93-5.82,9.46-6.57,9.3-4.09-5.69-4.09-5.69S336.42,363.42,338.44,362.7Z"/><path class="cls-103" d="M331.59,355.08a65.29,65.29,0,0,1,5.3,4.43c1.15,1.26,4.31,6.48,4.08,8.05a113.46,113.46,0,0,0-1.31,15.26c0,3.58,1.11,4.5.4,4.55s-11.26,3.85-12.81,4.31c0,0,1-12.6,1.53-14.06S327.13,360.93,331.59,355.08Z"/><path class="cls-104" d="M358.34,349.06l.93,4.69.93,4.7a25.57,25.57,0,0,0-11.38-.47l-.41-2.07-.41-2.08A25.77,25.77,0,0,0,358.34,349.06Z"/><path class="cls-39" d="M342.47,429.91s2.3-.45,2.38-.52.57-1,.93-.82.36,1.26.71,1.45,3.09,2,3.43,2.38,2.41.14,2.65.73.26,2-2.84,1.64-6.65.18-7.31-.18S342.25,430.8,342.47,429.91Z"/><path class="cls-39" d="M319.46,429s2.34-.07,2.43-.13.72-.87,1.05-.66.15,1.31.46,1.55,2.73,2.51,3,2.9,2.36.52,2.5,1.14-.06,2-3.07,1.17-6.58-.89-7.18-1.36S319.1,429.82,319.46,429Z"/><path class="cls-11" d="M337.65,387.79s.28,1.13.72,1.38-2.09,2.68-2.09,2.68a22.65,22.65,0,0,1-1-2.48A15.55,15.55,0,0,1,337.65,387.79Z"/><path class="cls-105" d="M329.75,360s-3,14.18-3.23,15.63,8.74,14.49,8.74,14.49l3-1.77S331,375.19,331,374.59s3.47-12,3.47-12a2.69,2.69,0,1,0-4.74-2.56Z"/><path class="cls-106" d="M339.39,388.76a48.43,48.43,0,0,1,.91,6.3c-.06,1.48-5.56-2.32-5.28-3.79Z"/><path class="cls-15" d="M331.59,355.08s7.57,8.26,7.1,7.34c-1.66-3.26-2.82-3.81-2.8-4.42s.2-1.83.23-2.28c.06-.87.13-1.57.13-1.57s-3.76-5.28-3.59-3.48A11,11,0,0,1,331.59,355.08Z"/><path class="cls-15" d="M338.8,345.35a18.73,18.73,0,0,1,1.05,3,12.89,12.89,0,0,0,0,1.67,24,24,0,0,1,.59,2.51c-.08.48-1.09.23-1.23,1s-.87,2.26-1.23,2.29c-.94.08-4.53-1.38-4.75-2.13s-1.53-4.93-1.94-5.73,6.32-5.16,6.93-3.9Z"/><path class="cls-16" d="M329.66,347.16c-.48-2.07,1.9-2.32,1.9-2.32s1.55-1.81,5.26-1.59S340,348.3,340,348.3a14,14,0,0,0-3.69-.1,17.82,17.82,0,0,0,0,2.58l-1.4-.12s.15-1.84-.52-1.93-.89,3.89-2.15,4.76a1.36,1.36,0,0,0-.16-.55h0a16.38,16.38,0,0,1-1-2A23,23,0,0,1,329.66,347.16Z"/><path class="cls-15" d="M335.29,349.18a1.08,1.08,0,0,0-1.76-.5c-.89.67,0,3,.9,3S335.66,350.4,335.29,349.18Z"/><path class="cls-107" d="M333,353.06a2.76,2.76,0,0,0,.39.92,7.86,7.86,0,0,0,2.77,1.45L336,356.9S332.82,355.67,333,353.06Z"/><g class="cls-108"><path class="cls-21" d="M346.42,357.73v0Z"/><rect class="cls-21" x="346.42" y="357.73" width="0.06" height="5.62"/><rect class="cls-22" x="346.48" y="357.73" width="0.06" height="5.62"/><rect class="cls-23" x="346.54" y="357.73" width="0.06" height="5.62"/><rect class="cls-24" x="346.6" y="357.73" width="0.06" height="5.62"/><rect class="cls-25" x="346.65" y="357.73" width="0.06" height="5.62"/><rect class="cls-26" x="346.71" y="357.73" width="0.06" height="5.62"/><rect class="cls-27" x="346.77" y="357.73" width="0.06" height="5.62"/><rect class="cls-28" x="346.83" y="357.73" width="0.06" height="5.62"/><rect class="cls-29" x="346.89" y="357.73" width="0.06" height="5.62"/><rect class="cls-30" x="346.94" y="357.73" width="0.06" height="5.62"/><rect class="cls-31" x="347" y="357.73" width="0.06" height="5.62"/><rect class="cls-32" x="347.06" y="357.73" width="0.06" height="5.62"/><rect class="cls-33" x="347.12" y="357.73" width="0.06" height="5.62"/><rect class="cls-34" x="347.18" y="357.73" width="0.06" height="5.62"/><rect class="cls-35" x="347.24" y="357.73" width="0.06" height="5.62"/><rect class="cls-36" x="347.29" y="357.73" width="0.06" height="5.62"/><rect class="cls-37" x="347.35" y="357.73" width="0.06" height="5.62"/><rect class="cls-38" x="347.41" y="357.73" width="0.06" height="5.62"/><rect class="cls-39" x="347.47" y="357.73" width="0.06" height="5.62"/><rect class="cls-40" x="347.53" y="357.73" width="0.06" height="5.62"/><rect class="cls-41" x="347.58" y="357.73" width="0.06" height="5.62"/><rect class="cls-42" x="347.64" y="357.73" width="0.06" height="5.62"/><rect class="cls-43" x="347.7" y="357.73" width="0.06" height="5.62"/><rect class="cls-44" x="347.76" y="357.73" width="0.06" height="5.62"/><rect class="cls-45" x="347.82" y="357.73" width="0.06" height="5.62"/><rect class="cls-46" x="347.87" y="357.73" width="0.06" height="5.62"/><rect class="cls-47" x="347.93" y="357.73" width="0.06" height="5.62"/><rect class="cls-48" x="347.99" y="357.73" width="0.06" height="5.62"/><rect class="cls-49" x="348.05" y="357.73" width="0.06" height="5.62"/><rect class="cls-50" x="348.11" y="357.73" width="0.06" height="5.62"/><rect class="cls-51" x="348.16" y="357.73" width="0.06" height="5.62"/><rect class="cls-52" x="348.22" y="357.73" width="0.06" height="5.62"/><rect class="cls-53" x="348.28" y="357.73" width="0.06" height="5.62"/><rect class="cls-54" x="348.34" y="357.73" width="0.06" height="5.62"/><rect class="cls-55" x="348.4" y="357.73" width="0.06" height="5.62"/><rect class="cls-56" x="348.46" y="357.73" width="0.06" height="5.62"/><rect class="cls-57" x="348.51" y="357.73" width="0.06" height="5.62"/><rect class="cls-58" x="348.57" y="357.73" width="0.06" height="5.62"/><rect class="cls-59" x="348.63" y="357.73" width="0.06" height="5.62"/><rect class="cls-60" x="348.69" y="357.73" width="0.06" height="5.62"/><rect class="cls-61" x="348.75" y="357.73" width="0.06" height="5.62"/><rect class="cls-62" x="348.8" y="357.73" width="0.06" height="5.62"/><rect class="cls-63" x="348.86" y="357.73" width="0.06" height="5.62"/><rect class="cls-64" x="348.92" y="357.73" width="0.06" height="5.62"/><rect class="cls-65" x="348.98" y="357.73" width="0.06" height="5.62"/><rect class="cls-66" x="349.04" y="357.73" width="0.06" height="5.62"/><rect class="cls-67" x="349.09" y="357.73" width="0.06" height="5.62"/><rect class="cls-68" x="349.15" y="357.73" width="0.06" height="5.62"/><rect class="cls-69" x="349.21" y="357.73" width="0.06" height="5.62"/><rect class="cls-70" x="349.27" y="357.73" width="0.06" height="5.62"/><rect class="cls-71" x="349.33" y="357.73" width="0.06" height="5.62"/><rect class="cls-72" x="349.38" y="357.73" width="0.06" height="5.62"/><rect class="cls-73" x="349.44" y="357.73" width="0.06" height="5.62"/><rect class="cls-74" x="349.5" y="357.73" width="0.06" height="5.62"/><rect class="cls-75" x="349.56" y="357.73" width="0.06" height="5.62"/><rect class="cls-76" x="349.62" y="357.73" width="0.06" height="5.62"/><rect class="cls-77" x="349.67" y="357.73" width="0.06" height="5.62"/><rect class="cls-78" x="349.73" y="357.73" width="0.06" height="5.62"/><rect class="cls-79" x="349.79" y="357.73" width="0.06" height="5.62"/><rect class="cls-80" x="349.85" y="357.73" width="0.06" height="5.62"/><rect class="cls-81" x="349.91" y="357.73" width="0.06" height="5.62"/><rect class="cls-82" x="349.97" y="357.73" width="0.06" height="5.62"/><rect class="cls-83" x="350.02" y="357.73" width="0.06" height="5.62"/><rect class="cls-84" x="350.08" y="357.73" width="0.06" height="5.62"/><rect class="cls-85" x="350.14" y="357.73" width="0.06" height="5.62"/><path class="cls-85" d="M350.2,363.34v0Z"/></g><path class="cls-109" d="M349.07,359s-1.52.83-1.41,1.09a.45.45,0,0,0,.3.3l-.47.62s-.08.59.59.5c0,0-.13.54.5.38,0,0,.07.4.38.37a5.68,5.68,0,0,0,1.25-.59s.15-.22-.14-.55a.6.6,0,0,0-.13-.66.67.67,0,0,0-.25-.62s.14-.74-.46-.91Z"/><g class="cls-110"><path class="cls-21" d="M343.81,353.47v0Z"/><rect class="cls-21" x="343.81" y="353.47" width="0.09" height="5.37"/><rect class="cls-22" x="343.9" y="353.47" width="0.09" height="5.37"/><rect class="cls-23" x="344" y="353.47" width="0.1" height="5.37"/><rect class="cls-24" x="344.09" y="353.47" width="0.09" height="5.37"/><rect class="cls-25" x="344.19" y="353.47" width="0.09" height="5.37"/><rect class="cls-26" x="344.28" y="353.47" width="0.09" height="5.37"/><rect class="cls-27" x="344.38" y="353.47" width="0.09" height="5.37"/><rect class="cls-28" x="344.47" y="353.47" width="0.09" height="5.37"/><rect class="cls-29" x="344.57" y="353.47" width="0.09" height="5.37"/><rect class="cls-30" x="344.66" y="353.47" width="0.09" height="5.37"/><rect class="cls-31" x="344.76" y="353.47" width="0.1" height="5.37"/><rect class="cls-32" x="344.85" y="353.47" width="0.09" height="5.37"/><rect class="cls-33" x="344.95" y="353.47" width="0.09" height="5.37"/><rect class="cls-34" x="345.04" y="353.47" width="0.09" height="5.37"/><rect class="cls-35" x="345.14" y="353.47" width="0.09" height="5.37"/><rect class="cls-36" x="345.23" y="353.47" width="0.09" height="5.37"/><rect class="cls-37" x="345.33" y="353.47" width="0.09" height="5.37"/><rect class="cls-38" x="345.42" y="353.47" width="0.09" height="5.37"/><rect class="cls-39" x="345.52" y="353.47" width="0.1" height="5.37"/><rect class="cls-40" x="345.61" y="353.47" width="0.09" height="5.37"/><rect class="cls-41" x="345.71" y="353.47" width="0.09" height="5.37"/><rect class="cls-42" x="345.8" y="353.47" width="0.09" height="5.37"/><rect class="cls-43" x="345.9" y="353.47" width="0.09" height="5.37"/><rect class="cls-44" x="345.99" y="353.47" width="0.09" height="5.37"/><rect class="cls-45" x="346.08" y="353.47" width="0.09" height="5.37"/><rect class="cls-46" x="346.18" y="353.47" width="0.09" height="5.37"/><rect class="cls-47" x="346.27" y="353.47" width="0.09" height="5.37"/><rect class="cls-48" x="346.37" y="353.47" width="0.09" height="5.37"/><rect class="cls-49" x="346.46" y="353.47" width="0.09" height="5.37"/><rect class="cls-50" x="346.56" y="353.47" width="0.1" height="5.37"/><rect class="cls-51" x="346.65" y="353.47" width="0.09" height="5.37"/><rect class="cls-52" x="346.75" y="353.47" width="0.09" height="5.37"/><rect class="cls-53" x="346.84" y="353.47" width="0.09" height="5.37"/><rect class="cls-54" x="346.94" y="353.47" width="0.09" height="5.37"/><rect class="cls-55" x="347.03" y="353.47" width="0.09" height="5.37"/><rect class="cls-56" x="347.13" y="353.47" width="0.09" height="5.37"/><rect class="cls-57" x="347.22" y="353.47" width="0.09" height="5.37"/><rect class="cls-58" x="347.32" y="353.47" width="0.1" height="5.37"/><rect class="cls-59" x="347.41" y="353.47" width="0.09" height="5.37"/><rect class="cls-60" x="347.51" y="353.47" width="0.09" height="5.37"/><rect class="cls-61" x="347.6" y="353.47" width="0.09" height="5.37"/><rect class="cls-62" x="347.7" y="353.47" width="0.09" height="5.37"/><rect class="cls-63" x="347.79" y="353.47" width="0.09" height="5.37"/><rect class="cls-64" x="347.89" y="353.47" width="0.09" height="5.37"/><rect class="cls-65" x="347.98" y="353.47" width="0.09" height="5.37"/><rect class="cls-66" x="348.08" y="353.47" width="0.09" height="5.37"/><rect class="cls-67" x="348.17" y="353.47" width="0.1" height="5.37"/><rect class="cls-68" x="348.27" y="353.47" width="0.09" height="5.37"/><rect class="cls-69" x="348.36" y="353.47" width="0.09" height="5.37"/><rect class="cls-70" x="348.46" y="353.47" width="0.09" height="5.37"/><rect class="cls-71" x="348.55" y="353.47" width="0.09" height="5.37"/><rect class="cls-72" x="348.65" y="353.47" width="0.09" height="5.37"/><rect class="cls-73" x="348.74" y="353.47" width="0.09" height="5.37"/><rect class="cls-74" x="348.83" y="353.47" width="0.09" height="5.37"/><rect class="cls-75" x="348.93" y="353.47" width="0.1" height="5.37"/><rect class="cls-76" x="349.03" y="353.47" width="0.09" height="5.37"/><rect class="cls-77" x="349.12" y="353.47" width="0.09" height="5.37"/><rect class="cls-78" x="349.21" y="353.47" width="0.09" height="5.37"/><rect class="cls-79" x="349.31" y="353.47" width="0.09" height="5.37"/><rect class="cls-80" x="349.4" y="353.47" width="0.09" height="5.37"/><rect class="cls-81" x="349.5" y="353.47" width="0.09" height="5.37"/><rect class="cls-82" x="349.59" y="353.47" width="0.09" height="5.37"/><rect class="cls-83" x="349.69" y="353.47" width="0.09" height="5.37"/><rect class="cls-84" x="349.78" y="353.47" width="0.1" height="5.37"/><rect class="cls-85" x="349.88" y="353.47" width="0.09" height="5.37"/><path class="cls-85" d="M350,358.84v0Z"/></g><path class="cls-15" d="M346.42,360.17a5.72,5.72,0,0,1,1.84.23c.15.06.28.14.28.31s-.23.36-.75.4a4.23,4.23,0,0,0-1.15.33S346.1,361.32,346.42,360.17Z"/><path class="cls-111" d="M334.74,402.37l-.27,1.44-3-8C331.83,396.59,334.74,402.37,334.74,402.37Z"/><rect class="cls-19" x="113.73" y="218.45" width="60.62" height="88.34" rx="6.4"/><rect class="cls-112" x="164.77" y="275.5" width="3.14" height="23.9"/><rect class="cls-112" x="158.56" y="278.18" width="3.14" height="21.22"/><rect class="cls-112" x="151.82" y="281.66" width="3.14" height="17.74"/><rect class="cls-112" x="144.9" y="286.05" width="3.14" height="13.35"/><polygon class="cls-112" points="126.16 283.22 125.47 282.98 131.4 266.36 144.24 262.97 148.86 244.73 158.77 240.36 160.99 226.18 161.7 226.29 159.42 240.86 149.47 245.25 144.84 263.56 131.95 266.97 126.16 283.22"/><path class="cls-19" d="M146,262a1.93,1.93,0,1,1-2.71-.27A1.92,1.92,0,0,1,146,262Z"/><path class="cls-112" d="M146,265a2.29,2.29,0,1,1,.32-3.22A2.29,2.29,0,0,1,146,265Zm-2.44-3a1.56,1.56,0,1,0,2.2.22A1.56,1.56,0,0,0,143.55,262.05Z"/><path class="cls-19" d="M150.71,243.88a1.93,1.93,0,1,1-2.71-.27A1.93,1.93,0,0,1,150.71,243.88Z"/><path class="cls-112" d="M150.66,246.87a2.28,2.28,0,1,1,.33-3.22A2.29,2.29,0,0,1,150.66,246.87Zm-2.43-3a1.56,1.56,0,1,0,2.2.22A1.57,1.57,0,0,0,148.23,243.89Z"/><path class="cls-19" d="M160.47,239.38a1.93,1.93,0,1,1-2.71-.27A1.93,1.93,0,0,1,160.47,239.38Z"/><path class="cls-112" d="M160.42,242.37a2.28,2.28,0,1,1,.33-3.22A2.29,2.29,0,0,1,160.42,242.37Zm-2.44-3a1.57,1.57,0,1,0,2.21.22A1.58,1.58,0,0,0,158,239.39Z"/><path class="cls-19" d="M133.24,265.61a1.93,1.93,0,1,1-2.71-.27A1.93,1.93,0,0,1,133.24,265.61Z"/><path class="cls-112" d="M133.19,268.6a2.28,2.28,0,1,1,.33-3.22A2.3,2.3,0,0,1,133.19,268.6Zm-2.44-3a1.57,1.57,0,1,0,2.21.22A1.58,1.58,0,0,0,130.75,265.62Z"/><rect class="cls-113" x="120.17" y="243.52" width="19.3" height="4" rx="1.38"/><rect class="cls-113" x="120.17" y="236.53" width="19.3" height="4" rx="1.38"/><path class="cls-16" d="M106.32,250.74s-.56,5.51.46,6.9c0,0-2.7-.59-3.32-1.52S106.32,250.74,106.32,250.74Z"/><path class="cls-15" d="M123.17,268.36l1.13-.76a3,3,0,0,1,1.24,0,3.26,3.26,0,0,1,1.36.51.47.47,0,0,1,.1.41,1,1,0,0,1-.21.45.58.58,0,0,1-.12.56.52.52,0,0,1-.22.53s.07.32-.16.45a4.8,4.8,0,0,0-.69,0,8.11,8.11,0,0,1-2.22-.3S122.27,270,123.17,268.36Z"/><path class="cls-98" d="M124.84,268.81a3,3,0,0,1-.45.62c-.16.1.75,1.08.75,1.08S125.46,269.19,124.84,268.81Z"/><path class="cls-15" d="M122.59,268.45a4.21,4.21,0,0,0,1-.24c.38-.18-.07,1.92-.07,1.92a3.92,3.92,0,0,0-1.53-.66C121.39,269.45,122.59,268.45,122.59,268.45Z"/><path class="cls-114" d="M97.07,324.22a35,35,0,0,0,2.59,3.41s1.35.7,1.39,1.26c.08,1.05.13,1.67-1.63,1.72s-2.88,0-3.2-1.08a8,8,0,0,0-.88-1.91l-.14,2.79h-.39s-.18-2.79-.21-3.19-.28-1.93.56-2.61A2.32,2.32,0,0,1,97.07,324.22Z"/><path class="cls-114" d="M99.92,327.78a4.41,4.41,0,0,1-2.09,0c-1.14-.29-2.23-3-2.56-3.23l-.3-1.1h2.22a4,4,0,0,0,.38,1.51A26,26,0,0,0,99.92,327.78Z"/><path class="cls-114" d="M109.57,323.17a7.32,7.32,0,0,0,.83,1.39c.4.52,1.65,2.66,2.19,2.81s2.24.45,2.39,1.4.23,1.62-1.44,1.69-2.76.17-3.56-1a8.62,8.62,0,0,0-2.07-2v3.05h-.64a26.6,26.6,0,0,0-.48-3.4,3.85,3.85,0,0,1,.92-3.93C109.26,321.9,109.57,323.17,109.57,323.17Z"/><path class="cls-114" d="M112.59,327.37s-1.49.38-2.06,0-2.52-3.66-3.17-3.86c0,0,.63-1.26,2.21-.34C109.57,323.17,112.17,326.83,112.59,327.37Z"/><path class="cls-115" d="M96.22,277.45a15.61,15.61,0,0,0-2.68,6c-.57,3.25.34,14.15.31,15.76s-1.41,6.6-1.11,9.62,1.86,15.65,1.86,15.65l3.65-.07s-.73-13.62-.55-14.89.79-6.67.86-7.19,4.16-14.35,4.16-16.69S101.3,273.63,96.22,277.45Z"/><path class="cls-115" d="M106.8,278.52s3.46,13.21,3.87,15,1.23,4.22,1.2,4.55-.44,6-.44,6l-1,19.19H106.8s-1.17-12.21-1.36-14.68,1.35-6.27,1-7.31-6-13.11-6-13.11S96.13,274.69,106.8,278.52Z"/><path class="cls-94" d="M105.73,258.76a4.2,4.2,0,0,1,2.43,1.25,16.4,16.4,0,0,1,2.3,3.5c.27.6,4.11,6.13,4.31,6.26s1.88-.32,3.22-.43a29.4,29.4,0,0,0,5.48-1.3l.48,2.48s-8.07,2.6-9.93,2.14c-2.28-.56-7.52-7.28-7.52-7.28S102.59,260.8,105.73,258.76Z"/><path class="cls-94" d="M103.31,257.78a19.62,19.62,0,0,0,2.42,1c.62.12,3,3.26,3.46,4.4s0,2.86-.87,4.88,0,2.69-.45,4.71a55.39,55.39,0,0,0-.32,8.63c.07,1.12-11.53,3.23-13.84,1.19,0,0,1.56-5.17,3.42-7.11.4-.42.36-3.21.09-3.91s-3.37-5.9-3.37-5.9-.22-5.28,1.12-6.32c1.17-.91,4.36-1.23,4.94-1.43A9.78,9.78,0,0,1,103.31,257.78Z"/><path class="cls-116" d="M103.89,261.78,105,260.5l-1-3.35A21.84,21.84,0,0,0,103.89,261.78Z"/><path class="cls-15" d="M97.06,258.76a3.11,3.11,0,0,0-3.55,1.84c-1.3,2.49-1,3.83-1.27,4.95s-1.5,8.61-1.57,8.94-1.22,4.13-1.07,5.3,1.22,10,1.17,10.33,2.06-.29,2.06-.29-.08-9,0-9.79.15-4.67.71-5.68,1.94-7.17,2.24-7.8S99,259.56,97.06,258.76Z"/><path class="cls-15" d="M104.17,255.72a41.27,41.27,0,0,0-.28,4.36s-1.87,1.86-4-2.18a5.57,5.57,0,0,0,.22-3.94C99.46,251.69,104.17,255.72,104.17,255.72Z"/><polygon class="cls-15" points="103.89 260.07 103.89 261.78 101.89 260.01 103.89 260.07"/><polygon class="cls-116" points="103.89 261.78 103 260.68 100 257.69 98.88 258.19 103.89 261.78"/><polygon class="cls-117" points="104.98 260.5 106.35 260.88 104.03 257.15 104.98 260.5"/><polygon class="cls-117" points="103 260.68 101.74 262.69 98.83 258.12 100.08 257.48 103 260.68"/><path class="cls-116" d="M109.38,268.78a15.11,15.11,0,0,0,0-4.79s-.26,1.46-.9,3.74Z"/><path class="cls-116" d="M95.46,268.39l1.31-4.33a34.29,34.29,0,0,1-.56,5.64S95.76,268.9,95.46,268.39Z"/><polygon class="cls-118" points="141.62 247.84 122.12 272.41 122.8 272.94 141.62 247.84"/><path class="cls-109" d="M126.75,268.08s-1.46-.14-1.51.09a.38.38,0,0,0,.07.35l-.63.22s-.33.38.18.63c0,0-.35.32.17.51,0,0-.14.31.09.44a4.89,4.89,0,0,0,1.17.18s.21-.08.16-.45a.5.5,0,0,0,.22-.53.55.55,0,0,0,.12-.56s.46-.45.11-.86Z"/><path class="cls-15" d="M124.35,267.6a5.33,5.33,0,0,1,1.19,1c.07.12.12.24,0,.35s-.34.15-.72-.07a3.92,3.92,0,0,0-1-.32S123.57,268.27,124.35,267.6Z"/><path class="cls-15" d="M102.66,244.53s3.3-.09,3.91,3.82-.8,7.33-1.35,7.88-3.85.14-4.63-1.89-1.91-3.51-1.74-5.25S98.6,244.46,102.66,244.53Z"/><path class="cls-16" d="M106.71,249.82s.88-4.87-3.5-5.74-5.92,2.12-6.33,3.91.07,6.8.07,6.8a22.88,22.88,0,0,0,4.67,3.23s-1.46-5.35-.91-9.18a18.72,18.72,0,0,0,5.92,0S106.7,249.62,106.71,249.82Z"/><path class="cls-17" d="M104.09,256.45a5.6,5.6,0,0,1-2.7-1,6.41,6.41,0,0,0,2.63,1.88A7.21,7.21,0,0,0,104.09,256.45Z"/><rect class="cls-119" x="85.52" y="282.59" width="12.91" height="9.55" transform="matrix(0.99, -0.16, 0.16, 0.99, -45.11, 18.58)"/><path class="cls-15" d="M90.33,293a1.71,1.71,0,0,1-.22-.51s0-.34,0-.58a.82.82,0,0,0,0-.18,3.1,3.1,0,0,1-.15-1,22,22,0,0,1,.64-2.36l1.13,0,1.06-.11a21.76,21.76,0,0,1,1.31,2.87v.12a4.38,4.38,0,0,1-.21.81c0,.06-.17.74-.35.83a.68.68,0,0,1-.66,0,1.65,1.65,0,0,1-.89.13,1,1,0,0,1-.89,0S90.55,293.17,90.33,293Z"/><path class="cls-94" d="M97.06,258.76a3.11,3.11,0,0,0-3.55,1.84A11.44,11.44,0,0,0,92,265.36c-.16,1.15-1.74,8-1.81,8.29s-.6,4.59-.63,6.14c0,1.18.25,8.91.2,9.21s3.57-.52,3.57-.52-.4-7.13-.32-7.88a41.22,41.22,0,0,1,.59-5.56c.43-1.29,2.13-7.76,2.42-8.4S99,259.56,97.06,258.76Z"/><path class="cls-120" d="M213.82,325.78l.23-2.19a16.94,16.94,0,0,0-3.45.24s.27,1.84.3,2.11S213.82,325.78,213.82,325.78Z"/><path class="cls-121" d="M208.57,330.36c3.67,0,5.44.22,5.84-.38s-.57-4.4-.57-4.4a7.65,7.65,0,0,1-3,.13,7.87,7.87,0,0,1-1.8,1.59c-.89.48-2.28.67-2.8,1.17S204.9,330.39,208.57,330.36Z"/><path class="cls-120" d="M193.14,325.78l.24-2.19a16.94,16.94,0,0,0-3.45.24s.26,1.84.3,2.11S193.14,325.78,193.14,325.78Z"/><path class="cls-121" d="M187.9,330.36c3.67-.1,5.44.22,5.83-.38s-.57-4.4-.57-4.4a6.94,6.94,0,0,1-3,.13,7.87,7.87,0,0,1-1.8,1.59c-.89.48-4.14.88-4.66,1.38S182.73,330.49,187.9,330.36Z"/><path class="cls-9" d="M209.58,276.37a27.38,27.38,0,0,1,1.33,8.5c-.2,3.93.8,8.23,1.2,12.34.46,4.57,2.31,15.41,2.38,17.86s-.29,10.26-.29,10.26l-3.72.09s-3.12-18.94-3.93-20.88-4.82-15.71-5-17.26S209.58,276.37,209.58,276.37Z"/><path class="cls-9" d="M193.94,277.19s-2,10.77-2.31,13.18-.45,11.64-.58,13.14-.9,19.68-1.62,21.91h4.75s3.65-13.21,3.65-19.46,2.82-13.59,4.64-17.71,6-4.22,7.11-11.88C209.58,276.37,195.46,274.76,193.94,277.19Z"/><path class="cls-15" d="M203.61,240.37s-3.75-1.4-5.48,1.45-1.56,8.57.33,9.27,4.72.33,5.69-1.45a14.32,14.32,0,0,0,1.8-6.09A3.75,3.75,0,0,0,203.61,240.37Z"/><path class="cls-15" d="M199.09,250.91a3.17,3.17,0,0,1-.1,1.47c-.25.48,4.71.5,4.71.5a32,32,0,0,1,1.17-4.86C205.63,245.8,199.09,250.91,199.09,250.91Z"/><path class="cls-122" d="M204.87,248s-.34.56-1.74.35-3.11-2.08-3.69-2.29-.59-.55-.59-.55l-.37.54-.62,0s.57-1.67-.28-2.35.88-5.38,5.37-3.82c0,0,3.21.64,3.41,2.59A9,9,0,0,1,204.87,248Z"/><path class="cls-123" d="M198.69,252.32s0-.92.44-1a29,29,0,0,1,5.14-.29v1.07S203.28,252.7,198.69,252.32Z"/><path class="cls-15" d="M198.94,244.82c.08-.33.92-1.27,1.24-.26s-.49,2.36-.94,2.24S198.74,245.65,198.94,244.82Z"/><path class="cls-71" d="M198.69,252.32s-2.3.83-5,2a5.59,5.59,0,0,0-3.4,4.54c-.18,1.8-2.1,11.36-2.46,12.17s-4.61,13.8-4.76,14.07,3.47,1.78,3.71,1.66,4.12-11.86,4.51-12.73c0,0,2.23-7,2.29-8.08,0,0,.07,3,.19,3.83s-2,17.13-1.93,17.58,9.57,1,13.38.6a46.26,46.26,0,0,0,6.87-1.3s-3-12.85-2.9-14.28c.2-3.11,1.24-9,1.24-9l3.1,5.84-4,10.22.91,3.11s7.38-11.16,7.62-12.17a5.49,5.49,0,0,0-.75-3.16c-.39-.84-3-7.22-3.55-8.12s-1.61-4.5-4.06-5.5a38.39,38.39,0,0,0-5.48-1.53Z"/><rect class="cls-124" x="177.51" y="276.41" width="17.95" height="12.52" transform="translate(76.05 -37.46) rotate(14.38)"/><path class="cls-125" d="M181.58,287.72s-.5.81-.68,1,.45.37.71.14S181.58,287.72,181.58,287.72Z"/><path class="cls-126" d="M185.2,290.47a2.11,2.11,0,0,0,.36-.51s.08-.36.16-.62c0-.08.05-.15.07-.19a3.79,3.79,0,0,0,.4-1.06c.07-.5.29-2.72.29-2.72l-1.35-.34-1.08-.23a21.41,21.41,0,0,0-2.46,2.79l0,.13a5.12,5.12,0,0,0,0,.93c0,.07,0,.85.19,1a.76.76,0,0,0,.72.17,1.71,1.71,0,0,0,.92.35,1.13,1.13,0,0,0,1,.18S184.9,290.66,185.2,290.47Z"/><path class="cls-71" d="M190.46,276.4s-3.09,9.34-3.66,10.33a10.21,10.21,0,0,1-3.71-1.66L186.48,275Z"/><path class="cls-127" d="M468.84,291s11.45-33.59-10.41-44S418,251.6,414.51,259.75s-2.58,23,.41,33.29,2.56,26-3.94,31.31-14.55,14-14.15,31.77c.25,11,43.4-28.21,43.4-28.21Z"/><path class="cls-105" d="M438.12,330.93s-18,4-25.09,8.15-23,23.34-23,31.58,69.26,15.95,69.26,15.95l13.12,47.92s35-8.54,39.18-15.63-13.3-57.86-16.29-68.13c-3.05-10.49-15.59-17.8-30.18-19.84A100.35,100.35,0,0,0,438.12,330.93Z"/><path class="cls-15" d="M463.9,330.77s-.4,21.83-17.72,22.48-13.71-20.94-13.71-20.94S445.13,327.17,463.9,330.77Z"/><path class="cls-127" d="M471.23,264.87s6.13,35.12-11.32,60.49C441.84,351.64,471.23,264.87,471.23,264.87Z"/><path class="cls-15" d="M460.19,315.33s-1.21,10.44.8,16.94-26.48,6.67-26.46,1.33c0-6.07,2.91-11.14.18-21.54S460.19,315.33,460.19,315.33Z"/><path class="cls-17" d="M438.09,316.66s9,9.37,20.49,1c0,0-.95,6-9.22,6.76S438.09,316.66,438.09,316.66Z"/><path class="cls-15" d="M449.35,252.69s22.74,6.73,19.49,38.28-18.1,29.93-19.49,30.16-19,1.39-24.59-36.89S449.35,252.69,449.35,252.69Z"/><path class="cls-127" d="M443.48,266.76s12.36,19.65,25.36,24.21c0,0,7.1-33-22.22-39.88s-24.73,33.3-22.55,44A87.19,87.19,0,0,1,443.48,266.76Z"/><path class="cls-35" d="M426.91,263.8s6.51-12.59,17.49-13.16,17.51,9,17.51,9a18.68,18.68,0,0,0-17.5-10.73C431.2,248.88,426.91,263.8,426.91,263.8Z"/><polygon class="cls-128" points="471.62 362.85 479.33 434.52 377.85 434.52 370.14 362.85 471.62 362.85"/><path class="cls-128" d="M476.88,432.06H374.52l-7.81-72.56H469.08Zm-101.57-.88H475.9l-7.62-70.79H367.7Z"/><path class="cls-129" d="M431,397.53c.91,4.46-1.17,8.65-4.65,9.36s-7-2.33-7.94-6.79,1.17-8.65,4.64-9.36S430.12,393.07,431,397.53Z"/><rect class="cls-128" x="469.73" y="427.32" width="18.94" height="7.21" transform="translate(958.4 861.84) rotate(180)"/><path class="cls-5" d="M410.86,219.31a15.62,15.62,0,1,1,15.61-15.61A15.63,15.63,0,0,1,410.86,219.31Zm0-30.34a14.73,14.73,0,1,0,14.72,14.73A14.75,14.75,0,0,0,410.86,189Z"/><path class="cls-130" d="M135.54,378V376.7c2.65,0,5.32-.1,7.93-.22l.06,1.32C140.89,377.93,138.21,378,135.54,378Zm-8-.08c-2.62-.07-5.31-.19-8-.36l.08-1.33c2.66.17,5.33.29,7.94.37Zm23.93-.67-.11-1.32c2.62-.23,5.27-.51,7.88-.85l.17,1.32C156.8,376.76,154.13,377,151.49,377.27Zm-39.87-.33c-2.72-.27-5.39-.61-7.93-1l.21-1.31c2.51.41,5.16.75,7.85,1Zm55.71-1.69-.22-1.3c2.56-.43,5.18-.92,7.8-1.46l.27,1.3C172.54,374.33,169.9,374.82,167.33,375.25Zm-71.49-.92c-2.67-.64-5.26-1.4-7.7-2.23l.44-1.26c2.39.82,4.94,1.57,7.57,2.2ZM183,372.05l-.31-1.29c2.43-.59,5-1.23,7.7-2l.34,1.28C187.94,370.82,185.41,371.46,183,372.05Zm-102.26-3a57.58,57.58,0,0,1-7-3.94l.74-1.11a57.56,57.56,0,0,0,6.84,3.86ZM198.38,368,198,366.7l3.3-.94,4.37-1.23.35,1.28L201.68,367Zm69.19-1.11c-2.45-1.15-4.9-2.18-7.29-3l.45-1.25c2.43.87,4.92,1.91,7.41,3.08Zm-53.86-3.12-.32-1.28c2.85-.73,5.4-1.33,7.78-1.82l.26,1.3C219.08,362.43,216.55,363,213.71,363.74Zm39-2.14a62.76,62.76,0,0,0-7.76-1.28l.13-1.32a63.64,63.64,0,0,1,7.93,1.31Zm-23.49-1-.17-1.31a75.28,75.28,0,0,1,8-.62l0,1.33A75.42,75.42,0,0,0,229.23,360.62Zm-161.87-.46a44.9,44.9,0,0,1-5.39-6l1.07-.79a43.46,43.46,0,0,0,5.23,5.82Zm-9.59-12.88a46.59,46.59,0,0,1-2.9-7.53l1.27-.37A46.11,46.11,0,0,0,59,346.69Zm-4.55-15.41a63.43,63.43,0,0,1-.54-8H54a60.65,60.65,0,0,0,.53,7.86ZM54.4,316l-1.32-.14c.26-2.6.67-5.27,1.19-7.94l1.3.26C55.05,310.77,54.66,313.4,54.4,316Zm3-15.5-1.28-.37a70.38,70.38,0,0,1,2.61-7.62L60,293A72.07,72.07,0,0,0,57.44,300.46Z"/><path class="cls-130" d="M479.12,139.39s-2.24-2-6.21-4.93l.8-1.07c4,3,6.27,5,6.29,5Zm-12.7-9.51c-2.18-1.45-4.44-2.88-6.71-4.25l.69-1.14c2.28,1.38,4.56,2.82,6.76,4.29Zm-13.6-8.18c-2.33-1.26-4.71-2.47-7.07-3.6l.57-1.2c2.38,1.14,4.78,2.36,7.13,3.63Zm-14.31-6.85c-2.46-1-4.94-2-7.4-2.86l.45-1.25c2.47.88,5,1.85,7.46,2.89Zm-100.85-1.62,0-1.33a56.73,56.73,0,0,0,7.83-.73l.21,1.31A57.8,57.8,0,0,1,337.66,113.23Zm-8-.42a57.54,57.54,0,0,1-7.89-1.55l.34-1.28a58.32,58.32,0,0,0,7.71,1.52Zm23.88-2.14-.38-1.27c.86-.25,1.72-.53,2.59-.82,1.65-.55,3.35-1.07,5-1.55l.36,1.28c-1.65.47-3.32,1-5,1.53C355.26,110.14,354.38,110.42,353.51,110.67Zm70.06-1.14c-2.54-.75-5.12-1.43-7.66-2l.3-1.29c2.56.59,5.17,1.28,7.74,2Zm-109.45-.78c-2.34-.91-4.74-2-7.33-3.22l.58-1.2c2.56,1.24,4.93,2.28,7.23,3.18Zm54.67-2.29-.26-1.3c2.6-.52,5.26-1,7.91-1.28l.16,1.32C374,105.52,371.36,105.94,368.79,106.46Zm39.35-.49c-2.61-.43-5.26-.78-7.85-1l.13-1.32c2.62.25,5.29.61,7.94,1ZM174.9,104.71l-.72-1.12c2.27-1.47,4.55-2.9,6.77-4.23l.68,1.14C179.43,101.82,177.16,103.24,174.9,104.71Zm209.58-.18-.06-1.32c2.64-.13,5.33-.15,8-.08l0,1.32C389.74,104.38,387.09,104.41,384.48,104.53Zm-84.79-2.68c-2.25-1.22-4.48-2.48-7-3.87l.65-1.16c2.47,1.4,4.7,2.65,6.94,3.87ZM188.5,96.52l-.64-1.16c2.38-1.31,4.76-2.56,7.08-3.71l.59,1.19C193.23,94,190.87,95.22,188.5,96.52Zm97.29-2.42c-2.6-1.43-4.89-2.64-7-3.7l.59-1.19c2.14,1.07,4.46,2.29,7.07,3.72Zm-83.08-4.61-.53-1.22c2.5-1.09,5-2.09,7.43-3l.45,1.24C207.66,87.42,205.19,88.41,202.71,89.49Zm68.87-2.42c-2.54-1.07-5-2-7.39-2.78L264.6,83c2.47.81,4.92,1.73,7.5,2.82Zm-54-3-.36-1.27c2.61-.76,5.23-1.4,7.78-1.92l.26,1.3C222.75,82.7,220.17,83.34,217.58,84.08Zm39-1.86A72,72,0,0,0,248.8,81l.15-1.32a74.44,74.44,0,0,1,7.91,1.29ZM233.06,81l-.14-1.32c2.69-.28,5.38-.43,8-.44v1.33A75,75,0,0,0,233.06,81Z"/><polygon class="cls-131" points="313.75 381.43 280.39 371.73 290.39 368.71 313.75 381.43"/><polygon class="cls-132" points="313.75 381.43 301.28 368.9 293.61 370.46 313.75 381.43"/><polygon class="cls-133" points="288.06 373.96 288.33 377.82 313.75 381.43 288.06 373.96"/><polygon class="cls-131" points="145.85 126.77 175.26 110.33 165.15 109.66 145.85 126.77"/><polygon class="cls-132" points="145.85 126.77 154.9 112.22 162.49 112.02 145.85 126.77"/><polygon class="cls-133" points="168.49 114.11 169.08 117.81 145.85 126.77 168.49 114.11"/></svg>