<?xml version="1.0" encoding="utf-8"?>
<!-- Generator: Adobe Illustrator 26.0.0, SVG Export Plug-In . SVG Version: 6.00 Build 0)  -->
<svg version="1.1" id="Layer_1" xmlns="http://www.w3.org/2000/svg" xmlns:xlink="http://www.w3.org/1999/xlink" x="0px" y="0px"
	 viewBox="0 0 110.6 19.5" style="enable-background:new 0 0 110.6 19.5;" xml:space="preserve">
<style type="text/css">
	.st0{fill:#FFFFFF;}
</style>
<g id="Layer_2_00000003086540036354770600000005916493021663467951_">
	<g id="Layer_1-2">
		<path class="st0" d="M70.3,17.7c-4.7-0.6-8-4.8-7.5-9.5c0.2-1.7,0.9-3.4,2.1-4.7c-2.5,1.3-4.1,3.7-4.4,6.5
			c-0.6,4.7,2.8,8.9,7.5,9.5c0,0,0,0,0,0c2.8,0.3,5.5-0.7,7.4-2.8C73.8,17.5,72.1,17.9,70.3,17.7z"/>
		<polygon class="st0" points="69.9,5.8 71.4,8.1 74.1,8.2 72.4,10.3 73.1,13 70.5,12 68.2,13.5 68.4,10.7 66.3,9 69,8.3 		"/>
		<path class="st0" d="M3.9,12.4v6H0V1h6.2c4.4,0,6.6,1.9,6.6,5.6c0.1,1.7-0.6,3.2-1.9,4.3c-1.5,1.1-3.3,1.7-5.1,1.6H3.9V12.4z
			 M3.9,4v5.5h1.6c2.1,0,3.1-0.9,3.1-2.8S7.6,4,5.5,4H3.9z"/>
		<path class="st0" d="M24.7,18.5h-3.6v-1.8l0,0c-0.7,1.4-2.2,2.2-3.7,2.1c-1.1,0.1-2.1-0.3-2.9-1c-0.7-0.8-1.1-1.8-1-2.8
			c0-2.4,1.4-3.8,4.3-4.2l3.4-0.5c0-1.4-0.7-2.1-2.2-2.1c-1.5,0-3,0.4-4.2,1.3V6.7C15.5,6.4,16.2,6.1,17,6c0.8-0.2,1.7-0.3,2.5-0.3
			c3.6,0,5.3,1.8,5.3,5.3C24.8,11,24.7,18.5,24.7,18.5z M21.1,13.4v-0.8l-2.3,0.3c-1.3,0.2-1.9,0.7-1.9,1.7c0,0.9,0.7,1.5,1.6,1.5
			c0,0,0.1,0,0.1,0c0.7,0,1.3-0.3,1.8-0.8C20.9,14.8,21.1,14.1,21.1,13.4z"/>
		<path class="st0" d="M40.3,18.5h-4.7l-4-6.2l0,0v6.2h-3.9V0h3.9v11.8l0,0L35.3,6h4.6l-4.5,5.9L40.3,18.5z"/>
		<path class="st0" d="M59.8,6l-3.6,12.5h-4.1l-1.8-7.3c-0.1-0.5-0.2-1.1-0.2-1.6H50c-0.1,0.6-0.1,1.2-0.2,1.6l-2,7.4h-4L40.3,6.1
			h3.9l1.7,8.2c0.1,0.4,0.1,0.8,0.2,1.4h0.1c0-0.5,0.1-0.9,0.2-1.4l2.1-8.1h3.7l1.9,8.2c0,0.2,0.1,0.7,0.2,1.4h0.1
			c0-0.5,0.1-0.9,0.2-1.4l1.6-8.2h3.6V6z"/>
		<path class="st0" d="M85,9.5c-0.5-0.3-1-0.4-1.6-0.4c-0.8,0-1.5,0.3-2,0.9c-0.5,0.7-0.8,1.6-0.7,2.5v6h-3.9V6h3.9v2.3l0,0
			c0.4-1.5,1.7-2.6,3.3-2.5c0.3,0,0.7,0,1,0.1V9.5z"/>
		<path class="st0" d="M99.3,18.5h-4.7l-4-6.2l0,0v6.2h-3.9V0h3.9v11.8l0,0L94.3,6h4.6l-4.5,5.9L99.3,18.5z"/>
		<rect x="104.4" y="6.4" class="st0" width="2" height="10.2"/>
		<rect x="100.3" y="10.5" class="st0" width="10.2" height="2"/>
	</g>
</g>
</svg>
