<?xml version="1.0" encoding="utf-8"?>
<!-- Generator: Adobe Illustrator 26.0.0, SVG Export Plug-In . SVG Version: 6.00 Build 0)  -->
<svg version="1.1" id="Layer_1" xmlns="http://www.w3.org/2000/svg" xmlns:xlink="http://www.w3.org/1999/xlink" x="0px" y="0px"
	 viewBox="0 0 150 150" style="enable-background:new 0 0 150 150;" xml:space="preserve">
<style type="text/css">
	.st0{fill:#006837;}
</style>
<g>
	<g>
		<path class="st0" d="M95.7,81c-4.7-0.6-8-4.8-7.5-9.5c0.2-1.8,1-3.4,2.1-4.7c-2.4,1.3-4.1,3.6-4.4,6.5c-0.6,4.7,2.8,8.9,7.5,9.5
			c2.9,0.3,5.6-0.8,7.4-2.8C99.3,80.8,97.5,81.2,95.7,81z"/>
		<polygon class="st0" points="95.3,69.1 96.8,71.4 99.5,71.5 97.8,73.6 98.5,76.3 95.9,75.3 93.6,76.8 93.8,74 91.7,72.3 
			94.4,71.6 		"/>
	</g>
	<path d="M29.3,75.7v6h-3.9V64.3h6.2c4.4,0,6.6,1.9,6.6,5.6c0,1.8-0.6,3.2-1.9,4.3c-1.3,1.1-3,1.6-5.1,1.6h-1.9V75.7z M29.3,67.3
		v5.5h1.6c2.1,0,3.1-0.9,3.1-2.8c0-1.8-1-2.7-3.1-2.7H29.3z"/>
	<path d="M50.1,81.8h-3.6V80l0,0c-0.8,1.4-2.1,2.1-3.7,2.1c-1.2,0-2.2-0.3-2.9-1s-1-1.6-1-2.8c0-2.4,1.4-3.8,4.3-4.2l3.4-0.5
		c0-1.4-0.7-2.1-2.2-2.1s-2.9,0.4-4.2,1.3V70c0.5-0.3,1.3-0.5,2.2-0.7s1.8-0.3,2.5-0.3c3.6,0,5.3,1.8,5.3,5.3L50.1,81.8L50.1,81.8z
		 M46.5,76.7v-0.8l-2.3,0.3c-1.3,0.2-1.9,0.7-1.9,1.7c0,0.4,0.2,0.8,0.5,1.1c0.3,0.3,0.7,0.4,1.2,0.4c0.7,0,1.3-0.3,1.8-0.8
		C46.2,78.1,46.5,77.5,46.5,76.7z"/>
	<path d="M65.7,81.8H61l-4-6.2l0,0v6.2h-3.9V63.3H57v11.8l0,0l3.7-5.8h4.6l-4.5,5.9L65.7,81.8z"/>
	<path d="M85.2,69.3l-3.6,12.5h-4.1l-1.8-7.3c-0.1-0.5-0.2-1-0.2-1.6h-0.1c-0.1,0.6-0.1,1.2-0.2,1.6l-2,7.4h-4l-3.5-12.5h3.9
		l1.7,8.2c0.1,0.4,0.1,0.8,0.2,1.4h0.1c0-0.6,0.1-1,0.2-1.4l2.1-8.1h3.7l1.9,8.2c0,0.2,0.1,0.7,0.2,1.4h0.1c0-0.5,0.1-0.9,0.2-1.4
		l1.6-8.2h3.6V69.3z"/>
	<path d="M110.4,72.8c-0.5-0.3-1-0.4-1.6-0.4c-0.8,0-1.5,0.3-2,0.9s-0.7,1.5-0.7,2.5v6h-3.9V69.3h3.9v2.3l0,0
		c0.6-1.7,1.7-2.5,3.3-2.5c0.4,0,0.7,0,1,0.1C110.4,69.2,110.4,72.8,110.4,72.8z"/>
	<path d="M124.7,81.8H120l-4-6.2l0,0v6.2h-3.9V63.3h3.9v11.8l0,0l3.7-5.8h4.6l-4.5,5.9L124.7,81.8z"/>
</g>
<g>
	<rect x="129.8" y="69.7" class="st0" width="2" height="10.2"/>
	
		<rect x="129.8" y="69.7" transform="matrix(-1.836970e-16 1 -1 -1.836970e-16 205.6537 -56.0049)" class="st0" width="2" height="10.2"/>
</g>
</svg>
