<svg xmlns="http://www.w3.org/2000/svg" viewBox="0 0 110.55 19.55"><defs><style>.cls-1{fill:#006837;}</style></defs><g id="Layer_2" data-name="Layer 2"><g id="Layer_1-2" data-name="Layer 1"><path class="cls-1" d="M70.3,17.7a8.62,8.62,0,0,1-7.5-9.5,8.8,8.8,0,0,1,2.1-4.7A8.28,8.28,0,0,0,60.5,10,8.54,8.54,0,0,0,68,19.5a8.69,8.69,0,0,0,7.4-2.8A8.86,8.86,0,0,1,70.3,17.7Z"/><polygon class="cls-1" points="69.9 5.8 71.4 8.1 74.1 8.2 72.4 10.3 73.1 13 70.5 12 68.2 13.5 68.4 10.7 66.3 9 69 8.3 69.9 5.8"/><path d="M3.9,12.4v6H0V1H6.2c4.4,0,6.6,1.9,6.6,5.6a5.28,5.28,0,0,1-1.9,4.3,7.6,7.6,0,0,1-5.1,1.6H3.9ZM3.9,4V9.5H5.5c2.1,0,3.1-.9,3.1-2.8S7.6,4,5.5,4Z"/><path d="M24.7,18.5H21.1V16.7h0a4,4,0,0,1-3.7,2.1,4,4,0,0,1-2.9-1,3.71,3.71,0,0,1-1-2.8c0-2.4,1.4-3.8,4.3-4.2l3.4-.5c0-1.4-.7-2.1-2.2-2.1a7.18,7.18,0,0,0-4.2,1.3V6.7A8.14,8.14,0,0,1,17,6a12.07,12.07,0,0,1,2.5-.3c3.6,0,5.3,1.8,5.3,5.3l-.1,7.5Zm-3.6-5.1v-.8l-2.3.3c-1.3.2-1.9.7-1.9,1.7a1.55,1.55,0,0,0,1.7,1.5,2.5,2.5,0,0,0,1.8-.8A2.94,2.94,0,0,0,21.1,13.4Z"/><path d="M40.3,18.5H35.6l-4-6.2h0v6.2H27.7V0h3.9V11.8h0L35.3,6h4.6l-4.5,5.9Z"/><path d="M59.8,6,56.2,18.5H52.1l-1.8-7.3a7.77,7.77,0,0,1-.2-1.6H50c-.1.6-.1,1.2-.2,1.6l-2,7.4h-4L40.3,6.1h3.9l1.7,8.2c.1.4.1.8.2,1.4h.1a5.21,5.21,0,0,1,.2-1.4l2.1-8.1h3.7l1.9,8.2c0,.2.1.7.2,1.4h.1a6.75,6.75,0,0,1,.2-1.4l1.6-8.2h3.6V6Z"/><path d="M85,9.5a2.93,2.93,0,0,0-1.6-.4,2.52,2.52,0,0,0-2,.9,3.9,3.9,0,0,0-.7,2.5v6H76.8V6h3.9V8.3h0A3.28,3.28,0,0,1,84,5.8a3.08,3.08,0,0,1,1,.1Z"/><path d="M99.3,18.5H94.6l-4-6.2h0v6.2H86.7V0h3.9V11.8h0L94.3,6h4.6l-4.5,5.9Z"/><rect class="cls-1" x="104.4" y="6.4" width="2" height="10.2"/><rect class="cls-1" x="100.35" y="10.5" width="10.2" height="2"/></g></g></svg>