<?xml version="1.0" encoding="utf-8"?>
<!-- Generator: Adobe Illustrator 26.0.0, SVG Export Plug-In . SVG Version: 6.00 Build 0)  -->
<svg version="1.1" id="Layer_1" xmlns="http://www.w3.org/2000/svg" xmlns:xlink="http://www.w3.org/1999/xlink" x="0px" y="0px"
	 viewBox="0 0 1495 1572" style="enable-background:new 0 0 1495 1572;" xml:space="preserve">
<style type="text/css">
	.st0{fill:#1C8292;}
</style>
<path class="st0" d="M0.7,19.2v456.5C0.7,601.7,103,704,229,704s228.2,102.3,228.2,228.2c0,126,102.3,228.2,228.2,228.2
	s228.2,102.3,228.2,228.2S1016,1617,1142,1617h456.5c126,0,228.2-102.3,228.2-228.2V932.2c0-126-102.3-228.2-228.2-228.2h-228.2
	c-252,0-456.5-204.5-456.5-456.5V19.2c0-126-102.3-228.2-228.2-228.2H229C103-209,0.7-106.7,0.7,19.2z"/>
</svg>
