<?xml version="1.0" encoding="utf-8"?>
<!-- Generator: Adobe Illustrator 26.0.0, SVG Export Plug-In . SVG Version: 6.00 Build 0)  -->
<svg version="1.1" xmlns="http://www.w3.org/2000/svg" xmlns:xlink="http://www.w3.org/1999/xlink" x="0px" y="0px"
	 viewBox="0 0 500 500" style="enable-background:new 0 0 500 500;" xml:space="preserve">
<style type="text/css">
	.st0{fill:#EBEBEB;}
	.st1{fill:#E0E0E0;}
	.st2{fill:#E6E6E6;}
	.st3{fill:#F0F0F0;}
	.st4{fill:#F5F5F5;}
	.st5{fill:#FFFFFF;}
	.st6{fill:#FAFAFA;}
	.st7{display:none;}
	.st8{display:inline;}
	.st9{fill:#407BFF;}
	.st10{opacity:0.9;fill:#FFFFFF;}
	.st11{fill:#263238;}
	.st12{opacity:0.7;fill:#FFFFFF;enable-background:new    ;}
	.st13{opacity:0.6;fill:#FFFFFF;enable-background:new    ;}
	.st14{fill:#E4897B;}
	.st15{opacity:0.2;enable-background:new    ;}
	.st16{fill:#DE5753;}
	.st17{fill:none;stroke:#263238;stroke-width:0.7247;stroke-linecap:round;stroke-linejoin:round;stroke-miterlimit:10;}
	.st18{fill:none;stroke:#263238;stroke-width:0.5;stroke-linecap:round;stroke-linejoin:round;stroke-miterlimit:10;}
	.st19{fill:none;stroke:#FFFFFF;stroke-miterlimit:10;}
	.st20{opacity:0.3;enable-background:new    ;}
	.st21{opacity:0.4;enable-background:new    ;}
	.st22{opacity:0.1;fill:#FFFFFF;enable-background:new    ;}
	.st23{opacity:0.2;fill:#FFFFFF;enable-background:new    ;}
	.st24{opacity:0.3;fill:#FFFFFF;enable-background:new    ;}
	.st25{opacity:0.4;fill:#FFFFFF;enable-background:new    ;}
	.st26{opacity:0.5;fill:#FFFFFF;}
</style>
<g id="Background_Complete">
	<g>
		<rect y="382.4" class="st0" width="500" height="0.2"/>
		<rect x="416.8" y="398.5" class="st0" width="33.1" height="0.2"/>
		<rect x="322.5" y="401.2" class="st0" width="8.7" height="0.2"/>
		<rect x="396.6" y="389.2" class="st0" width="19.2" height="0.2"/>
		<rect x="52.5" y="390.9" class="st0" width="43.2" height="0.2"/>
		<rect x="104.6" y="390.9" class="st0" width="6.3" height="0.2"/>
		<rect x="131.5" y="395.1" class="st0" width="93.7" height="0.2"/>
		<path class="st0" d="M237,337.8H43.9c-3.1,0-5.7-2.6-5.7-5.7V60.7c0-3.1,2.6-5.7,5.7-5.7H237c3.1,0,5.7,2.6,5.7,5.7v271.4
			C242.7,335.2,240.2,337.8,237,337.8z M43.9,55.2c-3,0-5.5,2.4-5.5,5.5v271.4c0,3,2.4,5.5,5.5,5.5H237c3,0,5.5-2.4,5.5-5.5V60.7
			c0-3-2.4-5.5-5.5-5.5H43.9z"/>
		<path class="st0" d="M453.3,337.8H260.2c-3.1,0-5.7-2.6-5.7-5.7V60.7c0-3.1,2.6-5.7,5.7-5.7h193.1c3.1,0,5.7,2.6,5.7,5.7v271.4
			C459,335.2,456.5,337.8,453.3,337.8z M260.2,55.2c-3,0-5.5,2.4-5.5,5.5v271.4c0,3,2.4,5.5,5.5,5.5h193.1c3,0,5.5-2.4,5.5-5.5V60.7
			c0-3-2.4-5.5-5.5-5.5H260.2z"/>
	</g>
	<g>
		<g>
			<polygon class="st1" points="378.3,319.7 378.3,333.8 384.3,338.2 356.3,338.2 365.2,334.9 365.2,320.6 			"/>
			<path class="st1" d="M302.7,337.8v44.7h125v-44.7H302.7z M305,340.7h97.8v14.6H305V340.7z"/>
			<path class="st0" d="M302.7,337.8v44.7h103.1v-44.7H302.7z M305,340.7h97.8v14.6H305V340.7z"/>
			
				<rect x="305" y="340.7" transform="matrix(-1 -1.224647e-16 1.224647e-16 -1 630.1444 696.0228)" class="st1" width="20.2" height="14.6"/>
			
				<rect x="377.9" y="348" transform="matrix(-1 -1.224647e-16 1.224647e-16 -1 780.7087 703.3311)" class="st1" width="24.9" height="7.3"/>
			
				<rect x="357.3" y="351" transform="matrix(-1 -1.224647e-16 1.224647e-16 -1 733.3013 706.2983)" class="st1" width="18.8" height="4.3"/>
			
				<rect x="335" y="346.4" transform="matrix(-1 -1.224647e-16 1.224647e-16 -1 687.9462 701.7606)" class="st1" width="17.9" height="8.9"/>
			<polygon class="st1" points="385.1,358.5 385.6,360.2 392.8,360.2 393.3,358.5 402.8,358.5 402.8,377.9 371.4,377.9 371.4,358.5 
							"/>
			<polygon class="st1" points="347.7,358.5 348.2,360.2 355.4,360.2 356,358.5 369.7,358.5 369.7,377.9 338.2,377.9 338.2,358.5 
							"/>
			<polygon class="st1" points="318.8,358.5 319.4,360.2 326.5,360.2 327.1,358.5 336.5,358.5 336.5,377.9 305.1,377.9 305.1,358.5 
							"/>
			<g>
				<path class="st1" d="M321,328.1h93c1.9,0,3.5-1.6,3.5-3.5v-53.4c0-1.9-1.6-3.5-3.5-3.5h-93c-1.9,0-3.5,1.6-3.5,3.5v53.4
					C317.5,326.6,319.1,328.1,321,328.1z"/>
				<path class="st2" d="M318.7,328.1h93c1.9,0,3.5-1.6,3.5-3.5v-53.4c0-1.9-1.6-3.5-3.5-3.5h-93c-1.9,0-3.5,1.6-3.5,3.5v53.4
					C315.1,326.6,316.7,328.1,318.7,328.1z"/>
				
					<rect x="337.9" y="250.8" transform="matrix(-1.836970e-16 1 -1 -1.836970e-16 663.0714 -67.2564)" class="st3" width="54.6" height="94.2"/>
			</g>
		</g>
		<g>
			<rect x="72.5" y="107.6" class="st0" width="118.6" height="122.6"/>
			<rect x="76.7" y="107.6" class="st3" width="118.6" height="122.6"/>
			<rect x="79.6" y="110.5" class="st1" width="112.5" height="116.8"/>
			<rect x="79.6" y="110.5" class="st4" width="109.7" height="116.8"/>
			<rect x="133.4" y="110.5" class="st0" width="2.2" height="116.8"/>
			<polygon class="st5" points="148.4,110.5 179.7,227.4 182.7,227.4 151.4,110.5 			"/>
			<rect x="134.7" y="108.7" class="st3" width="1.9" height="120.9"/>
			<polygon class="st5" points="159.8,110.5 189.3,221.1 189.3,160.3 176,110.5 			"/>
			<polygon class="st5" points="79.6,121.1 79.6,132.4 105.1,227.4 108.1,227.4 			"/>
			<polygon class="st5" points="79.6,143.8 79.6,204.6 85.7,227.4 102,227.4 			"/>
		</g>
		<g>
			<rect x="327.7" y="114.6" class="st2" width="71.8" height="87.4"/>
			<polygon class="st1" points="383.1,180.4 345.4,143.3 386.2,136.5 			"/>
			<polygon class="st3" points="346.3,171.6 344.4,143.1 372.8,150.1 374.9,171.9 			"/>
			
				<ellipse transform="matrix(0.7071 -0.7071 0.7071 0.7071 19.2887 309.6755)" class="st6" cx="383.5" cy="131.6" rx="11.5" ry="11.5"/>
			<path class="st1" d="M350,181.7c0-3.1-2.5-5.6-5.6-5.6c-3.1,0-5.6,2.5-5.6,5.6c0,3.1,2.5,5.6,5.6,5.6
				C347.5,187.3,350,184.8,350,181.7z"/>
			<polygon class="st4" points="345.7,191.5 361.8,181.7 348.3,170.6 			"/>
			
				<rect x="364.7" y="125.7" transform="matrix(-1 -1.224647e-16 1.224647e-16 -1 732.606 321.2792)" class="st1" width="3.2" height="69.8"/>
			
				<rect x="334.5" y="125.7" transform="matrix(-1 -1.224647e-16 1.224647e-16 -1 673.0118 318.1918)" class="st0" width="4.1" height="66.7"/>
			
				<rect x="371.5" y="171.9" transform="matrix(-1 -1.224647e-16 1.224647e-16 -1 763.7946 364.646)" class="st0" width="20.9" height="20.9"/>
		</g>
		<g>
			<path class="st0" d="M132.9,338.6l-13.2-38.1c0,0,18.3,13.6,18.2-1.5c-0.1-15.1-8.4-3.4-11.2-8.9s8.1-5.5,4.3-13.9
				c-3.9-8.4-14.8,4.5-16.8-3c-1.9-7.5-5-11.3-13-10.6c0,0-4.3,9.8,1,16.9c5.3,7.1-13.1,1.4-11.2,8.6c1.9,7.2,8,13.4,10.7,8.4
				c2.7-5,6.1,4.6,1.5,7.1c-4.6,2.5,6,13.3,8.4,7.6c2.3-5.6,6-10.7,6-10.7l12.2,40.8L132.9,338.6z"/>
			<path class="st2" d="M146.5,338.9l14.9-24.4c0,0-14.7,6.6-12.4-3.8c2.4-10.4,6.3-1.1,9.1-4.5c2.8-3.4-4.8-5-0.9-10.3
				c3.9-5.3,9.6,5.4,12,0.5c2.5-4.9,5.2-7,10.6-5.4c0,0,1.5,7.5-3.2,11.6c-4.7,4.1,8.8,3,6.5,7.6c-2.4,4.7-7.6,8.1-8.7,4.2
				c-1.1-3.9-4.9,2.3-2.1,4.7c2.8,2.4-6.2,8.3-6.9,4c-0.8-4.3-2.5-8.3-2.5-8.3l-14.6,26.4L146.5,338.9z"/>
			<path class="st4" d="M136.5,339.1l6.8-39.3c0,0-15.7,16.2-18,1.5c-2.3-14.7,7.6-4.6,9.5-10.5c1.9-5.9-8.8-4.1-6.4-12.9
				c2.4-8.8,15.2,2.1,15.9-5.5c0.7-7.6,3.1-11.8,11-12.4c0,0,5.8,8.9,1.7,16.7c-4,7.8,13-0.7,12.3,6.6c-0.7,7.3-5.7,14.3-9.1,9.9
				c-3.4-4.5-5.2,5.5-0.3,7.2c4.9,1.7-3.8,13.9-7,8.8c-3.2-5.1-7.6-9.4-7.6-9.4l-5.4,41.7L136.5,339.1z"/>
			<g>
				<path class="st0" d="M128,383.3h23.4c1.6,0,3-1.3,3.1-2.9L157,340c0.1-1.8-1.3-3.3-3.1-3.3h-28.4c-1.8,0-3.2,1.5-3.1,3.3
					l2.5,40.4C125,382,126.4,383.3,128,383.3z"/>
				<path class="st4" d="M122.8,341.2H157c1.6,0,2.9-1.2,3.1-2.7v0c0.2-1.8-1.2-3.5-3.1-3.5h-34.3c-1.9,0-3.3,1.6-3.1,3.5v0
					C119.9,340,121.2,341.2,122.8,341.2z"/>
			</g>
		</g>
	</g>
</g>
<g id="Background_Simple" class="st7">
	<g class="st8">
		<path class="st9" d="M206.6,76c43.5,4.7,72.2,38.9,86.4,78c9.8,26.9,6.7,63.4,33.9,80.6c13.2,8.4,29.1,5.7,43.8,8.2
			c44.1,7.6,56.3,55.8,37.6,92.4c-22,43.1-80.4,58.5-119.9,30.2c-13.8-9.9-24.6-23.4-33.3-37.9c-16.1-26.9-25.9-43.7-60.5-37.1
			c-37.8,7.2-75.6-2-97.2-36.4c-19.2-30.7-23-69.6-10.1-103.5C105.5,102,154.8,70.4,206.6,76z"/>
		<path class="st10" d="M206.6,76c43.5,4.7,72.2,38.9,86.4,78c9.8,26.9,6.7,63.4,33.9,80.6c13.2,8.4,29.1,5.7,43.8,8.2
			c44.1,7.6,56.3,55.8,37.6,92.4c-22,43.1-80.4,58.5-119.9,30.2c-13.8-9.9-24.6-23.4-33.3-37.9c-16.1-26.9-25.9-43.7-60.5-37.1
			c-37.8,7.2-75.6-2-97.2-36.4c-19.2-30.7-23-69.6-10.1-103.5C105.5,102,154.8,70.4,206.6,76z"/>
	</g>
</g>
<g id="Shadow_1_">
	<ellipse id="_x3C_Path_x3E__359_" class="st4" cx="250" cy="416.2" rx="193.9" ry="11.3"/>
</g>
<g id="Device">
	<g>
		<path class="st11" d="M356.3,119.6v281.5c0,2.5-2,4.4-4.5,4.4H200.6c-2.3,0-4-1.8-4-4V119.3c0-2,1.4-3.7,3.4-3.7H236
			c1.1,0,2.1,0.7,2.6,1.8l1.6,4c0.4,1,1.4,1.8,2.6,1.8h67.6c1.1,0,2.1-0.7,2.6-1.7l1.6-4.1c0.4-1.1,1.4-1.8,2.6-1.8h35.3
			C354.6,115.6,356.3,117.5,356.3,119.6z"/>
		<rect x="196.6" y="134.4" class="st9" width="159.7" height="251.2"/>
		<rect x="196.6" y="134.4" class="st12" width="159.7" height="251.2"/>
		<g>
			
				<rect x="215.5" y="124.9" transform="matrix(-1 -1.224647e-16 1.224647e-16 -1 433.0902 252.6318)" class="st13" width="2.1" height="2.8"/>
			
				<rect x="212.1" y="124" transform="matrix(-1 -1.224647e-16 1.224647e-16 -1 426.355 251.7128)" class="st13" width="2.1" height="3.7"/>
			
				<rect x="208.8" y="123.1" transform="matrix(-1 -1.224647e-16 1.224647e-16 -1 419.6199 250.7939)" class="st13" width="2.1" height="4.6"/>
			
				<rect x="205.4" y="122.2" transform="matrix(-1 -1.224647e-16 1.224647e-16 -1 412.8847 249.8748)" class="st13" width="2.1" height="5.5"/>
		</g>
		<g>
			<rect x="336.6" y="123.9" class="st13" width="1.2" height="2.8"/>
			
				<rect x="338.7" y="122.9" transform="matrix(-1 -1.224647e-16 1.224647e-16 -1 687.1018 250.6212)" class="st13" width="9.8" height="4.8"/>
		</g>
		<g>
			<path class="st9" d="M253.8,168.1c0,4.3-1.1,8.3-3,11.7c-0.1,0.3-0.3,0.5-0.4,0.8c-1.4,2.4-3.3,4.5-5.4,6.2c0,0-0.1,0.1-0.1,0.1
				c-2,1.6-4.3,2.9-6.8,3.8c0,0,0,0,0,0c-2.6,1-5.4,1.5-8.3,1.5c-0.9,0-1.8,0-2.7-0.2c-1.5-0.2-3-0.5-4.4-0.9
				c-3.5-1.1-6.7-3-9.4-5.5c0,0,0,0,0,0c-4.7-4.4-7.6-10.6-7.6-17.5c0-13.3,10.8-24.1,24.1-24.1C243,144,253.8,154.8,253.8,168.1z"
				/>
			<path class="st11" d="M250.7,179.9c-0.1,0.3-0.3,0.5-0.4,0.8c-5.6-0.2-11.4,0.7-16.4,1.9c-0.6,0.1-1.2,0.3-1.8,0.4
				c-0.4,0.1-0.8,0.2-1.2,0.3c-1.5,0.4-3,0.8-4.2,1.2c-0.2,0.1-0.4,0.1-0.6,0.2c-0.1,0-0.3,0.1-0.4,0.1h0c-1.5,0.5-2.8,1-3.7,1.3
				c-1.4,0.5-2.3,0.9-2.3,0.9s-0.5-0.7-1.3-1.9c0,0,0-0.1-0.1-0.1c0,0,0,0,0,0c-2.2-3.6-6-12-4.2-24c2-13.3,13.1-12.5,17-11.8
				c0.9,0.2,1.4,0.3,1.4,0.3s12.4,2.9,12.9,10.6c0.1,1,0.2,2,0.4,3.1C246.8,169.6,249.8,177.4,250.7,179.9z"/>
			<path class="st9" d="M238,190.8C238,190.8,238,190.8,238,190.8c-2.6,1-5.4,1.5-8.3,1.5c-0.9,0-1.8,0-2.7-0.2
				c-1.5-0.2-3-0.5-4.4-0.9l-0.8-6.3l-0.4-3l16.5,2.3l0,1.4l0,4.1v0.3L238,190.8z"/>
			<g>
				<path class="st11" d="M244.8,186.9c-2,1.6-4.3,2.9-6.8,3.8c0,0,0,0,0,0c-2.6,1-5.4,1.5-8.3,1.5c-0.9,0-1.8,0-2.7-0.2
					c-1.5-0.2-3-0.5-4.4-0.9c-3.5-1.1-6.7-3-9.4-5.5c0,0,0,0,0,0c0.8-0.1,1.5-0.2,2.3-0.3l0.2,0c0.9-0.1,1.8-0.2,2.7-0.3
					c1.1-0.1,2.1-0.2,3.2-0.2c0.1,0,0.1,0,0.2,0c0.4,0,0.9,0,1.3,0c0.5,0,1.1,0,1.6,0c0.3,0,0.7,0,1,0h0.8c2,0,4.1,0.1,6.1,0.2
					c0.7,0,1.4,0.1,2.1,0.2c0.4,0,0.7,0.1,1.1,0.1c0.5,0.1,1.1,0.2,1.6,0.2c0.1,0,0.2,0,0.3,0l0.2,0h0c0.6,0.1,1.2,0.2,1.9,0.3
					c0.3,0,0.6,0.1,0.9,0.2c0.2,0,0.4,0.1,0.6,0.1c0.2,0,0.4,0.1,0.6,0.1c0.3,0.1,0.7,0.1,1,0.2c0.2,0,0.5,0.1,0.7,0.1
					C244,186.8,244.4,186.9,244.8,186.9z"/>
			</g>
			<path class="st14" d="M233.8,191c-6.9-1.2-8.8-4.2-8.8-4.2c2.9-2.5,2.6-6.5,2-9c-0.3-1.4-0.8-2.3-0.8-2.3l8.3,1.9
				c-0.3,1.4-0.4,2.5-0.5,3.5c-0.1,1.1,0,1.9,0.1,2.6c0.5,2.5,1.9,2.6,1.9,2.6C237.3,188.9,233.8,191,233.8,191z"/>
			<path class="st15" d="M233.9,180.9c-0.1,1.1,0,1.9,0.1,2.6c-3.3-0.6-5.7-3.3-7.2-5.7c-0.3-1.4-0.8-2.3-0.8-2.3l8.3,1.9
				C234.1,178.8,234,180,233.9,180.9z"/>
			<g>
				<g>
					<path class="st14" d="M232.8,153.8c7.8,0.3,10.1,4.6,10.4,12.7c0.3,10.1-2.3,17.1-11.9,14.6
						C218.1,177.6,219.9,153.3,232.8,153.8z"/>
					<path class="st16" d="M238.2,165.9c0,0,1,2.1,2.1,3.3c0,0-0.7,1-2.1,0.8L238.2,165.9z"/>
					<path class="st17" d="M233.6,159.6c0,0-2.2-0.4-3.4,1"/>
					<path class="st17" d="M239.3,159.5c0,0,1.4-0.5,3.1,0.8"/>
					<path class="st11" d="M223.7,166.6c0,0,3.9-6.3,3.6-11.2c0,0,15.7-5.7,15.8,10.1c0,0,2.1-13.9-11.3-14.8
						c-13.4-0.9-14.2,18.8-7.5,24.9C224.3,175.6,221.3,170.5,223.7,166.6z"/>
					<path class="st14" d="M224.9,168.3c0-1.3-1.2-3.4-3.6-3.3c-2.4,0.2-3.8,5.1,2.2,6.5C224.4,171.8,224.9,170.9,224.9,168.3z"/>
					<g>
						<path class="st11" d="M238.4,172.3c-0.6,0.8-1.4,2.5-1.4,2.5c-0.2,0-0.3-0.1-0.5-0.1c-2.2-0.7-3-1.7-3.2-2.6
							c-0.1-0.5-0.1-1,0-1.4c0.1-0.4,0.3-0.7,0.3-0.7c0.9,1,2.9,1.8,4,2.2C238.1,172.2,238.4,172.3,238.4,172.3z"/>
						<path class="st5" d="M237.6,172.1l-0.4,0.7c-2.1-0.6-3.4-1.4-3.9-2.2c0.1-0.4,0.3-0.7,0.3-0.7
							C234.5,170.9,236.5,171.7,237.6,172.1z"/>
						<path class="st16" d="M236.4,174.6c-2.2-0.7-3-1.7-3.2-2.6c0.7,0.3,1.6,0.6,2.3,1.2C236.1,173.7,236.3,174.2,236.4,174.6z"/>
					</g>
					<path class="st11" d="M232.6,154.4c0,0-3.7,12.7-11.8,12.2c-8.1-0.5,5.1-16.2,5.1-16.2s13.4-4.4,19.6,2.9
						c6.2,7.3-2.4,12.2-2.4,12.2S244.1,155.5,232.6,154.4z"/>
					<path class="st18" d="M232.6,153.5c0,0,0.6,8.8-6,11.6"/>
					<g>
						<path class="st11" d="M233.6,165.4c0.1,0.6-0.2,1.1-0.6,1.2c-0.4,0-0.8-0.4-0.9-1c-0.1-0.6,0.2-1.1,0.6-1.2
							C233.1,164.4,233.5,164.8,233.6,165.4z"/>
						<path class="st11" d="M232.5,164.5l1.3-0.7C233.8,163.8,233.3,165,232.5,164.5z"/>
					</g>
					<g>
						<path class="st11" d="M241.1,164.4c0.1,0.6-0.2,1.1-0.6,1.2c-0.4,0-0.8-0.4-0.9-1c-0.1-0.6,0.2-1.1,0.6-1.2
							C240.6,163.3,241,163.8,241.1,164.4z"/>
						<path class="st11" d="M240,163.4l1.3-0.7C241.3,162.8,240.8,164,240,163.4z"/>
					</g>
				</g>
			</g>
			<g>
				<path class="st9" d="M244.9,186.8c0,0-0.1,0.1-0.1,0.1c-2,1.6-4.3,2.9-6.8,3.8c0,0,0,0,0,0l0-0.7l0-0.3l0,0l-1.3-2.7l0.7-1.6
					l0.6-1.3l0.6,1.3L244.9,186.8z"/>
				<path class="st13" d="M244.9,186.8c0,0-0.1,0.1-0.1,0.1c-2,1.6-4.3,2.9-6.8,3.8c0,0,0,0,0,0l0-0.7l0-0.3l0,0l-1.3-2.7l0.7-1.6
					l0.6-1.3l0.6,1.3L244.9,186.8z"/>
			</g>
			<g>
				<path class="st9" d="M229.9,186.9l-2.7,3.4l-0.1,1.8c-1.5-0.2-3-0.5-4.4-0.9c-3.5-1.1-6.7-3-9.4-5.5l2.3-0.3l0.2,0l4.8-0.7
					l1-2.8l4.9,2.9L229.9,186.9L229.9,186.9z"/>
				<path class="st13" d="M229.9,186.9l-2.7,3.4l-0.1,1.8c-1.5-0.2-3-0.5-4.4-0.9c-3.5-1.1-6.7-3-9.4-5.5l2.5-0.3l4.8-0.7v0l1-2.8
					l4.9,2.9L229.9,186.9z"/>
			</g>
		</g>
		<g>
			<path class="st5" d="M255.4,188.5c0,3.6-2.9,6.5-6.5,6.5c-3.6,0-6.5-2.9-6.5-6.5c0-3.6,2.9-6.5,6.5-6.5
				C252.5,182,255.4,184.9,255.4,188.5z"/>
			<path class="st11" d="M254.5,188.5c0,3.1-2.5,5.6-5.6,5.6c-3.1,0-5.6-2.5-5.6-5.6c0-3.1,2.5-5.6,5.6-5.6
				C252,182.9,254.5,185.4,254.5,188.5z"/>
			<polyline class="st19" points="246,188.4 248.6,190.7 251.8,186.4 			"/>
		</g>
		<g>
			<path class="st11" d="M268.6,159.3h52.6c0.6,0,1.1-0.5,1.1-1.1c0-0.6-0.5-1.1-1.1-1.1h-52.6c-0.6,0-1.1,0.5-1.1,1.1
				C267.5,158.8,268,159.3,268.6,159.3z"/>
			<path class="st11" d="M333.1,163.5h-64.8c-0.5,0-0.8,0.4-0.8,0.8c0,0.5,0.4,0.8,0.8,0.8h64.8c0.5,0,0.8-0.4,0.8-0.8
				C333.9,163.8,333.6,163.5,333.1,163.5z"/>
			<path class="st11" d="M314.1,168.2h-45.8c-0.5,0-0.8,0.4-0.8,0.8c0,0.5,0.4,0.8,0.8,0.8h45.8c0.5,0,0.8-0.4,0.8-0.8
				C314.9,168.6,314.5,168.2,314.1,168.2z"/>
		</g>
		<rect x="198.5" y="198.8" class="st9" width="155.9" height="155.9"/>
		<polygon class="st9" points="349.4,371.5 345,367.8 340.6,371.5 340.6,361.1 349.4,361.1 		"/>
		<path class="st9" d="M333.6,361.1h-6.6c-0.9,0-1.6,0.7-1.6,1.6v4.5c0,0.9,0.7,1.6,1.6,1.6h2.2v2.6l1.7-2.6h2.7
			c0.9,0,1.6-0.7,1.6-1.6v-4.5C335.2,361.9,334.5,361.1,333.6,361.1z"/>
		<path class="st9" d="M320.3,362.4c-1.2-2-3.6-1.3-4.8,0.3c-1.2-1.6-3.6-2.3-4.8-0.4c-2.1,3.4,2.2,6.5,4.2,7.8
			c0.2,0.1,0.4,0.3,0.6,0.4c0.2-0.1,0.3-0.2,0.6-0.3C318,368.9,322.3,365.7,320.3,362.4z"/>
		<g class="st20">
			<polygon class="st12" points="322.6,211.9 328.5,211.9 325.6,219.6 			"/>
			<polygon class="st12" points="341.6,250 343.4,255.6 335.2,255.1 			"/>
			<polygon class="st5" points="339.3,225.3 336.5,232.2 345,235.2 345,229.6 			"/>
			<polygon class="st5" points="229,210.1 233.3,210.1 229,215.7 			"/>
			<polygon class="st5" points="212.7,238 217.6,236.9 219,241.1 213.3,243.1 			"/>
			<circle class="st5" cx="262.3" cy="213.8" r="1.9"/>
			<path class="st5" d="M234.4,341.9c0,2.1-1.7,3.8-3.8,3.8c-2.1,0-3.8-1.7-3.8-3.8c0-2.1,1.7-3.8,3.8-3.8
				C232.7,338.1,234.4,339.8,234.4,341.9z"/>
			<polygon class="st5" points="216.2,309 217.6,311.4 210.8,314.3 209.3,312.7 			"/>
			<polygon class="st5" points="260.4,347.8 259,344.4 264.2,344.4 			"/>
			<polygon class="st5" points="315.1,344.4 315.5,340.7 322.5,342.6 322.5,348 			"/>
			<polygon class="st5" points="330.2,325.2 336.5,325.2 333.4,328.9 			"/>
			<polygon class="st5" points="340.6,286.8 339.3,294.7 340.8,296.1 342.1,286.8 			"/>
			<polygon class="st5" points="205.2,263.6 210.8,267.7 206.8,270.6 			"/>
			<circle class="st5" cx="230" cy="230.9" r="0.6"/>
			<circle class="st5" cx="311" cy="223.1" r="0.9"/>
			<path class="st5" d="M287.4,343.7c0,0.4-0.3,0.7-0.7,0.7c-0.4,0-0.7-0.3-0.7-0.7c0-0.4,0.3-0.7,0.7-0.7
				C287.1,343,287.4,343.3,287.4,343.7z"/>
			<polygon class="st5" points="295.7,206.6 302.7,205.6 302.7,209 295.7,210.1 			"/>
			<polygon class="st5" points="342.1,210.1 344.4,210.1 343.3,212.9 			"/>
			<polygon class="st5" points="209.3,213.8 212.7,213.8 211,215.7 			"/>
			<polygon class="st5" points="338.5,347.8 338.2,341.2 343.3,343 			"/>
			<polygon class="st5" points="343.4,310 340.8,307.9 340.8,310 343.4,311.6 			"/>
			<polygon class="st5" points="208,288.9 211,291.4 209.5,293.7 205.6,290.5 			"/>
			<polygon class="st5" points="205.6,230.2 209.3,230.2 205.2,231.5 			"/>
		</g>
	</g>
</g>
<g id="Checkmark">
	<g>
		<g>
			<polygon class="st9" points="270.1,224.2 276.8,217.9 283.4,224.3 291.4,219.9 296.3,227.7 305.1,225.4 307.9,234.1 317.1,234.1 
				317.6,243.3 326.4,245.6 324.6,254.6 332.7,259 328.7,267.2 335.4,273.5 329.5,280.5 334.4,288.3 326.9,293.6 329.7,302.3 
				321.2,305.6 321.8,314.8 312.6,315.8 310.9,324.9 301.8,323.6 297.9,331.9 289.4,328.5 283.6,335.5 276.2,330.1 268.8,335.5 
				263,328.3 254.5,331.7 250.7,323.4 241.6,324.5 239.9,315.5 230.8,314.3 231.5,305.2 223,301.8 225.9,293.1 218.5,287.7 
				223.5,280 217.6,273 224.4,266.7 220.4,258.4 228.5,254.1 226.8,245.1 235.7,242.9 236.3,233.7 245.5,233.8 248.3,225.1 
				257.2,227.5 262.1,219.7 			"/>
			<path class="st21" d="M330.5,282.5l5.9-7l-6.7-6.3l4-8.3l-8-4.4l1.8-9l-8.9-2.3l-0.5-9.2l-9.2,0l-2.7-8.8l-8.9,2.3l-4.8-7.8
				l-8,4.4l-6.6-6.4l-6.7,6.3l-8-4.5l-4.9,7.8l-8.9-2.4l-2.8,8.7l-9.2-0.1l-0.6,9.2l-8.9,2.2l1.7,9l-8.1,4.3l3.9,8.3l-6.8,6.2
				l5.9,7.1l-5,7.7l7.4,5.4l-2.9,8.7l8.5,3.4l-0.7,9.2l9.1,1.1l1.6,9l9.1-1.2l3.8,8.3l8.5-3.4l5.8,7.1l7.4-5.4l7.4,5.5l5.8-7.1
				l8.5,3.5l3.9-8.3l9.1,1.2l1.7-9l9.1-1.1l-0.6-9.2l8.6-3.3l-2.8-8.7l7.5-5.3L330.5,282.5z M328.6,289l-6.6,4.7l2.5,7.7l-7.6,2.9
				l0.5,8.1l-8.1,0.9l-1.5,8l-8-1.1l-3.4,7.3l-7.5-3.1l-5.2,6.2l-6.5-4.8l-6.6,4.8l-5.1-6.3l-7.5,3l-3.4-7.4l-8,1l-1.4-8l-8-1
				l0.6-8.1l-7.5-3l2.6-7.7l-6.6-4.8l4.4-6.8l-5.2-6.2l6-5.5l-3.5-7.3l7.1-3.8l-1.5-8l7.9-1.9l0.5-8.1l8.1,0.1l2.5-7.7l7.8,2.1
				l4.3-6.8l7.1,4l5.9-5.6l5.9,5.6l7.1-3.9l4.3,6.9l7.9-2l2.4,7.7l8.1,0l0.4,8.1l7.9,2l-1.6,7.9l7.1,3.9l-3.5,7.3l5.9,5.5l-5.2,6.2
				L328.6,289z"/>
			<polygon class="st21" points="270.1,224.2 276.8,217.9 283.4,224.3 291.4,219.9 296.3,227.7 305.1,225.4 307.9,234.1 
				317.1,234.1 317.6,243.3 326.4,245.6 324.6,254.6 332.7,259 328.7,267.2 335.4,273.5 329.5,280.5 334.4,288.3 326.9,293.6 
				329.7,302.3 321.2,305.6 321.8,314.8 312.6,315.8 310.9,324.9 301.8,323.6 297.9,331.9 289.4,328.5 283.6,335.5 276.2,330.1 
				268.8,335.5 263,328.3 254.5,331.7 250.7,323.4 241.6,324.5 239.9,315.5 230.8,314.3 231.5,305.2 223,301.8 225.9,293.1 
				218.5,287.7 223.5,280 217.6,273 224.4,266.7 220.4,258.4 228.5,254.1 226.8,245.1 235.7,242.9 236.3,233.7 245.5,233.8 
				248.3,225.1 257.2,227.5 262.1,219.7 			"/>
			<path class="st9" d="M329.5,280.5l5.9-7l-6.7-6.3l4-8.3l-8-4.4l1.8-9l-8.9-2.3l-0.5-9.2l-9.2,0l-2.7-8.8l-8.9,2.3l-4.8-7.8
				l-8,4.4l-6.6-6.4l-6.7,6.3l-8-4.5l-4.9,7.8l-8.9-2.4l-2.8,8.7l-9.2-0.1l-0.6,9.2l-8.9,2.2l1.7,9l-8.1,4.3l3.9,8.3l-6.8,6.2
				l5.9,7.1l-5,7.7l7.4,5.4l-2.9,8.7l8.5,3.4l-0.7,9.2l9.1,1.1l1.6,9l9.1-1.2l3.8,8.3l8.5-3.4l5.8,7.1l7.4-5.4l7.4,5.5l5.8-7.1
				l8.5,3.5l3.9-8.3l9.1,1.2l1.7-9l9.1-1.1l-0.6-9.2l8.6-3.3l-2.8-8.7l7.5-5.3L329.5,280.5z M327.6,287l-6.6,4.7l2.5,7.7l-7.6,2.9
				l0.5,8.1l-8.1,0.9l-1.5,8l-8-1.1l-3.4,7.3l-7.5-3.1l-5.2,6.2l-6.5-4.8l-6.6,4.8l-5.1-6.3l-7.5,3l-3.4-7.4l-8,1l-1.4-8l-8-1
				l0.6-8.1l-7.5-3l2.6-7.7l-6.6-4.8l4.4-6.8l-5.2-6.2l6-5.5l-3.5-7.3l7.1-3.8l-1.5-8l7.9-1.9l0.5-8.1l8.1,0.1l2.5-7.7l7.8,2.1
				l4.3-6.8l7.1,4l5.9-5.6l5.9,5.6l7.1-3.9l4.3,6.9l7.9-2l2.4,7.7l8.1,0l0.4,8.1l7.9,2l-1.6,7.9l7.1,3.9l-3.5,7.3l5.9,5.5l-5.2,6.2
				L327.6,287z"/>
			<path class="st13" d="M329.5,280.5l5.9-7l-6.7-6.3l4-8.3l-8-4.4l1.8-9l-8.9-2.3l-0.5-9.2l-9.2,0l-2.7-8.8l-8.9,2.3l-4.8-7.8
				l-8,4.4l-6.6-6.4l-6.7,6.3l-8-4.5l-4.9,7.8l-8.9-2.4l-2.8,8.7l-9.2-0.1l-0.6,9.2l-8.9,2.2l1.7,9l-8.1,4.3l3.9,8.3l-6.8,6.2
				l5.9,7.1l-5,7.7l7.4,5.4l-2.9,8.7l8.5,3.4l-0.7,9.2l9.1,1.1l1.6,9l9.1-1.2l3.8,8.3l8.5-3.4l5.8,7.1l7.4-5.4l7.4,5.5l5.8-7.1
				l8.5,3.5l3.9-8.3l9.1,1.2l1.7-9l9.1-1.1l-0.6-9.2l8.6-3.3l-2.8-8.7l7.5-5.3L329.5,280.5z M327.6,287l-6.6,4.7l2.5,7.7l-7.6,2.9
				l0.5,8.1l-8.1,0.9l-1.5,8l-8-1.1l-3.4,7.3l-7.5-3.1l-5.2,6.2l-6.5-4.8l-6.6,4.8l-5.1-6.3l-7.5,3l-3.4-7.4l-8,1l-1.4-8l-8-1
				l0.6-8.1l-7.5-3l2.6-7.7l-6.6-4.8l4.4-6.8l-5.2-6.2l6-5.5l-3.5-7.3l7.1-3.8l-1.5-8l7.9-1.9l0.5-8.1l8.1,0.1l2.5-7.7l7.8,2.1
				l4.3-6.8l7.1,4l5.9-5.6l5.9,5.6l7.1-3.9l4.3,6.9l7.9-2l2.4,7.7l8.1,0l0.4,8.1l7.9,2l-1.6,7.9l7.1,3.9l-3.5,7.3l5.9,5.5l-5.2,6.2
				L327.6,287z"/>
			<path class="st21" d="M247.1,273.8c0,0,5.1-0.9,7.6,0c2.5,0.9,13.1,19,13.1,19s20.6-28.3,37.1-40.7c0,0-21.4,19.1-33.8,51.3
				c0,0-4.2,1.8-7.1-1.4c-0.9-1-10.4-17.3-12.3-17.9c-1.5-0.5-6.1-0.2-6.1-0.2L247.1,273.8z"/>
			<path class="st5" d="M246.1,272.8c0,0,5.1-0.9,7.6,0c2.5,0.9,13.1,19,13.1,19s20.6-28.3,37.1-40.7c0,0-21.4,19.1-33.8,51.3
				c0,0-4.2,1.8-7.1-1.4c-0.9-1-10.4-17.3-12.3-17.9c-1.5-0.5-6.1-0.2-6.1-0.2L246.1,272.8z"/>
		</g>
	</g>
</g>
<g id="Plant">
	<g>
		<path class="st9" d="M388.1,388.6c0,0-5.8-12.7,0.8-25.2s8.6-15.5,4.3-18c-4.2-2.6-6.2,10-6.2,10s-3.6-8.7-0.6-17.7
			c3-9.1,4.8-23.8,0.8-25.4c-4-1.6-0.8,18.4-4.3,25.2c0,0-2.9-7.6-3.4-14.9c-0.5-7.3,0.3-18.9-2.9-21.9c-3.2-3-5.2-0.9-2.1,15.1
			c3.1,16.1,3.1,29.1,3.1,29.1s-6.9-21.1-11.6-21.7c-4.6-0.6-4.6,6.2-0.7,12.1c4,5.9,11.6,16.5,12.9,22c0,0-7.6-15.9-14.4-11
			c-6.8,4.9,5.9,14.4,11.6,17.9c5.7,3.5,9.6,25.2,9.6,25.2L388.1,388.6z"/>
		<path class="st15" d="M388.1,388.6c0,0-5.8-12.7,0.8-25.2s8.6-15.5,4.3-18c-4.2-2.6-6.2,10-6.2,10s-3.6-8.7-0.6-17.7
			c3-9.1,4.8-23.8,0.8-25.4c-4-1.6-0.8,18.4-4.3,25.2c0,0-2.9-7.6-3.4-14.9c-0.5-7.3,0.3-18.9-2.9-21.9c-3.2-3-5.2-0.9-2.1,15.1
			c3.1,16.1,3.1,29.1,3.1,29.1s-6.9-21.1-11.6-21.7c-4.6-0.6-4.6,6.2-0.7,12.1c4,5.9,11.6,16.5,12.9,22c0,0-7.6-15.9-14.4-11
			c-6.8,4.9,5.9,14.4,11.6,17.9c5.7,3.5,9.6,25.2,9.6,25.2L388.1,388.6z"/>
		<path class="st9" d="M383.5,393.8c0,0,5.7-12.8-1.1-25.2c-6.8-12.4-8.8-15.4-4.6-18c4.2-2.6,6.3,9.9,6.3,9.9s3.5-8.7,0.4-17.7
			c-3.1-9-5.1-23.8-1.1-25.4c4-1.6,1,18.4,4.6,25.2c0,0,2.8-7.6,3.2-14.9c0.4-7.3-0.5-18.9,2.7-21.9c3.1-3,5.2-1,2.3,15.1
			c-2.9,16.1-2.8,29.2-2.8,29.2s6.7-21.2,11.3-21.9c4.6-0.7,4.7,6.1,0.8,12.1c-3.9,6-11.4,16.7-12.6,22.2c0,0,7.4-16,14.3-11.2
			c6.9,4.8-5.8,14.5-11.4,18.1c-5.6,3.5-9.3,25.3-9.3,25.3L383.5,393.8z"/>
		<g>
			<polygon class="st11" points="409.6,384.6 362.8,384.6 366.6,418.2 405.8,418.2 			"/>
		</g>
	</g>
</g>
<g id="Character">
	<g>
		<path class="st11" d="M99.2,395.4l28.8-2.8v-35.5h11.4v35.5l28.9,2.8c2.9,0.3,5.1,2.7,5.1,5.6v4.3h-38.6h-2.1H94.1V401
			C94.1,398.1,96.3,395.7,99.2,395.4z"/>
		<path class="st22" d="M99.2,395.4l28.8-2.8v-35.5h11.4v35.5l28.9,2.8c2.9,0.3,5.1,2.7,5.1,5.6v4.3h-38.6h-2.1H94.1V401
			C94.1,398.1,96.3,395.7,99.2,395.4z"/>
		
			<ellipse transform="matrix(0.9871 -0.1602 0.1602 0.9871 -63.5894 32.5867)" class="st11" cx="170.3" cy="410.7" rx="7.5" ry="7.5"/>
		
			<ellipse transform="matrix(0.1602 -0.9871 0.9871 0.1602 -323.8274 440.8124)" class="st11" cx="97.1" cy="410.7" rx="7.5" ry="7.5"/>
		<path class="st11" d="M130.1,365.8h7.1c2.3,0,4.1-1.9,4.1-4.1v-31.9H126v31.9C126,364,127.9,365.8,130.1,365.8z"/>
		<path class="st23" d="M130.1,365.8h7.1c2.3,0,4.1-1.9,4.1-4.1v-31.9H126v31.9C126,364,127.9,365.8,130.1,365.8z"/>
		<path class="st11" d="M93.8,267.1c0,0,8.6,53.4,25.4,62.6h-17.2c0,0-17-18.2-22.1-62.6H93.8z"/>
		<path class="st22" d="M93.8,267.1c0,0,8.6,53.4,25.4,62.6h-17.2c0,0-17-18.2-22.1-62.6H93.8z"/>
		<path class="st9" d="M168.1,322.2h-66.9c-2.8,0-5,2.2-5,5v6.7h76.9v-6.7C173.1,324.4,170.9,322.2,168.1,322.2z"/>
		<g>
			<path class="st11" d="M174.3,328H95c-1.1,0-2,0.9-2,2v1.8c0,1.1,0.9,2,2,2h79.3c1.1,0,2-0.9,2-2v-1.8
				C176.4,328.9,175.5,328,174.3,328z"/>
			<path class="st13" d="M174.3,328H95c-1.1,0-2,0.9-2,2v1.8c0,1.1,0.9,2,2,2h79.3c1.1,0,2-0.9,2-2v-1.8
				C176.4,328.9,175.5,328,174.3,328z"/>
		</g>
		<path class="st9" d="M77.9,278h27.5c8.1,0,13.3-6.5,11.7-14.4l-2.1-10.6c-1.6-8-9.4-14.4-17.5-14.4H70c-8.1,0-13.3,6.5-11.7,14.4
			l2.1,10.6C62,271.5,69.9,278,77.9,278z"/>
	</g>
	<g>
		<polygon class="st9" points="103.8,225.3 121.3,225.3 122.9,235.8 107.4,238.5 		"/>
		<polygon class="st14" points="220.2,370.5 213.9,373 209.3,364.4 205.2,356.7 212.2,352.5 216.4,362 		"/>
		<polygon class="st15" points="216.4,362 209.3,364.4 205.2,356.7 212.2,352.5 		"/>
		<g>
			<path class="st9" d="M215.1,357.4l-8.6,4.6c0,0-32.3-56.8-37.3-56.4c-5,0.5-52.1,30.5-66.5,19.4c-14.4-11.1-0.4-44.5-0.4-44.5
				s28.1-10.7,31.3-4.1c0.6,1.3,3.1,6,3.8,8.2c0.6,2,1.1,3.8,1.1,3.8s0,0,0,0c0.9-0.4,30.3-12.4,43.4-6
				C195.3,288.9,215.1,357.4,215.1,357.4z"/>
			<path class="st24" d="M215.1,357.4l-8.6,4.6c0,0-32.3-56.8-37.3-56.4c-5,0.5-52.1,30.5-66.5,19.4c-14.4-11.1-0.4-44.5-0.4-44.5
				s28.1-10.7,31.3-4.1c0.6,1.3,3.1,6,3.8,8.2c0.6,2,1.1,3.8,1.1,3.8s0,0,0,0c0.9-0.4,30.3-12.4,43.4-6
				C195.3,288.9,215.1,357.4,215.1,357.4z"/>
		</g>
		<polygon class="st14" points="168.6,403.7 161.9,403 161.9,393.5 161.9,384.8 170,384.4 169.3,394.6 		"/>
		<polygon class="st15" points="169.2,394.9 161.9,393.7 161.9,384.9 170,384.5 		"/>
		<polygon class="st11" points="202.4,359.1 214.9,352.9 216.2,358.2 206.7,363.1 		"/>
		<g>
			<path class="st9" d="M125,325.1c0,0,2.1-0.2,33.7-6.1c0,0,0.7,40.4,2.2,70.6l9.7,0.3c0,0,14-66.9,12.3-77
				c-1.6-10.1-13.7-11.5-13.7-11.5S148.4,317.7,125,325.1z"/>
			<path class="st25" d="M125,325.1c0,0,2.1-0.2,33.7-6.1c0,0,0.7,40.4,2.2,70.6l9.7,0.3c0,0,14-66.9,12.3-77
				c-1.6-10.1-13.7-11.5-13.7-11.5S148.4,317.7,125,325.1z"/>
			<path class="st20" d="M125,325.1c0,0,2.1-0.2,33.7-6.1c0,0,0.7,40.4,2.2,70.6l9.7,0.3c0,0,14-66.9,12.3-77
				c-1.6-10.1-13.7-11.5-13.7-11.5S148.4,317.7,125,325.1z"/>
		</g>
		<polygon class="st11" points="159.1,386.9 172.4,386.6 170.5,392.1 159.8,392.2 		"/>
		<path class="st20" d="M138.6,288.3l-17.2,6.1c0,0,9.1-6.8,16.1-9.9C138.1,286.6,138.6,288.3,138.6,288.3z"/>
		<g>
			<g>
				<polygon class="st11" points="101.2,278.1 101,283.2 133.3,276.4 132.6,270.7 				"/>
				<polygon class="st15" points="101.2,278.1 101,283.2 133.3,276.4 132.6,270.7 				"/>
			</g>
			
				<rect x="110.2" y="275.1" transform="matrix(0.9832 -0.1824 0.1824 0.9832 -49.0612 24.9251)" class="st9" width="1.6" height="8.3"/>
			
				<rect x="118.6" y="273.6" transform="matrix(0.9755 -0.2199 0.2199 0.9755 -57.7721 33.6363)" class="st5" width="7.2" height="5.5"/>
			
				<rect x="129.8" y="270.2" transform="matrix(0.9832 -0.1823 0.1823 0.9832 -47.8359 28.4194)" class="st9" width="1.6" height="8.3"/>
			
				<rect x="110.2" y="275.1" transform="matrix(0.9832 -0.1824 0.1824 0.9832 -49.0612 24.9251)" class="st24" width="1.6" height="8.3"/>
			
				<rect x="129.8" y="270.2" transform="matrix(0.9832 -0.1823 0.1823 0.9832 -47.8359 28.4194)" class="st24" width="1.6" height="8.3"/>
		</g>
		<path class="st9" d="M232.7,381.7c-1.1-0.3-2.2-0.4-3.2-0.4l0,0c0,0-4.1-1.7-9-9.8l-4.2,0.6c-1.4,0.2-2.6,1.3-2.9,2.7
			c0,0.2-0.1,0.4,0,0.6c0.2,1,0.4,2,0.7,3c0.8,3.1,3.8,9.5,3.8,9.5l0.7-0.3l-2.1-6.1c-0.7-2.1,1.8-0.3,3.1,1.7
			c1.3,2,3.2,3.9,7.7,2.2C232.4,383.5,234.5,382.4,232.7,381.7z"/>
		<path class="st14" d="M219.4,369.4c0,0,6.7,10.2,10,11.9c0,0-3.7,3-8.6-1.8c-6.4-6.2-7.4-4.1-7.4-4.1s-0.1-2.4,0.2-3.6
			C214,369.4,219.4,369.4,219.4,369.4z"/>
		<path class="st9" d="M178.7,415.6c-0.9-0.6-2-0.9-3.1-1.1l0,0c0,0-3.5-2.6-6.4-11.6l-4.2-0.5c-1.5-0.1-2.8,0.7-3.5,2
			c-0.1,0.2-0.1,0.4-0.2,0.6c-0.1,1-0.1,2,0,3.1c0.1,3.2,1.4,10.1,1.4,10.1l0.7-0.1l-0.6-6.4c-0.2-2.2,1.8,0.1,2.6,2.4
			c0.8,2.3,2.2,4.6,6.9,4C178,417.3,180.3,416.8,178.7,415.6z"/>
		<path class="st14" d="M168.7,400.5c0,0,4.1,11.5,6.9,14c0,0-4.3,2-8-3.8c-4.7-7.5-6.3-5.7-6.3-5.7s0.5-2.4,1-3.5
			C163.4,399.3,168.7,400.5,168.7,400.5z"/>
		<path class="st11" d="M119.3,190c0,0-15.8-7.7-21,8.8c-5.2,16.5,1.5,27.9,1.5,27.9s18.3-4.7,33.7-1.4c0,0-3.3-14.1-2.5-22.2
			C131.7,195.1,119.3,190,119.3,190z"/>
		<g>
			<path class="st9" d="M131.6,227.4c3.5,0.2,18,19.7,18,19.7l5.4-7c0,0,8.3,16.2,4.2,23.9s-25.8-13.3-25.8-13.3L131.6,227.4z"/>
			<path class="st13" d="M131.6,227.4L133,243l0.4,7.6c0,0,3.6,3.5,8.1,7.1c6.6,5.3,15.3,10.9,17.7,6.3c4.1-7.7-4.2-23.9-4.2-23.9
				l-5.4,7l0-0.1C148.7,245.8,134.9,227.5,131.6,227.4z"/>
		</g>
		<path class="st15" d="M133,243l0.4,7.6c0,0,3.6,3.5,8.1,7.1c0.4-9.1-8.1-22.5-8.1-22.5L133,243z"/>
		<path class="st15" d="M149.6,247.1l-0.8,1.5l2.3,8.8c0,0-6.2-5.7-2.3-11.2L149.6,247.1z"/>
		<g>
			<path class="st11" d="M133.4,244.8c0,0.2,0,0.5,0,0.7c0,1.1,0,2.2-0.1,3.4c0,0.1,0,0.2,0,0.3c0,0.7,0,1.3-0.1,2
				c0,0.1,0,0.2,0,0.3c0,1-0.1,2-0.1,3c0,0.1,0,0.3,0,0.4c0,1.4-0.1,2.8-0.2,4.3c-0.2,3.4-0.3,7.1-0.6,11.3v0l-0.4,0.1l-30.6,7.2
				l-0.1,0c0,0,1.2-16.3-0.9-25.6c0-0.1,0-0.2-0.1-0.2c0-0.1-0.1-0.3-0.1-0.4c-0.1-0.3-0.1-0.5-0.2-0.8c-0.1-0.3-0.1-0.5-0.2-0.8
				c-0.3-1-0.6-2-0.9-3.1c-0.2-0.7-0.4-1.5-0.7-2.2c0-0.1-0.1-0.2-0.1-0.4c-0.3-0.9-0.6-1.8-0.9-2.8c-0.1-0.3-0.2-0.6-0.3-0.8
				c-0.4-1.4-0.9-2.8-1.4-4.3c-0.6-1.7-1.2-3.5-1.8-5.4c3.5-1.1,7.1-2,10.7-2.7c0.5-0.1,1-0.2,1.6-0.3c0.6-0.1,1.1-0.2,1.6-0.3
				c2.7-0.4,5.5-0.8,8.3-0.9c1.1-0.1,2.2-0.1,3.3-0.2c0.7,0,1.4,0,2.1,0h0.3c0.7,0,1.3,0,2,0.1c0.3,0,0.6,0,0.9,0c0.2,0,0.4,0,0.6,0
				c0.2,0,0.4,0,0.6,0c0.4,0,0.7,0,1,0.1c0.3,0,0.5,0,0.8,0.1c0.5,0,1,0.1,1.4,0.1c0.2,0,0.4,0,0.5,0.1c0.2,0,0.3,0,0.5,0
				c0.2,0,0.3,0,0.4,0c0.1,0,0.2,0,0.4,0c0.5,0,0.8,0.1,0.9,0.1c0,0,0,0,0,0c0,0,0,0,0.1,0.1l0.1,0.1c0,0.1,0.1,0.1,0.2,0.3
				c0.2,0.3,0.4,0.9,0.6,2.1c0,0.2,0.1,0.4,0.1,0.7c0.1,0.3,0.1,0.8,0.2,1.2c0.1,0.3,0.1,0.6,0.1,1c0,0.3,0.1,0.7,0.1,1
				C133.4,236.3,133.5,239.8,133.4,244.8z"/>
		</g>
		<path class="st14" d="M116.8,233.3c-7.3-0.9-9.5-4-9.5-4c3-2.8,2.4-6.9,1.7-9.5c-0.4-1.4-0.9-2.4-0.9-2.4l8.8,1.6
			c-0.2,1.4-0.3,2.7-0.3,3.7c0,1.1,0.1,2,0.2,2.7c0.6,2.6,2.1,2.7,2.1,2.7C120.4,230.9,116.8,233.3,116.8,233.3z"/>
		<path class="st15" d="M116.6,222.7c0,1.1,0.1,2,0.2,2.7c-3.5-0.5-6.1-3.2-7.8-5.7c-0.4-1.4-0.9-2.4-0.9-2.4l8.8,1.6
			C116.7,220.5,116.6,221.7,116.6,222.7z"/>
		<g>
			<g>
				<path class="st14" d="M118.9,194.4c8.1,1.6,9.8,6.5,8.7,14.9c-1.4,10.5-5.2,17.4-14.8,13.2C99.7,216.7,105.5,191.7,118.9,194.4z
					"/>
				<path class="st16" d="M122.4,207.8c0,0,0.7,2.3,1.7,3.8c0,0-0.9,1-2.3,0.5L122.4,207.8z"/>
				<path class="st17" d="M118.7,200.6c0,0-2.2-0.8-3.7,0.5"/>
				<path class="st17" d="M124.6,201.4c0,0,1.5-0.2,3.1,1.3"/>
				<path class="st11" d="M107.3,206.2c0,0,5.1-5.9,5.6-11.1c0,0,17.3-3.3,14.8,13.1c0,0,4.5-14.1-9.3-17.2
					c-13.8-3.1-17.9,17.1-11.9,24.6C106.4,215.7,104.1,209.9,107.3,206.2z"/>
				<path class="st14" d="M108.3,208.2c0.2-1.3-0.7-3.8-3.1-4c-2.6-0.2-4.8,4.6,1.2,7.1C107.2,211.7,107.8,210.9,108.3,208.2z"/>
				<g>
					<path class="st11" d="M121.6,214.6c-0.8,0.8-1.9,2.3-1.9,2.3c-0.2-0.1-0.3-0.1-0.5-0.2c-2.2-1.1-2.8-2.3-2.9-3.3
						c0-0.6,0.1-1.1,0.3-1.4c0.2-0.4,0.4-0.7,0.4-0.7c0.8,1.2,2.7,2.4,3.8,3C121.3,214.4,121.6,214.6,121.6,214.6z"/>
					<path class="st5" d="M120.8,214.2l-0.6,0.7c-2-1-3.3-2-3.7-2.9c0.2-0.4,0.4-0.7,0.4-0.7C117.8,212.5,119.8,213.6,120.8,214.2z"
						/>
					<path class="st16" d="M119.2,216.7c-2.2-1.1-2.8-2.3-2.9-3.3c0.7,0.4,1.5,0.9,2.2,1.7C119,215.6,119.1,216.2,119.2,216.7z"/>
				</g>
				<path class="st11" d="M118.6,195c0,0-6,12.6-14.3,10.7c-8.3-1.9,8-16,8-16s14.7-2.4,19.9,6.2c5.2,8.6-4.6,12.3-4.6,12.3
					S130.3,198.1,118.6,195z"/>
				<path class="st18" d="M118.7,194.1c0,0-0.9,9.3-8.1,11.1"/>
				<g>
					<path class="st11" d="M117.7,206.6c0,0.6-0.4,1.1-0.8,1.1s-0.8-0.5-0.7-1.2c0-0.6,0.4-1.1,0.8-1.1
						C117.4,205.4,117.7,206,117.7,206.6z"/>
					<path class="st11" d="M116.8,205.4l1.4-0.5C118.2,205,117.5,206.1,116.8,205.4z"/>
				</g>
				<g>
					<path class="st11" d="M125.7,206.8c0,0.6-0.4,1.1-0.8,1.1c-0.4,0-0.8-0.5-0.7-1.2c0-0.6,0.4-1.1,0.8-1.1
						C125.4,205.6,125.7,206.2,125.7,206.8z"/>
					<path class="st11" d="M124.8,205.6l1.4-0.5C126.2,205.1,125.4,206.3,124.8,205.6z"/>
				</g>
			</g>
		</g>
		<g>
			<path class="st11" d="M136.9,240.3c-0.1,0.5,0.3,0.8,0.8,0.8h8.4c0.5,0,0.9-0.4,0.9-0.8l1.9-16.5c0.1-0.5-0.3-1-0.8-1h-8.4
				c-0.5,0-0.9,0.5-0.9,1L136.9,240.3z"/>
			<path class="st26" d="M139.7,223.7l-1.9,16.7c-0.1,0.5,0.2,0.8,0.7,0.8h7.1c0.5,0,1.3-0.3,1.4-0.7l1.9-16.7
				c0.1-0.5-0.8-0.8-1.2-0.8h-7.1C140,222.8,139.7,223.2,139.7,223.7z"/>
		</g>
		<path class="st14" d="M154.4,241.7l-4.4-7.4c0,0,0-3.9-0.4-4.8c-0.4-0.9-4.7-3-5.5-2.7c-0.8,0.3-1.1,7.9-0.4,9
			c0.8,1,3.4,2.2,3.4,2.2l-0.2,1.4l2.5,7.7L154.4,241.7z"/>
		<polygon class="st9" points="156.2,240.8 154.7,239.4 147.8,247.1 148.8,250.1 		"/>
		<g>
			<path class="st9" d="M121.3,225.3l-0.9,3.2l1.8,2.6l3.9,36.6l10.7-1.6c-0.7-28.5-1-28.6-5.1-38.9l-9.6-0.7L121.3,225.3z"/>
			<path class="st13" d="M121.3,225.3l-0.9,3.2l1.8,2.6l3.9,36.6l10.7-1.6c-0.7-28.5-1-28.6-5.1-38.9l-9.6-0.7L121.3,225.3z"/>
		</g>
		<g>
			<path class="st9" d="M103.8,225.3l9.5,4l-2.3,4l2.3,37.4L98.9,275c0,0-10.5-27.5-5.1-43.8l9.5-2.7L103.8,225.3z"/>
			<path class="st13" d="M112.9,264.8l0.4,5.9l-6.4,1.9l-8,2.3c0,0-4.6-12.2-6.2-25.1c-0.8-6.5-0.8-13.2,1.1-18.7l9.5-2.7l0.6-3.1
				l9.5,4l-2.3,4l0.9,14.9L112.9,264.8z"/>
			<path class="st15" d="M121.4,253.1c0,0-3.6,5.2-8.5,11.7c-1.9,2.5-3.9,5.2-6.1,7.8l-8,2.3c0,0-4.6-12.2-6.2-25.1
				c3.9-3.9,8.7-8.7,8.7-8.7s2.2,6.8,1.2,12.7l9.3-5.7l2.9-1.8L121.4,253.1z"/>
		</g>
		<path class="st14" d="M113.6,248.9l9.9-7.8c0,0,1.5-4.2,2.1-4.9c0.6-0.7,9.3-3.9,10-4c0.7-0.1,0,7.1-1.1,8.3
			c-1.1,1.2-8.1,3.6-8.1,3.6l-10.4,9.8L113.6,248.9z"/>
		<g>
			<path class="st9" d="M93.8,231.1c-5.8,2.9-8.4,35.8,1.7,41.5c10.1,5.7,25.2-20,25.2-20l-5.9-6.2c0,0-12.3,10.3-13.8,9.4
				c-1.5-0.9,0.2-11,0.2-11s1.7-3-1.9-7.8C95.7,232.1,93.8,231.1,93.8,231.1z"/>
			<path class="st13" d="M93.8,231.1c-5.8,2.9-8.4,35.8,1.7,41.5c10.1,5.7,25.2-20,25.2-20l-5.9-6.2c0,0-12.3,10.3-13.8,9.4
				c-1.5-0.9,0.2-11,0.2-11s1.7-3-1.9-7.8C95.7,232.1,93.8,231.1,93.8,231.1z"/>
		</g>
		<polygon class="st9" points="120.8,254.9 122.5,253.9 115.9,244.2 113.5,245.5 		"/>
	</g>
</g>
</svg>
